SplineFontDB: 3.2
FontName: MonegoFix-Bold
FullName: Monego Fix Bold
FamilyName: Monego Fix
Weight: Bold
Copyright: Anyone is free to copy, modify, publish, use, compile, sell, or distribute this software, either in source code form or as a compiled binary, for any purpose, commercial or non-commercial, and by any means.\nProgramming ligatures added by Ilya Skriblovsky from FiraCode\nFiraCode Copyright (c) 2015 by Nikita Prokopov
Version: 1.000
ItalicAngle: 0
UnderlinePosition: 1
UnderlineWidth: 155
Ascent: 1638
Descent: 410
InvalidEm: 0
sfntRevision: 0x00010000
LayerCount: 2
Layer: 0 0 "Back" 1
Layer: 1 0 "Fore" 0
XUID: [1021 860 -1587206583 231260]
StyleMap: 0x0020
FSType: 4
OS2Version: 3
OS2_WeightWidthSlopeOnly: 0
OS2_UseTypoMetrics: 0
CreationTime: 1591915200
ModificationTime: 1704466648
PfmFamily: 81
TTFWeight: 700
TTFWidth: 5
LineGap: 171
VLineGap: 0
Panose: 0 0 0 0 0 0 0 0 0 0
OS2TypoAscent: 2048
OS2TypoAOffset: 0
OS2TypoDescent: -512
OS2TypoDOffset: 0
OS2TypoLinegap: 171
OS2WinAscent: 2504
OS2WinAOffset: 0
OS2WinDescent: 862
OS2WinDOffset: 0
HheadAscent: 2048
HheadAOffset: 0
HheadDescent: -512
HheadDOffset: 0
OS2SubXSize: 1331
OS2SubYSize: 1228
OS2SubXOff: 0
OS2SubYOff: 153
OS2SupXSize: 1331
OS2SupYSize: 1228
OS2SupXOff: 0
OS2SupYOff: 716
OS2StrikeYSize: 155
OS2StrikeYPos: 670
OS2CapHeight: 1552
OS2XHeight: 1117
OS2Vendor: 'pyrs'
OS2CodePages: 60000197.00000000
OS2UnicodeRanges: a000027f.00000003.00000000.00000000
MarkAttachClasses: 1
DEI: 91125
LangName: 1033 "" "" "" "" "" "Version 1.000" "" "Please refer to the Copyright section for the font trademark attribution notices."
Encoding: UnicodeBmp
UnicodeInterp: none
NameList: AGL For New Fonts
DisplaySize: -48
AntiAlias: 1
FitToEm: 0
WinInfo: 51 51 19
BeginPrivate: 9
BlueValues 27 [-44 0 1117 1145 1552 1596]
OtherBlues 11 [-427 -398]
BlueScale 9 0.0208333
BlueShift 1 6
StdHW 5 [241]
StdVW 5 [285]
StemSnapH 25 [212 221 235 241 256 271]
StemSnapV 21 [248 264 269 278 285]
ForceBold 4 true
EndPrivate

StartChar: .notdef
Encoding: 65536 -1 0
Width: 1229
GlyphClass: 1
Flags: W
LayerCount: 2
Fore
SplineSet
991 1552 m 1
 991 0 l 1
 211 0 l 1
 211 1552 l 1
 991 1552 l 1
756 236 m 1
 756 1316 l 1
 447 1316 l 1
 447 236 l 1
 756 236 l 1
EndSplineSet
EndChar

StartChar: exclam
Encoding: 33 33 2
Width: 1229
GlyphClass: 2
Flags: W
LayerCount: 2
Fore
SplineSet
787.145507812 1456 m 1
 746.178710938 536 l 1
 484.772460938 536 l 1
 442.830078125 1456 l 1
 787.145507812 1456 l 1
614.5 344 m 0
 717.891601562 344 799.825195312 258 799.825195312 154 c 0
 799.825195312 50 717.891601562 -36 614.5 -36 c 0
 513.05859375 -36 429.174804688 50 429.174804688 154 c 0
 429.174804688 258 513.05859375 344 614.5 344 c 0
EndSplineSet
EndChar

StartChar: quotedbl
Encoding: 34 34 3
Width: 1229
GlyphClass: 2
Flags: MW
HStem: 990 620<512 718 512 512 918 918 918 1123>
VStem: 221 748
LayerCount: 2
Fore
SplineSet
781 1610 m 1
 718 990 l 1
 512 990 l 1
 441 1610 l 1
 781 1610 l 1
1189 1610 m 1
 1123 990 l 1
 918 990 l 1
 854 1610 l 1
 1189 1610 l 1
EndSplineSet
EndChar

StartChar: numbersign
Encoding: 35 35 4
Width: 1229
GlyphClass: 2
Flags: W
LayerCount: 2
Fore
SplineSet
1005.63378906 938 m 1
 954.913085938 522 l 1
 1082.69042969 522 l 1
 1082.69042969 304 l 1
 925.651367188 304 l 1
 887.611328125 0 l 1
 619.376953125 0 l 1
 658.392578125 304 l 1
 464.2890625 304 l 1
 425.2734375 0 l 1
 158.014648438 0 l 1
 195.079101562 304 l 1
 73.154296875 304 l 1
 73.154296875 522 l 1
 223.366210938 522 l 1
 277.012695312 938 l 1
 148.260742188 938 l 1
 148.260742188 1157 l 1
 305.298828125 1157 l 1
 342.364257812 1456 l 1
 611.57421875 1456 l 1
 571.583007812 1157 l 1
 767.637695312 1157 l 1
 806.653320312 1456 l 1
 1073.91210938 1456 l 1
 1034.89648438 1157 l 1
 1158.77148438 1157 l 1
 1158.77148438 938 l 1
 1005.63378906 938 l 1
490.625 522 m 1
 685.704101562 522 l 1
 738.375 938 l 1
 544.271484375 938 l 1
 490.625 522 l 1
EndSplineSet
EndChar

StartChar: dollar
Encoding: 36 36 5
Width: 1229
GlyphClass: 2
Flags: MW
HStem: -145 1842<637 863 637 863>
VStem: 516 226
LayerCount: 2
Fore
SplineSet
863 -145 m 1
 637 -145 l 1
 637 2 l 1
 563 5 483 14 416 29 c 0
 376 39 320 60 243 94 c 1
 243 383 l 1
 400 304 501 261 637 248 c 1
 637 689 l 1
 612 703 586 718 562 732 c 0
 361 842 251 981 251 1143 c 0
 251 1230 291 1320 358 1399 c 0
 421 1471 517 1519 637 1537 c 1
 637 1697 l 1
 863 1697 l 1
 863 1540 l 1
 931 1535 1023 1518 1125 1491 c 1
 1125 1231 l 1
 1033 1256 l 2
 970 1274 912 1287 863 1296 c 1
 863 867 l 1
 945 820 l 2
 1051 759 1123 699 1164 638 c 0
 1205 576 1227 507 1227 434 c 0
 1223 258 1107 78 863 22 c 1
 863 -145 l 1
637 1007 m 1
 637 1288 l 1
 570 1260 535 1217 535 1165 c 0
 535 1136 549 1102 569 1073 c 0
 584 1052 609 1029 637 1007 c 1
863 549 m 1
 863 283 l 1
 887 297 905 311 914 325 c 0
 933 352 943 385 943 418 c 0
 943 449 934 476 917 498 c 0
 907 512 890 528 863 549 c 1
EndSplineSet
EndChar

StartChar: percent
Encoding: 37 37 6
Width: 1229
GlyphClass: 2
Flags: W
LayerCount: 2
Fore
SplineSet
871.029296875 1504 m 1
 1043.67480469 1430 l 1
 344.315429688 -61 l 1
 172.645507812 13 l 1
 871.029296875 1504 l 1
300.421875 1492 m 0
 482.821289062 1492 591.090820312 1363 591.090820312 1163 c 0
 591.090820312 965 482.821289062 835 300.421875 835 c 0
 116.072265625 835 6.828125 965 6.828125 1163 c 0
 6.828125 1354 116.072265625 1492 300.421875 1492 c 0
300.421875 1330 m 0
 233.120117188 1330 218.489257812 1267 218.489257812 1163 c 0
 218.489257812 1063 237.021484375 998 300.421875 998 c 0
 367.724609375 998 382.35546875 1059 382.35546875 1163 c 0
 382.35546875 1275 367.724609375 1330 300.421875 1330 c 0
929.552734375 645 m 0
 1111.95214844 645 1220.22167969 515 1220.22167969 315 c 0
 1220.22167969 117 1111.95214844 -13 929.552734375 -13 c 0
 745.203125 -13 635.958984375 117 635.958984375 315 c 0
 635.958984375 506 745.203125 645 929.552734375 645 c 0
929.552734375 482 m 0
 862.250976562 482 847.620117188 419 847.620117188 315 c 0
 847.620117188 215 866.15234375 150 929.552734375 150 c 0
 996.85546875 150 1011.48632812 211 1011.48632812 315 c 0
 1011.48632812 427 996.85546875 482 929.552734375 482 c 0
EndSplineSet
EndChar

StartChar: ampersand
Encoding: 38 38 7
Width: 1229
GlyphClass: 2
Flags: W
LayerCount: 2
Fore
SplineSet
571.583007812 1490 m 0
 738.375 1490 859.32421875 1447 970.51953125 1325 c 1
 794.948242188 1171 l 1
 733.498046875 1237 688.629882812 1265 609.623046875 1265 c 0
 512.083007812 1265 457.4609375 1201 457.4609375 1100 c 0
 457.4609375 990 534.517578125 908 648.638671875 908 c 2
 1184.13183594 908 l 1
 1184.13183594 696 l 1
 1048.55175781 696 l 1
 1048.55175781 148 l 1
 963.692382812 56 819.333007812 -36 575.484375 -36 c 0
 251.65234375 -36 77.056640625 159 77.056640625 416 c 0
 77.056640625 648 196.0546875 769 388.208007812 817 c 1
 388.208007812 826 l 1
 227.267578125 870 146.309570312 973 146.309570312 1141 c 0
 146.309570312 1339 325.782226562 1490 571.583007812 1490 c 0
750.080078125 696 m 1
 630.106445312 696 l 2
 466.239257812 696 392.109375 571 392.109375 440 c 0
 392.109375 301 462.337890625 206 593.041015625 206 c 0
 662.294921875 206 716.916992188 229 750.080078125 264 c 1
 750.080078125 696 l 1
EndSplineSet
EndChar

StartChar: quoteright
Encoding: 39 39 8
Width: 1229
GlyphClass: 2
Flags: MW
HStem: 932 678<870 1078 870 870>
VStem: 378 434
LayerCount: 2
Fore
SplineSet
1189 1610 m 1
 1078 932 l 1
 870 932 l 1
 755 1610 l 1
 1189 1610 l 1
EndSplineSet
EndChar

StartChar: parenleft
Encoding: 40 40 9
Width: 1229
GlyphClass: 2
Flags: MW
HStem: -352 1995<1220 1220>
VStem: 148 285 148 925
LayerCount: 2
Fore
SplineSet
1220 -114 m 1xa0
 1220 -352 l 1
 1003 -340 833 -285 705 -193 c 0
 580 -100 481 22 406 178 c 0
 333 333 295 488 295 645 c 0
 295 801 333 956 406 1111 c 0
 481 1267 580 1389 705 1482 c 0
 833 1573 1003 1628 1220 1643 c 1
 1220 1403 l 1
 1077 1388 950 1339 865 1276 c 1
 782 1205 704 1107 656 1003 c 0
 605 892 580 772 580 645 c 0
 580 516 605 396 656 285 c 0xc0
 704 179 779 85 865 13 c 1
 865 14 l 1
 954 -55 1074 -99 1220 -114 c 1xa0
EndSplineSet
EndChar

StartChar: parenright
Encoding: 41 41 10
Width: 1229
GlyphClass: 2
Flags: MW
HStem: -352 1995<235 235>
VStem: 118 925 759 284
LayerCount: 2
Fore
SplineSet
235 1403 m 1xc0
 235 1643 l 1
 452 1628 623 1573 750 1482 c 0
 875 1389 975 1267 1048 1111 c 0
 1123 956 1160 801 1160 645 c 0
 1160 488 1123 333 1048 178 c 0
 975 22 875 -100 750 -193 c 0
 623 -285 452 -339 235 -352 c 1
 235 -114 l 1
 384 -99 503 -57 589 13 c 0
 680 86 749 177 799 286 c 0
 851 397 876 518 876 645 c 0
 876 772 851 892 799 1003 c 0xa0
 752 1109 674 1204 589 1276 c 1
 503 1343 380 1388 235 1403 c 1xc0
EndSplineSet
EndChar

StartChar: asterisk
Encoding: 42 42 11
Width: 1229
GlyphClass: 2
Flags: W
LayerCount: 2
Fore
SplineSet
461.362304688 1245 m 1
 505.255859375 849 l 1
 151.186523438 1015 l 1
 56.5732421875 715 l 1
 438.928710938 636 l 1
 176.546875 341 l 1
 423.322265625 159 l 1
 614.5 503 l 1
 806.653320312 159 l 1
 1053.42871094 341 l 1
 791.046875 636 l 1
 1173.40234375 715 l 1
 1077.81347656 1015 l 1
 724.719726562 849 l 1
 768.612304688 1245 l 1
 461.362304688 1245 l 1
EndSplineSet
EndChar

StartChar: plus
Encoding: 43 43 12
Width: 1229
GlyphClass: 2
Flags: W
LayerCount: 2
Fore
SplineSet
749.104492188 1216 m 1
 749.104492188 785 l 1
 1161.69726562 785 l 1
 1161.69726562 528 l 1
 749.104492188 528 l 1
 749.104492188 97 l 1
 477.944335938 97 l 1
 477.944335938 528 l 1
 67.302734375 528 l 1
 67.302734375 785 l 1
 477.944335938 785 l 1
 477.944335938 1216 l 1
 749.104492188 1216 l 1
EndSplineSet
EndChar

StartChar: comma
Encoding: 44 44 13
Width: 1229
GlyphClass: 2
Flags: MW
HStem: -414 21G<737 737> -29 21G
VStem: 369 452
LayerCount: 2
Fore
SplineSet
737 -414 m 1
 737 -207 l 1
 837 -182 878 -144 898 -91 c 0
 907 -72 913 -51 916 -29 c 1
 866 -20 829 0 800 34 c 0
 766 75 747 120 747 170 c 0
 747 228 768 276 809 314 c 1
 808 314 l 1
 847 352 894 373 948 373 c 0
 1014 373 1072 343 1121 287 c 0
 1165 233 1189 159 1189 70 c 0
 1186 -153 1015 -380 737 -414 c 1
EndSplineSet
EndChar

StartChar: hyphen
Encoding: 45 45 14
Width: 1229
GlyphClass: 2
Flags: W
LayerCount: 2
Fore
SplineSet
170.694335938 528 m 1
 170.694335938 787 l 1
 1058.30566406 787 l 1
 1058.30566406 528 l 1
 170.694335938 528 l 1
EndSplineSet
EndChar

StartChar: period
Encoding: 46 46 15
Width: 1229
GlyphClass: 2
Flags: W
LayerCount: 2
Fore
SplineSet
386.256835938 198 m 0
 386.256835938 325 488.673828125 433 614.5 433 c 0
 740.326171875 433 842.743164062 325 842.743164062 198 c 0
 842.743164062 71 740.326171875 -36 614.5 -36 c 0
 488.673828125 -36 386.256835938 71 386.256835938 198 c 0
EndSplineSet
EndChar

StartChar: slash
Encoding: 47 47 16
Width: 1229
GlyphClass: 2
Flags: W
LayerCount: 2
Fore
SplineSet
311.151367188 -235 m 1
 58.5234375 -117 l 1
 919.798828125 1716 l 1
 1170.4765625 1597 l 1
 311.151367188 -235 l 1
EndSplineSet
EndChar

StartChar: zero
Encoding: 48 48 17
Width: 1229
GlyphClass: 2
Flags: MW
HStem: -44 21G<540 723> -44 240<593.5 671.5 593.5 723> 1355 240<590.5 646.5> 1575 20G<542.5 723>
VStem: 37 285 868 284
LayerCount: 2
Fore
SplineSet
631 1595 m 0x9c
 815 1595 953 1518 1050 1364 c 0
 1142 1217 1188 1021 1188 776 c 0
 1188 530 1142 335 1050 186 c 0
 953 33 815 -44 631 -44 c 0
 449 -44 308 33 212 186 c 0
 119 334 73 530 73 776 c 0
 73 1015 124 1218 212 1364 c 1
 307 1511 454 1595 631 1595 c 0x9c
370 589 m 1
 794 1255 l 1
 772 1290 748 1315 722 1329 c 0
 692 1346 662 1355 631 1355 c 0x6c
 550 1355 482 1301 435 1206 c 0
 385 1099 358 956 358 787 c 0
 358 746 359 704 362 657 c 0
 363 636 366 614 370 589 c 1
892 956 m 1
 469 285 l 1
 509 229 564 196 623 196 c 0
 720 196 790 256 832 365 c 1
 832 364 l 1
 877 490 904 638 904 791 c 0
 904 848 900 902 892 956 c 1
EndSplineSet
EndChar

StartChar: one
Encoding: 49 49 18
Width: 1229
GlyphClass: 2
Flags: MW
HStem: 0 241<297 653 924 1273 297 653> 1532 20G<682 924 924 924>
VStem: 505 271
LayerCount: 2
Fore
SplineSet
297 241 m 1
 653 241 l 1
 653 1222 l 1
 626 1203 598 1185 572 1170 c 0
 518 1139 425 1099 297 1053 c 1
 297 1309 l 1
 447 1374 576 1454 682 1552 c 1
 924 1552 l 1
 924 241 l 1
 1273 241 l 1
 1273 0 l 1
 297 0 l 1
 297 241 l 1
EndSplineSet
EndChar

StartChar: two
Encoding: 50 50 19
Width: 1229
GlyphClass: 2
Flags: MW
HStem: 0 256<503 1198 503 1198> 1575 20G<705.5 771.5>
VStem: 111 977
LayerCount: 2
Fore
SplineSet
1198 256 m 1
 1198 0 l 1
 221 0 l 1
 221 208 l 2
 221 301 253 405 352 530 c 0
 392 580 454 648 508 703 c 1
 507 703 l 1
 607 805 l 2
 628 826 673 874 738 946 c 0
 801 1018 842 1071 863 1109 c 0
 882 1145 892 1177 892 1205 c 0
 892 1252 873 1286 837 1310 c 0
 795 1340 747 1355 695 1355 c 0
 662 1355 626 1351 584 1343 c 1
 585 1343 l 1
 572 1340 l 2
 532 1332 498 1325 474 1316 c 0
 443 1306 369 1275 250 1221 c 1
 250 1480 l 1
 349 1528 445 1560 526 1573 c 0
 591 1584 680 1595 731 1595 c 0
 812 1595 890 1581 956 1555 c 0
 1026 1526 1086 1480 1122 1419 c 1
 1122 1420 l 1
 1157 1362 1176 1298 1176 1229 c 0
 1176 1160 1150 1075 1108 1004 c 0
 1067 931 987 836 876 728 c 2
 769 622 l 1
 680 533 l 1
 680 534 l 1
 630 483 580 423 548 375 c 1
 548 374 l 1
 527 341 510 299 503 256 c 1
 1198 256 l 1
EndSplineSet
EndChar

StartChar: three
Encoding: 51 51 20
Width: 1229
GlyphClass: 2
Flags: MW
HStem: -44 21G<589.5 700.5> -44 240<589.5 675 586 700.5> 729 241<368 511 368 549> 1355 240<576.5 663> 1575 20G<565.5 714>
VStem: 108 990 813 285
LayerCount: 2
Fore
SplineSet
215 42 m 1xac
 215 336 l 1
 398 243 538 196 634 196 c 0
 716 196 789 224 841 272 c 1
 840 272 l 1
 892 322 920 386 920 462 c 0
 920 541 892 604 833 653 c 0
 773 703 666 729 511 729 c 2
 368 729 l 1
 368 970 l 1
 549 970 l 2
 659 970 736 992 781 1037 c 0
 825 1082 848 1131 848 1186 c 0
 848 1232 830 1271 795 1304 c 0
 759 1338 702 1355 624 1355 c 0x72
 529 1355 402 1316 244 1238 c 1
 244 1514 l 1
 388 1567 513 1595 618 1595 c 0
 810 1595 943 1556 1018 1475 c 0
 1095 1395 1133 1304 1133 1204 c 0
 1133 1131 1109 1055 1073 993 c 0
 1046 948 1007 910 947 871 c 1
 992 852 1026 830 1056 806 c 0
 1102 766 1142 712 1167 660 c 0
 1191 605 1205 539 1205 475 c 0xaa
 1205 324 1149 199 1037 100 c 0
 928 4 787 -44 614 -44 c 0
 565 -44 510 -40 456 -34 c 0
 399 -26 315 0 215 42 c 1xac
EndSplineSet
EndChar

StartChar: four
Encoding: 52 52 21
Width: 1229
GlyphClass: 2
Flags: MW
HStem: 0 21G<649 921 649 649> 407 242<354 649 354 649 921 1190> 1532 20G<671 921 921 921>
VStem: 634 272
LayerCount: 2
Fore
SplineSet
921 0 m 1
 649 0 l 1
 649 407 l 1
 31 407 l 1
 31 617 l 1
 671 1552 l 1
 921 1552 l 1
 921 649 l 1
 1190 649 l 1
 1190 407 l 1
 921 407 l 1
 921 0 l 1
354 649 m 1
 649 649 l 1
 649 1081 l 1
 608 1020 565 960 524 899 c 0
 459 803 422 751 354 649 c 1
EndSplineSet
EndChar

StartChar: five
Encoding: 53 53 22
Width: 1229
GlyphClass: 2
Flags: MW
HStem: -44 21G<593.5 695.5> 758 269<265 535> 1289 263<535 1176 535 535>
VStem: 148 270 811 291
LayerCount: 2
Fore
SplineSet
426 758 m 2
 265 758 l 1
 265 1552 l 1
 1176 1552 l 1
 1176 1289 l 1
 535 1289 l 1
 535 1027 l 1
 744 1024 912 975 1030 887 c 1
 1150 790 1219 655 1219 495 c 0
 1219 288 1113 118 931 23 c 0
 841 -21 747 -44 644 -44 c 0
 543 -44 407 -17 235 36 c 1
 235 346 l 1
 341 285 416 255 475 237 c 1
 473 237 l 1
 532 222 593 212 644 212 c 0
 692 212 739 223 785 247 c 0
 831 271 866 302 890 345 c 0
 914 389 928 434 928 480 c 0
 928 556 894 618 825 672 c 0
 752 729 621 758 426 758 c 2
EndSplineSet
EndChar

StartChar: six
Encoding: 54 54 23
Width: 1229
GlyphClass: 2
Flags: MW
HStem: -44 21G<595 767.5> -44 240<673.5 719.5 673.5 767.5> 765 241<703 766.5> 1355 240<712 811>
VStem: 67 277 67 1085 883 269
LayerCount: 2
Fore
SplineSet
507 1199 m 0xb4
 453 1108 420 996 410 865 c 1
 438 891 468 914 500 934 c 0
 574 980 659 1006 747 1006 c 0
 829 1006 912 982 984 944 c 0
 1060 903 1120 844 1160 771 c 0
 1199 697 1218 612 1218 518 c 0
 1218 376 1161 233 1073 125 c 1
 976 15 846 -44 689 -44 c 0
 501 -44 360 35 265 193 c 0
 178 343 133 532 133 760 c 0
 133 1015 189 1216 303 1364 c 0
 419 1518 577 1595 776 1595 c 0
 882 1595 992 1577 1110 1540 c 1
 1110 1253 l 1
 966 1320 853 1355 769 1355 c 0
 655 1355 569 1302 507 1199 c 0xb4
701 196 m 0
 738 196 781 212 821 232 c 1
 819 230 l 1
 857 254 889 291 912 339 c 0
 936 391 949 448 949 508 c 0
 949 585 929 647 889 697 c 1
 890 697 l 1
 854 742 802 765 731 765 c 0
 657 765 597 737 549 682 c 0
 500 625 476 556 476 473 c 0
 476 391 499 323 546 272 c 0
 593 222 646 196 701 196 c 0
EndSplineSet
EndChar

StartChar: seven
Encoding: 55 55 24
Width: 1229
GlyphClass: 2
Flags: MW
HStem: 0 21G<398 683 398 398> 1281 271<253 982 253 1272>
VStem: 272 285
LayerCount: 2
Fore
SplineSet
683 0 m 1
 398 0 l 1
 398 178 l 2
 398 286 410 376 436 451 c 1
 436 450 l 1
 461 527 503 608 562 694 c 0
 620 779 670 847 704 892 c 0
 752 957 808 1030 856 1094 c 2
 910 1164 l 2
 938 1200 961 1237 982 1281 c 1
 253 1281 l 1
 253 1552 l 1
 1272 1552 l 1
 1272 1388 l 2
 1272 1334 1261 1284 1239 1239 c 0
 1219 1197 1161 1109 1067 978 c 1
 1068 979 l 1
 1049 952 l 2
 1043 944 1035 934 1029 925 c 1
 1030 926 l 1
 1002 888 l 1
 903 749 l 2
 841 663 796 593 767 543 c 0
 741 496 718 442 703 390 c 0
 690 338 683 268 683 178 c 2
 683 0 l 1
EndSplineSet
EndChar

StartChar: eight
Encoding: 56 56 25
Width: 1229
GlyphClass: 2
Flags: MW
HStem: -44 21G<614.5 781> -44 241<672 731 672 781> 1355 240<674 726.5> 1575 20G<661 802>
VStem: 96 285 96 1012
LayerCount: 2
Fore
SplineSet
191 381 m 0x94
 191 543 283 694 465 833 c 1
 424 867 383 912 343 968 c 0
 295 1038 271 1115 271 1197 c 0
 271 1306 317 1403 402 1480 c 0
 486 1552 598 1595 724 1595 c 0
 880 1595 1020 1529 1092 1418 c 0
 1124 1362 1146 1292 1146 1228 c 0
 1146 1134 1113 1047 1050 964 c 0
 1024 930 981 886 918 833 c 1
 952 807 l 1
 1047 728 1114 658 1149 600 c 0
 1186 539 1203 469 1203 393 c 0
 1203 275 1160 173 1075 86 c 0
 990 -1 864 -44 698 -44 c 0
 531 -44 405 -4 320 77 c 0
 234 159 191 261 191 381 c 0x94
707 993 m 2
 724 982 l 1
 788 1034 830 1077 846 1111 c 0
 866 1150 876 1185 876 1216 c 0
 876 1249 859 1279 828 1308 c 0
 795 1339 752 1355 701 1355 c 0
 647 1355 605 1339 577 1307 c 0
 548 1275 534 1241 534 1208 c 0
 534 1177 546 1146 570 1115 c 1
 570 1115 l 1
 599 1078 646 1036 707 993 c 2
703 659 m 1
 676 681 l 1
 541 571 476 474 476 384 c 0
 476 332 497 289 541 254 c 0
 586 217 641 197 703 197 c 0
 759 197 810 218 855 252 c 0
 896 286 919 328 919 376 c 0
 919 427 891 480 835 535 c 0
 773 598 727 639 703 660 c 1
 703 659 l 1
EndSplineSet
EndChar

StartChar: nine
Encoding: 57 57 26
Width: 1229
GlyphClass: 2
Flags: MW
HStem: -44 21G<463 615.5> -44 241<481.5 580.5 481.5 615.5> 546 241<526 589.5> 1355 240<570.5 618> 1575 20G<526.5 697.5>
VStem: 37 271 37 1086 846 277
LayerCount: 2
Fore
SplineSet
784 353 m 0xaa
 839 444 872 554 882 685 c 1
 854 659 823 636 790 616 c 1
 790 617 l 1
 716 570 634 546 545 546 c 0
 460 546 381 566 306 606 c 0
 231 647 173 706 132 781 c 0
 93 855 73 940 73 1034 c 0
 73 1180 125 1316 217 1425 c 1
 314 1530 450 1595 603 1595 c 0
 792 1595 934 1516 1025 1358 c 0
 1115 1208 1159 1019 1159 791 c 0
 1159 537 1102 336 989 186 c 0
 872 33 715 -44 516 -44 c 0
 410 -44 300 -25 182 12 c 1
 182 297 l 1
 324 232 439 197 524 197 c 0
 637 197 723 250 784 353 c 0xaa
590 1355 m 0
 551 1355 512 1342 473 1319 c 0
 433 1296 402 1260 379 1211 c 0
 354 1160 344 1104 344 1043 c 0
 344 966 363 905 402 855 c 1
 401 855 l 1
 438 810 491 787 561 787 c 0
 633 787 696 818 742 869 c 0
 790 926 815 997 815 1078 c 0
 815 1159 792 1228 744 1278 c 0
 697 1329 646 1355 590 1355 c 0
EndSplineSet
EndChar

StartChar: colon
Encoding: 58 58 27
Width: 1229
GlyphClass: 2
Flags: W
LayerCount: 2
Fore
SplineSet
398.9375 912 m 0
 398.9375 1031 494.526367188 1132 614.5 1132 c 0
 734.473632812 1132 829.086914062 1031 829.086914062 912 c 0
 829.086914062 792 734.473632812 692 614.5 692 c 0
 494.526367188 692 398.9375 792 398.9375 912 c 0
398.9375 186 m 0
 398.9375 305 494.526367188 403 614.5 403 c 0
 734.473632812 403 829.086914062 305 829.086914062 186 c 0
 829.086914062 65 734.473632812 -36 614.5 -36 c 0
 494.526367188 -36 398.9375 65 398.9375 186 c 0
EndSplineSet
EndChar

StartChar: semicolon
Encoding: 59 59 28
Width: 1229
GlyphClass: 2
Flags: W
LayerCount: 2
Fore
SplineSet
614.5 1132 m 0
 734.473632812 1132 829.086914062 1031 829.086914062 912 c 0
 829.086914062 792 734.473632812 692 614.5 692 c 0
 494.526367188 692 398.9375 792 398.9375 912 c 0
 398.9375 1031 494.526367188 1132 614.5 1132 c 0
614.5 414 m 0
 736.424804688 414 829.086914062 320 829.086914062 195 c 0
 829.086914062 117 797.875 45 743.251953125 -84 c 2
 601.8203125 -415 l 1
 392.109375 -415 l 1
 492.575195312 16 l 1
 433.076171875 55 398.9375 119 398.9375 197 c 0
 398.9375 320 492.575195312 414 614.5 414 c 0
EndSplineSet
EndChar

StartChar: less
Encoding: 60 60 29
Width: 1229
GlyphClass: 2
Flags: W
LayerCount: 2
Fore
SplineSet
945.159179688 1287 m 1
 1086.59179688 1058 l 1
 422.346679688 660 l 1
 1086.59179688 269 l 1
 940.282226562 33 l 1
 142.408203125 541 l 1
 142.408203125 776 l 1
 945.159179688 1287 l 1
EndSplineSet
EndChar

StartChar: equal
Encoding: 61 61 30
Width: 1229
GlyphClass: 2
Flags: W
LayerCount: 2
Fore
SplineSet
1079.76464844 1004 m 1
 1079.76464844 745 l 1
 149.235351562 745 l 1
 149.235351562 1004 l 1
 1079.76464844 1004 l 1
1079.76464844 562 m 1
 1079.76464844 305 l 1
 149.235351562 305 l 1
 149.235351562 562 l 1
 1079.76464844 562 l 1
EndSplineSet
EndChar

StartChar: greater
Encoding: 62 62 31
Width: 1229
GlyphClass: 2
Flags: W
LayerCount: 2
Fore
SplineSet
285.791015625 1287 m 1
 1086.59179688 778 l 1
 1086.59179688 541 l 1
 288.717773438 33 l 1
 142.408203125 258 l 1
 808.603515625 660 l 1
 142.408203125 1048 l 1
 285.791015625 1287 l 1
EndSplineSet
EndChar

StartChar: question
Encoding: 63 63 32
Width: 1229
GlyphClass: 2
Flags: W
LayerCount: 2
Fore
SplineSet
606.697265625 1492 m 0
 918.82421875 1492 1077.81347656 1328 1077.81347656 1141 c 0
 1077.81347656 801 697.409179688 825 697.409179688 579 c 2
 697.409179688 536 l 1
 401.86328125 536 l 1
 401.86328125 589 l 2
 401.86328125 950 740.326171875 938 740.326171875 1112 c 0
 740.326171875 1189 672.048828125 1231 576.459960938 1231 c 0
 482.821289062 1231 394.060546875 1189 319.9296875 1103 c 1
 115.096679688 1267 l 1
 232.14453125 1408 392.109375 1492 606.697265625 1492 c 0
553.049804688 344 m 0
 655.466796875 344 738.375 258 738.375 154 c 0
 738.375 50 655.466796875 -36 553.049804688 -36 c 0
 449.658203125 -36 368.700195312 50 368.700195312 154 c 0
 368.700195312 258 449.658203125 344 553.049804688 344 c 0
EndSplineSet
EndChar

StartChar: at
Encoding: 64 64 33
Width: 1229
GlyphClass: 2
Flags: MW
HStem: -44 205<543 610> 1012 219<612 853 612 853 626 641 641 641> 1391 204<491 602>
VStem: -27 212 187 249 639 241 1007 212
LayerCount: 2
Fore
SplineSet
904 349 m 1
 904 63 l 1
 835 17 773 -13 728 -25 c 1
 729 -25 l 1
 684 -39 635 -44 585 -44 c 0
 446 -44 326 -6 237 61 c 0
 149 130 76 226 23 345 c 0
 -28 464 -54 609 -54 781 c 0
 -54 1020 2 1213 112 1363 c 0
 226 1517 380 1595 574 1595 c 0
 763 1595 914 1527 1027 1390 c 0
 1137 1256 1192 1081 1192 867 c 0
 1192 669 1128 545 1030 468 c 1
 1030 469 l 1
 980 428 916 407 844 407 c 0
 785 407 737 420 699 447 c 0
 679 462 661 486 646 517 c 1
 635 503 625 492 613 479 c 0
 567 431 506 407 432 407 c 0
 352 407 285 443 234 515 c 1
 234 514 l 1
 185 581 160 661 160 758 c 0
 160 874 194 979 259 1075 c 0
 329 1179 451 1231 626 1231 c 2
 853 1231 l 1
 853 772 l 2
 853 723 855 687 858 664 c 1
 858 665 l 1
 860 652 864 643 869 638 c 0
 872 635 876 634 880 634 c 0
 932 632 984 736 980 859 c 0
 980 957 962 1054 926 1148 c 0
 892 1232 840 1300 777 1334 c 0
 709 1372 639 1391 565 1391 c 0
 417 1391 294 1287 217 1106 c 1
 217 1107 l 1
 180 1010 158 893 158 779 c 0
 158 659 178 547 217 443 c 0
 256 344 308 271 369 227 c 0
 431 186 505 161 581 161 c 0
 667 161 775 223 904 349 c 1
612 1012 m 1
 626 1012 l 1
 641 1012 l 1
 612 1041 l 1
 612 1012 l 1
612 816 m 1
 612 1012 l 1
 556 1010 517 1001 495 986 c 1
 496 987 l 1
 470 969 450 940 435 898 c 0
 418 853 409 805 409 753 c 0
 409 686 423 649 446 649 c 0
 468 649 496 668 523 698 c 1
 523 697 l 1
 556 733 588 774 612 816 c 1
EndSplineSet
EndChar

StartChar: A
Encoding: 65 65 34
Width: 1229
GlyphClass: 2
Flags: MW
HStem: 0 21G<-30 253 -30 -30 891 891 891 1192> 320 241<351 719 426 719 426 792> 1532 20G<447 712 712 712>
VStem: -15 1222
LayerCount: 2
Fore
SplineSet
351 320 m 1
 253 0 l 1
 -30 0 l 1
 447 1552 l 1
 712 1552 l 1
 1192 0 l 1
 891 0 l 1
 792 320 l 1
 351 320 l 1
571 1029 m 1
 578 1051 l 1
 598 1132 l 1
 542 1132 l 1
 564 1051 l 1
 571 1029 l 1
719 561 m 1
 571 1029 l 1
 426 561 l 1
 719 561 l 1
EndSplineSet
EndChar

StartChar: B
Encoding: 66 66 35
Width: 1229
GlyphClass: 2
Flags: MW
HStem: 0 241<550 666> 655 241<550 691 550 555> 1310 242<550 550 550 597 597 635>
VStem: 133 285
LayerCount: 2
Fore
SplineSet
666 0 m 2
 265 0 l 1
 265 1552 l 1
 597 1552 l 2
 773 1552 894 1537 959 1508 c 0
 1025 1479 1077 1431 1111 1374 c 0
 1144 1317 1161 1249 1161 1177 c 0
 1161 1063 1123 959 1048 873 c 0
 1026 849 1001 826 969 803 c 1
 1058 759 1105 714 1144 651 c 1
 1144 652 l 1
 1190 578 1212 502 1212 424 c 0
 1212 351 1193 282 1153 213 c 0
 1114 143 1059 91 989 54 c 0
 920 18 813 0 666 0 c 2
550 1310 m 1
 550 896 l 1
 691 896 l 1
 746 920 785 944 809 967 c 0
 832 992 851 1019 864 1049 c 0
 877 1082 883 1116 883 1153 c 0
 883 1205 868 1245 839 1271 c 1
 840 1271 l 1
 808 1297 740 1310 635 1310 c 2
 550 1310 l 1
550 655 m 1
 550 241 l 1
 682 241 l 2
 768 241 830 260 869 297 c 1
 869 297 l 1
 908 335 927 380 927 434 c 0
 927 512 885 582 793 622 c 0
 744 645 665 655 555 655 c 2
 550 655 l 1
EndSplineSet
EndChar

StartChar: C
Encoding: 67 67 36
Width: 1229
GlyphClass: 2
Flags: MW
HStem: -44 21G<765.5 872.5> -44 240<787.5 864 787.5 872.5> 1355 241<764.5 865> 1576 20G<764.5 872.5>
VStem: 81 292 81 1006
LayerCount: 2
Fore
SplineSet
1167 319 m 1x94
 1167 31 l 1
 1033 -18 918 -44 827 -44 c 0
 704 -44 590 -13 487 55 c 0
 383 120 304 218 246 348 c 0
 189 477 161 619 161 776 c 0
 161 932 189 1073 245 1202 c 1
 244 1202 l 1
 300 1331 380 1429 485 1495 c 0
 588 1563 702 1596 827 1596 c 0
 918 1596 1033 1570 1167 1521 c 1
 1167 1232 l 1
 1028 1314 911 1355 819 1355 c 0
 690 1355 574 1261 507 1082 c 0
 470 988 453 887 453 776 c 0
 453 663 471 561 509 466 c 0xa8
 545 374 591 305 646 260 c 1
 646 261 l 1
 700 219 756 196 819 196 c 0x54
 909 196 1026 237 1167 319 c 1x94
EndSplineSet
EndChar

StartChar: D
Encoding: 68 68 37
Width: 1229
GlyphClass: 2
Flags: MW
HStem: 0 256<520 599 599 628> 1310 242<520 520 520 613>
VStem: 118 285 861 284
LayerCount: 2
Fore
SplineSet
628 0 m 2
 235 0 l 1
 235 1552 l 1
 628 1552 l 2
 795 1552 924 1519 1009 1459 c 0
 1094 1398 1160 1304 1201 1186 c 0
 1241 1069 1262 931 1262 772 c 0
 1262 625 1238 486 1198 374 c 0
 1153 255 1088 162 1008 98 c 1
 1008 99 l 1
 924 32 798 0 628 0 c 2
520 1310 m 1
 520 256 l 1
 599 256 l 2
 712 256 796 276 842 313 c 0
 889 352 923 408 944 480 c 1
 944 479 l 1
 966 556 978 664 978 802 c 0
 978 933 964 1038 940 1108 c 0
 917 1166 878 1227 838 1258 c 0
 793 1292 719 1310 613 1310 c 2
 520 1310 l 1
EndSplineSet
EndChar

StartChar: E
Encoding: 69 69 38
Width: 1229
GlyphClass: 2
Flags: MW
HStem: 0 256<608 1205 608 1205> 670 241<608 1131 608 1131> 1310 242<608 1190 608 608>
VStem: 162 285
LayerCount: 2
Fore
SplineSet
608 256 m 1
 1205 256 l 1
 1205 0 l 1
 323 0 l 1
 323 1552 l 1
 1190 1552 l 1
 1190 1310 l 1
 608 1310 l 1
 608 911 l 1
 1131 911 l 1
 1131 670 l 1
 608 670 l 1
 608 256 l 1
EndSplineSet
EndChar

StartChar: F
Encoding: 70 70 39
Width: 1229
GlyphClass: 2
Flags: MW
HStem: 0 21G<369 654 369 369> 670 241<654 1207 654 1207> 1310 242<654 1266 654 654>
VStem: 185 285
LayerCount: 2
Fore
SplineSet
654 0 m 1
 369 0 l 1
 369 1552 l 1
 1266 1552 l 1
 1266 1310 l 1
 654 1310 l 1
 654 911 l 1
 1207 911 l 1
 1207 670 l 1
 654 670 l 1
 654 0 l 1
EndSplineSet
EndChar

StartChar: G
Encoding: 71 71 40
Width: 1229
GlyphClass: 2
Flags: MW
HStem: -44 240<854 882 854 882.5> 576 240<737 882 737 1167> 1355 241<764 864> 1576 20G<764 871.5>
VStem: 81 292 802 285
LayerCount: 2
Fore
SplineSet
1167 816 m 1xdc
 1167 13 l 1
 1039 -25 928 -44 837 -44 c 0
 575 -44 364 86 247 346 c 0
 190 474 161 616 161 776 c 0
 161 932 189 1073 245 1202 c 1
 244 1202 l 1
 300 1331 380 1429 485 1495 c 0
 588 1563 702 1596 826 1596 c 0
 917 1596 1032 1570 1166 1521 c 1
 1166 1232 l 1
 1027 1314 910 1355 818 1355 c 0xec
 693 1355 574 1253 506 1082 c 1
 506 1083 l 1
 472 990 453 883 453 774 c 0
 453 632 494 484 554 367 c 1
 618 257 720 196 854 196 c 2
 882 196 l 1
 882 576 l 1
 737 576 l 1
 737 816 l 1
 1167 816 l 1xdc
EndSplineSet
EndChar

StartChar: H
Encoding: 72 72 41
Width: 1229
GlyphClass: 2
Flags: MW
HStem: 0 21G<177 462 177 177 906 906 906 1189> 685 240<462 906 462 906> 1532 20G<177 462 462 462 906 1189 1189 1189>
VStem: 89 285 818 283
LayerCount: 2
Fore
SplineSet
462 0 m 1
 177 0 l 1
 177 1552 l 1
 462 1552 l 1
 462 925 l 1
 906 925 l 1
 906 1552 l 1
 1189 1552 l 1
 1189 0 l 1
 906 0 l 1
 906 685 l 1
 462 685 l 1
 462 0 l 1
EndSplineSet
EndChar

StartChar: I
Encoding: 73 73 42
Width: 1229
GlyphClass: 2
Flags: MW
HStem: 0 241<265 584 869 1190 265 584> 1310 242<265 584 265 1190 869 869 869 1190>
VStem: 452 285
LayerCount: 2
Fore
SplineSet
1190 0 m 1
 265 0 l 1
 265 241 l 1
 584 241 l 1
 584 1310 l 1
 265 1310 l 1
 265 1552 l 1
 1190 1552 l 1
 1190 1310 l 1
 869 1310 l 1
 869 241 l 1
 1190 241 l 1
 1190 0 l 1
EndSplineSet
EndChar

StartChar: J
Encoding: 74 74 43
Width: 1229
GlyphClass: 2
Flags: MW
HStem: -44 21G<478 591> -44 241<490 571 490 591> 1310 242<419 746 419 1031>
VStem: 676 285
LayerCount: 2
Fore
SplineSet
141 48 m 1xb0
 141 337 l 1
 317 244 448 197 532 197 c 0
 610 197 679 224 715 294 c 0x70
 736 333 746 421 746 556 c 2
 746 1310 l 1
 419 1310 l 1
 419 1552 l 1
 1031 1552 l 1
 1031 551 l 2
 1031 386 1012 267 973 194 c 0
 935 117 877 59 806 17 c 0
 735 -24 645 -44 537 -44 c 0
 419 -44 288 -14 141 48 c 1xb0
EndSplineSet
EndChar

StartChar: K
Encoding: 75 75 44
Width: 1229
GlyphClass: 2
Flags: MW
HStem: 0 21G<241 526 241 241 1033 1033 1033 1392> 1532 20G<241 526 526 526 997 1316 1316 1316>
VStem: 121 285
LayerCount: 2
Fore
SplineSet
526 0 m 1
 241 0 l 1
 241 1552 l 1
 526 1552 l 1
 526 931 l 1
 997 1552 l 1
 1316 1552 l 1
 758 813 l 1
 1245 188 l 1
 1392 0 l 1
 1033 0 l 1
 526 652 l 1
 526 0 l 1
EndSplineSet
EndChar

StartChar: L
Encoding: 76 76 45
Width: 1229
GlyphClass: 2
Flags: MW
HStem: 0 256<638 1235 638 1235> 1532 20G<353 638 638 638>
VStem: 177 285
LayerCount: 2
Fore
SplineSet
638 256 m 1
 1235 256 l 1
 1235 0 l 1
 353 0 l 1
 353 1552 l 1
 638 1552 l 1
 638 256 l 1
EndSplineSet
EndChar

StartChar: M
Encoding: 77 77 46
Width: 1229
GlyphClass: 2
Flags: MW
HStem: 0 21G<47 295 47 47 920 920 920 1191> 1532 20G<47 318 318 318 924 1191 1191 1191>
VStem: 24 248 897 271
LayerCount: 2
Fore
SplineSet
478 291 m 1
 295 802 l 1
 295 0 l 1
 47 0 l 1
 47 1552 l 1
 318 1552 l 1
 621 690 l 1
 719 973 826 1275 924 1552 c 1
 1191 1552 l 1
 1191 0 l 1
 920 0 l 1
 920 814 l 1
 735 291 l 1
 478 291 l 1
EndSplineSet
EndChar

StartChar: N
Encoding: 78 78 47
Width: 1229
GlyphClass: 2
Flags: MW
HStem: 0 21G<177 447 177 177 938 1189 938 938> 1532 20G<177 426 426 426 920 1189 1189 1189>
VStem: 89 270 832 269
LayerCount: 2
Fore
SplineSet
938 0 m 1
 447 936 l 1
 447 0 l 1
 177 0 l 1
 177 1552 l 1
 426 1552 l 1
 920 621 l 1
 920 1552 l 1
 1189 1552 l 1
 1189 0 l 1
 938 0 l 1
EndSplineSet
EndChar

StartChar: O
Encoding: 79 79 48
Width: 1229
GlyphClass: 2
Flags: MW
HStem: -44 21G<540 723> -44 241<595.5 666.5 595.5 723> 1355 240<595 667.5> 1575 20G<542.5 723>
VStem: 37 285 867 285
LayerCount: 2
Fore
SplineSet
631 -44 m 0x9c
 449 -44 308 33 212 186 c 0
 119 334 73 530 73 776 c 0
 73 1015 124 1218 212 1364 c 1
 307 1511 454 1595 631 1595 c 0
 815 1595 953 1518 1050 1364 c 0
 1142 1217 1188 1021 1188 776 c 0
 1188 530 1142 335 1050 186 c 0
 953 33 815 -44 631 -44 c 0x9c
631 197 m 0x6c
 702 197 768 246 819 329 c 1
 818 328 l 1
 873 426 903 576 903 776 c 0
 903 970 870 1126 818 1223 c 1
 766 1308 704 1355 631 1355 c 0
 559 1355 494 1308 443 1223 c 1
 391 1126 358 970 358 776 c 0
 358 576 388 426 443 328 c 1
 443 329 l 1
 494 246 560 197 631 197 c 0x6c
EndSplineSet
EndChar

StartChar: P
Encoding: 80 80 49
Width: 1229
GlyphClass: 2
Flags: MW
HStem: 0 21G<273 558 273 273> 531 241<558 588 558 593> 1310 242<558 558 558 625>
VStem: 137 285
LayerCount: 2
Fore
SplineSet
588 531 m 2
 558 531 l 1
 558 0 l 1
 273 0 l 1
 273 1552 l 1
 683 1552 l 2
 838 1552 955 1533 1030 1496 c 0
 1103 1461 1168 1402 1207 1332 c 0
 1248 1258 1268 1178 1268 1092 c 0
 1268 989 1242 893 1188 806 c 1
 1188 807 l 1
 1135 717 1059 649 963 601 c 0
 869 555 745 531 588 531 c 2
558 1310 m 1
 558 772 l 1
 593 772 l 2
 702 772 782 786 831 812 c 0
 880 838 916 874 942 923 c 0
 970 973 983 1027 983 1086 c 0
 983 1156 961 1210 916 1249 c 0
 871 1290 773 1310 625 1310 c 2
 558 1310 l 1
EndSplineSet
EndChar

StartChar: Q
Encoding: 81 81 50
Width: 1229
GlyphClass: 2
Flags: MW
HStem: -407 240<1102.5 1257 1193 1257 1193 1257> -3 21G 1355 240<597.5 670.5> 1575 20G<540 723>
VStem: 39 285 869 285
LayerCount: 2
Fore
SplineSet
1029 152 m 1xdc
 1029 151 l 1
 976 81 915 31 830 -3 c 1
 857 -43 885 -77 905 -93 c 0
 935 -117 973 -136 1022 -148 c 1
 1021 -148 l 1
 1070 -160 1129 -167 1193 -167 c 2
 1257 -167 l 1
 1257 -407 l 1
 1166 -407 l 2
 1039 -407 944 -393 882 -365 c 0
 821 -337 760 -292 710 -240 c 0
 667 -193 620 -120 581 -39 c 1
 470 -23 378 17 309 79 c 0
 236 145 178 246 137 378 c 0
 96 508 77 648 77 798 c 0
 77 1018 121 1204 210 1356 c 0
 304 1515 446 1595 634 1595 c 0
 812 1595 956 1511 1052 1365 c 1
 1140 1219 1192 1016 1192 775 c 0
 1192 660 1179 546 1156 441 c 0
 1131 339 1087 232 1029 152 c 1xdc
634 1355 m 0
 561 1355 498 1308 446 1223 c 1
 394 1126 362 970 362 776 c 0
 362 576 391 426 446 328 c 1
 445 329 l 1
 496 246 563 197 634 197 c 0
 705 197 770 246 821 329 c 1
 821 328 l 1
 876 426 907 576 907 776 c 0
 907 970 873 1126 821 1223 c 1
 770 1308 707 1355 634 1355 c 0
EndSplineSet
EndChar

StartChar: R
Encoding: 82 82 51
Width: 1229
GlyphClass: 2
Flags: MW
HStem: 0 21G<225 510 225 225 1012 1012 1012 1348> 618 243<510 626 510 717> 1310 242<510 510 510 604>
VStem: 113 285
LayerCount: 2
Fore
SplineSet
626 618 m 1
 510 618 l 1
 510 0 l 1
 225 0 l 1
 225 1552 l 1
 662 1552 l 2
 796 1552 896 1537 962 1509 c 0
 1030 1480 1085 1434 1122 1373 c 0
 1158 1314 1179 1247 1179 1177 c 0
 1179 1053 1129 922 1043 823 c 0
 1009 785 965 747 908 711 c 1
 1348 0 l 1
 1012 0 l 1
 626 618 l 1
510 1310 m 1
 510 861 l 1
 717 861 l 1
 762 888 802 916 824 943 c 0
 850 971 869 1003 882 1037 c 1
 882 1036 l 1
 895 1071 902 1102 902 1134 c 0
 902 1186 882 1228 844 1259 c 0
 802 1292 722 1310 604 1310 c 2
 510 1310 l 1
EndSplineSet
EndChar

StartChar: S
Encoding: 83 83 52
Width: 1229
GlyphClass: 2
Flags: MW
HStem: -44 21G<625 751> -44 241<634.5 715.5 634.5 751> 1355 240<722.5 805> 1575 20G<684 825>
VStem: 118 984
LayerCount: 2
Fore
SplineSet
235 45 m 1x98
 235 332 l 1
 425 243 576 197 693 197 c 0
 738 197 779 205 821 223 c 0
 859 240 888 263 907 290 c 0
 924 319 935 353 935 384 c 0
 935 423 919 463 895 498 c 0
 866 534 798 586 723 632 c 2
 686 653 l 1
 626 687 l 2
 596 706 561 724 530 742 c 0
 344 852 251 993 251 1159 c 0
 251 1280 295 1385 379 1468 c 0
 466 1549 599 1595 769 1595 c 0
 881 1595 996 1576 1117 1539 c 1
 1117 1271 l 1
 974 1326 853 1355 757 1355 c 0
 688 1355 632 1336 592 1302 c 0x68
 554 1270 535 1230 535 1184 c 0
 535 1139 549 1099 579 1070 c 1
 578 1070 l 1
 614 1032 658 998 714 969 c 1
 788 924 l 1
 880 868 l 1
 879 868 l 1
 956 823 l 2
 1132 716 1219 580 1219 415 c 0
 1219 290 1173 182 1082 91 c 0
 990 1 848 -44 654 -44 c 0
 596 -44 534 -39 480 -28 c 0
 427 -17 343 7 235 45 c 1x98
EndSplineSet
EndChar

StartChar: T
Encoding: 84 84 53
Width: 1229
GlyphClass: 2
Flags: MW
HStem: 0 21G<467 752 467 467> 1296 256<31 467 31 1190 752 752 752 1190>
VStem: 452 285
LayerCount: 2
Fore
SplineSet
752 0 m 1
 467 0 l 1
 467 1296 l 1
 31 1296 l 1
 31 1552 l 1
 1190 1552 l 1
 1190 1296 l 1
 752 1296 l 1
 752 0 l 1
EndSplineSet
EndChar

StartChar: U
Encoding: 85 85 54
Width: 1229
GlyphClass: 2
Flags: MW
HStem: -44 21G<577 729> -44 240<665.5 729> 1532 20G<177 462 462 462 920 1189 1189 1189>
VStem: 89 285 832 269
LayerCount: 2
Fore
SplineSet
177 572 m 2xb8
 177 1552 l 1
 462 1552 l 1
 462 548 l 2
 462 433 473 350 489 309 c 1
 508 273 533 245 565 226 c 1
 564 227 l 1
 603 207 643 196 688 196 c 0x78
 778 196 857 243 891 325 c 0
 909 377 920 479 920 622 c 2
 920 1552 l 1
 1189 1552 l 1
 1189 554 l 2
 1189 411 1167 297 1123 213 c 0
 1078 130 1019 64 947 21 c 0
 875 -20 781 -44 677 -44 c 0
 477 -44 317 32 236 184 c 0
 197 259 177 388 177 572 c 2xb8
EndSplineSet
EndChar

StartChar: V
Encoding: 86 86 55
Width: 1229
GlyphClass: 2
Flags: MW
HStem: 0 21G<450 715 450 450> 1532 20G<-30 270 270 270 910 1192 1192 1192>
VStem: -15 1222
LayerCount: 2
Fore
SplineSet
-30 1552 m 1
 270 1552 l 1
 589 522 l 1
 910 1552 l 1
 1192 1552 l 1
 715 0 l 1
 450 0 l 1
 -30 1552 l 1
EndSplineSet
EndChar

StartChar: W
Encoding: 87 87 56
Width: 1229
GlyphClass: 2
Flags: MW
HStem: 0 21G<162 423 162 162 741 741 741 1004> 1532 20G<-18 252 252 252 457 710 710 710 946 1191 1191 1191>
VStem: -9 1209
LayerCount: 2
Fore
SplineSet
423 0 m 1
 162 0 l 1
 -18 1552 l 1
 252 1552 l 1
 333 830 l 1
 457 1552 l 1
 710 1552 l 1
 854 789 l 1
 884 1042 917 1306 946 1552 c 1
 1191 1552 l 1
 1004 0 l 1
 741 0 l 1
 573 879 l 1
 423 0 l 1
EndSplineSet
EndChar

StartChar: X
Encoding: 88 88 57
Width: 1229
GlyphClass: 2
Flags: MW
HStem: 0 21G<-36 271 -36 -36 862 862 862 1190> 1532 20G<6 329 329 329 840 1145 1145 1145>
VStem: -18 1226
LayerCount: 2
Fore
SplineSet
569 531 m 1
 271 0 l 1
 -36 0 l 1
 417 808 l 1
 203 1194 l 2
 143 1301 61 1451 6 1552 c 1
 329 1552 l 1
 581 1099 l 1
 665 1249 756 1405 840 1552 c 1
 1145 1552 l 1
 734 824 l 1
 974 391 l 1
 1190 0 l 1
 862 0 l 1
 569 531 l 1
EndSplineSet
EndChar

StartChar: Y
Encoding: 89 89 58
Width: 1229
GlyphClass: 2
Flags: MW
HStem: 0 21G<440 725 440 440> 1532 20G<-26 297 297 297 889 1191 1191 1191>
VStem: 453 285
LayerCount: 2
Fore
SplineSet
725 0 m 1
 440 0 l 1
 440 711 l 1
 -26 1552 l 1
 297 1552 l 1
 593 1022 l 1
 638 1100 680 1179 724 1257 c 2
 889 1552 l 1
 1191 1552 l 1
 725 710 l 1
 725 0 l 1
EndSplineSet
EndChar

StartChar: Z
Encoding: 90 90 59
Width: 1229
GlyphClass: 2
Flags: MW
HStem: 0 256<520 1189 520 1189> 1310 242<192 826 192 1176>
VStem: 85 1020
LayerCount: 2
Fore
SplineSet
1189 0 m 1
 169 0 l 1
 169 220 l 1
 826 1310 l 1
 192 1310 l 1
 192 1552 l 1
 1176 1552 l 1
 1176 1346 l 1
 520 256 l 1
 1189 256 l 1
 1189 0 l 1
EndSplineSet
EndChar

StartChar: bracketleft
Encoding: 91 91 60
Width: 1229
GlyphClass: 2
Flags: MW
HStem: -349 240<886 1470 886 1470> 1398 242<886 1470 886 886>
VStem: 309 269
LayerCount: 2
Fore
SplineSet
1470 -349 m 1
 617 -349 l 1
 617 1640 l 1
 1470 1640 l 1
 1470 1398 l 1
 886 1398 l 1
 886 -109 l 1
 1470 -109 l 1
 1470 -349 l 1
EndSplineSet
EndChar

StartChar: backslash
Encoding: 92 92 61
Width: 1229
GlyphClass: 2
Flags: W
LayerCount: 2
Fore
SplineSet
58.5234375 1597 m 1
 311.151367188 1716 l 1
 1170.4765625 -117 l 1
 917.848632812 -235 l 1
 58.5234375 1597 l 1
EndSplineSet
EndChar

StartChar: bracketright
Encoding: 93 93 62
Width: 1229
GlyphClass: 2
Flags: MW
HStem: -349 240<59 641 59 911 59 641> 1398 242<59 641 59 911>
VStem: 612 270
LayerCount: 2
Fore
SplineSet
59 1640 m 1
 911 1640 l 1
 911 -349 l 1
 59 -349 l 1
 59 -109 l 1
 641 -109 l 1
 641 1398 l 1
 59 1398 l 1
 59 1640 l 1
EndSplineSet
EndChar

StartChar: asciicircum
Encoding: 94 94 63
Width: 1229
GlyphClass: 2
Flags: W
LayerCount: 2
Fore
SplineSet
761.78515625 1773 m 1
 1149.01757812 1107 l 1
 833.963867188 1107 l 1
 612.548828125 1525 l 1
 399.913085938 1107 l 1
 79.982421875 1107 l 1
 467.21484375 1773 l 1
 761.78515625 1773 l 1
EndSplineSet
EndChar

StartChar: underscore
Encoding: 95 95 64
Width: 1229
GlyphClass: 2
Flags: W
LayerCount: 2
Fore
SplineSet
102.416992188 -391 m 1
 102.416992188 -130 l 1
 1126.58300781 -130 l 1
 1126.58300781 -391 l 1
 102.416992188 -391 l 1
EndSplineSet
EndChar

StartChar: quoteleft
Encoding: 96 96 65
Width: 1229
GlyphClass: 2
Flags: MW
HStem: 1209 401<391 1100 391 813>
VStem: 196 709
LayerCount: 2
Fore
SplineSet
737 1610 m 1
 1100 1209 l 1
 813 1209 l 1
 391 1610 l 1
 737 1610 l 1
EndSplineSet
EndChar

StartChar: a
Encoding: 97 97 66
Width: 1229
GlyphClass: 2
Flags: MW
HStem: -28 21G<473 556.5> 0 21G<929 929 929 1185> 895 236<698.5 738 660.5 760> 1097 20G<913 1129 1129 1129> 1102 20G<871 876> 1111 20G<660.5 738>
VStem: 72 279 794 264
LayerCount: 2
Fore
SplineSet
929 0 m 1x45
 902 22 l 1x63
 891 64 883 106 876 154 c 1
 836 110 791 70 747 44 c 0
 667 -4 590 -28 523 -28 c 0
 423 -28 335 13 257 98 c 0
 180 180 143 303 143 466 c 0
 143 589 169 705 216 803 c 0
 262 896 334 985 412 1041 c 0
 496 1100 601 1131 720 1131 c 0x87
 756 1131 809 1128 871 1122 c 0x49
 881 1122 886 1121 892 1120 c 2
 913 1117 l 1
 1129 1117 l 1x51
 1129 347 l 2
 1129 230 1148 114 1185 0 c 1
 929 0 l 1x45
865 492 m 1
 865 882 l 1
 825 889 778 895 742 895 c 0
 655 895 573 853 515 790 c 1
 515 791 l 1
 457 718 422 614 422 489 c 0
 422 398 439 331 470 286 c 1
 469 287 l 1
 498 248 531 229 563 229 c 0
 605 229 653 251 709 298 c 0
 767 346 817 410 865 492 c 1
EndSplineSet
EndChar

StartChar: b
Encoding: 98 98 67
Width: 1229
GlyphClass: 2
Flags: MW
HStem: -14 21G<607 685> -14 236<607 647 586 685> -5 21G<472 472> 0 21G<217 434 217 217> 1125 20G<786.5 871.5> 1553 20G<217 481 481 481>
VStem: 109 264 816 279
LayerCount: 2
Fore
SplineSet
481 1573 m 1x1e
 481 979 l 1
 517 1018 556 1050 598 1073 c 1
 597 1073 l 1
 676 1122 751 1145 822 1145 c 0
 921 1145 1009 1103 1088 1019 c 0
 1164 937 1203 814 1203 651 c 0
 1203 527 1178 414 1129 313 c 0
 1081 214 1016 134 932 75 c 0
 849 15 746 -14 624 -14 c 0x8f
 590 -14 538 -11 472 -5 c 2x2e
 450 -2 l 2
 444 -1 437 0 434 0 c 2
 217 0 l 1
 217 1573 l 1
 481 1573 l 1x1e
481 625 m 1
 481 235 l 1
 520 228 568 222 604 222 c 0x4e
 690 222 769 264 830 327 c 1
 829 326 l 1
 889 398 924 503 924 628 c 0
 924 719 907 788 875 830 c 0
 846 868 815 888 781 888 c 0
 742 888 686 861 636 819 c 1
 637 819 l 1
 579 770 528 708 481 625 c 1
EndSplineSet
EndChar

StartChar: c
Encoding: 99 99 68
Width: 1229
GlyphClass: 2
Flags: MW
HStem: -28 21G<832 886> -28 250<832 864.5 797 886> 910 235<811 877 745 883> 1125 20G<745 877>
VStem: 130 279 130 946
LayerCount: 2
Fore
SplineSet
1205 305 m 1x94
 1205 44 l 1
 1064 -5 940 -28 832 -28 c 0
 500 -30 255 224 259 558 c 0
 259 725 314 866 424 977 c 0
 534 1089 667 1145 823 1145 c 0
 931 1145 1059 1121 1205 1071 c 1
 1205 803 l 1
 1049 873 928 910 838 910 c 0
 784 910 733 896 685 868 c 0
 638 844 603 802 578 746 c 0
 550 688 538 626 538 565 c 0
 538 483 567 399 615 326 c 1
 663 261 745 222 849 222 c 0
 880 222 917 225 952 230 c 0
 988 234 1076 261 1205 305 c 1x94
EndSplineSet
EndChar

StartChar: d
Encoding: 100 100 69
Width: 1229
GlyphClass: 2
Flags: MW
HStem: -28 21G<493 577> 0 21G<885 885 885 1149> 895 236<719.5 757 681 781> 1102 20G<885 885> 1111 20G<681 757> 1553 20G<885 1149 1149 1149>
VStem: 82 279 804 264
LayerCount: 2
Fore
SplineSet
885 0 m 1x4d
 885 141 l 1
 849 104 805 66 767 44 c 0
 689 -4 611 -28 543 -28 c 0
 443 -28 355 13 277 98 c 0
 200 181 163 304 163 466 c 0
 163 589 189 705 236 803 c 0
 283 896 354 985 432 1041 c 0
 516 1100 622 1131 740 1131 c 0x8f
 774 1131 822 1128 885 1122 c 1x55
 885 1573 l 1
 1149 1573 l 1
 1149 0 l 1
 885 0 l 1x4d
885 492 m 1
 885 882 l 1
 846 889 799 895 763 895 c 0x65
 676 895 595 853 534 789 c 1
 535 791 l 1
 477 718 442 614 442 489 c 0
 442 396 459 329 490 286 c 1
 490 287 l 1
 518 248 551 229 583 229 c 0
 626 229 673 251 729 298 c 0
 788 346 838 410 885 492 c 1
EndSplineSet
EndChar

StartChar: e
Encoding: 101 101 70
Width: 1229
GlyphClass: 2
Flags: MW
HStem: -29 21G<627.5 793> -29 236<725.5 793> 484 221<495 897 897 927 495 1177 474 897> 910 235<676.5 747.5> 1125 20G<676.5 794.5>
VStem: 98 982
LayerCount: 2
Fore
SplineSet
1162 351 m 1xac
 1162 84 l 1
 1002 9 857 -29 729 -29 c 0
 526 -29 362 75 264 261 c 0
 219 352 195 452 195 556 c 0
 195 656 218 753 261 847 c 0
 305 938 374 1014 453 1066 c 0
 534 1118 626 1145 727 1145 c 0
 862 1145 972 1094 1055 998 c 0
 1133 903 1177 754 1177 568 c 2
 1177 484 l 1
 474 484 l 1
 480 439 493 394 511 357 c 1
 510 358 l 1
 536 310 572 270 611 245 c 0
 651 221 700 207 751 207 c 0x6c
 852 207 989 255 1162 351 c 1xac
898 682 m 2
 898 677 l 1
 927 705 l 1
 897 705 l 1
 898 698 898 690 898 682 c 2
495 705 m 1
 897 705 l 1
 894 767 878 816 848 852 c 0
 817 891 775 910 720 910 c 0xb4
 621 910 538 833 495 705 c 1
EndSplineSet
EndChar

StartChar: f
Encoding: 102 102 71
Width: 1229
GlyphClass: 2
Flags: MW
HStem: 0 21G<493 757 493 493> 796 236<265 493 265 493 757 1163> 1365 236<943.5 1019> 1548 20G<1269 1269>
VStem: 361 264
LayerCount: 2
Fore
SplineSet
757 0 m 1xd8
 493 0 l 1
 493 796 l 1
 265 796 l 1
 265 1032 l 1
 493 1032 l 1
 493 1033 l 2
 493 1173 510 1278 543 1351 c 0
 579 1425 631 1485 701 1531 c 0
 773 1577 866 1601 980 1601 c 0xe8
 1063 1601 1160 1590 1269 1568 c 1xd8
 1269 1302 l 1
 1145 1343 1051 1365 987 1365 c 0xe8
 900 1365 826 1326 786 1259 c 0
 767 1220 757 1149 757 1051 c 2
 757 1032 l 1
 1163 1032 l 1
 1163 796 l 1
 757 796 l 1
 757 0 l 1xd8
EndSplineSet
EndChar

StartChar: g
Encoding: 103 103 72
Width: 1229
GlyphClass: 2
Flags: MW
HStem: -426 21G<524.5 655.5> -426 235<567.5 642 567.5 655.5> -28 21G<493 577> 895 236<719.5 758 681 781> 1097 20G<932 1149 1149 1149> 1102 20G<892 892> 1111 20G<681 758>
VStem: 82 279 804 264
LayerCount: 2
Fore
SplineSet
885 132 m 2xa280
 885 141 l 1
 849 104 805 66 767 44 c 0
 689 -4 611 -28 543 -28 c 0
 443 -28 355 13 277 98 c 0
 200 181 163 304 163 466 c 0
 163 589 189 705 236 803 c 0
 283 896 354 985 432 1041 c 0
 516 1100 622 1131 740 1131 c 0xa380
 776 1131 828 1128 892 1122 c 2xa480
 914 1119 l 2
 921 1118 929 1117 932 1117 c 2
 1149 1117 l 1
 1149 346 l 2
 1149 179 1147 68 1142 26 c 0
 1138 -12 1130 -56 1118 -98 c 0
 1090 -197 1026 -282 929 -341 c 0
 834 -398 721 -426 590 -426 c 0
 459 -426 317 -388 167 -314 c 1
 167 -25 l 1
 256 -84 344 -131 407 -155 c 0
 472 -177 538 -191 597 -191 c 0
 687 -191 773 -161 823 -109 c 1
 823 -110 l 1x6880
 846 -84 863 -54 870 -21 c 0
 879 15 885 65 885 132 c 2xa280
885 492 m 1
 885 882 l 1
 846 889 799 895 763 895 c 0xb080
 676 895 595 853 534 789 c 1
 535 791 l 1
 477 718 442 614 442 489 c 0
 442 396 459 329 490 286 c 1
 490 287 l 1
 518 248 551 229 583 229 c 0
 626 229 673 251 729 298 c 0
 788 346 838 410 885 492 c 1
EndSplineSet
EndChar

StartChar: h
Encoding: 104 104 73
Width: 1229
GlyphClass: 2
Flags: MW
HStem: 0 21G<241 505 241 241 923 923 923 1187> 1125 20G<802.5 875> 1553 20G<241 505 505 505>
VStem: 121 264 803 264
LayerCount: 2
Fore
SplineSet
505 0 m 1
 241 0 l 1
 241 1573 l 1
 505 1573 l 1
 505 984 l 1
 537 1017 573 1048 610 1071 c 0
 686 1121 763 1145 842 1145 c 0
 908 1145 971 1129 1025 1093 c 1
 1025 1094 l 1
 1081 1060 1120 1017 1143 967 c 0
 1160 930 1173 890 1179 849 c 1
 1179 850 l 1
 1185 814 1187 734 1187 619 c 2
 1187 0 l 1
 923 0 l 1
 923 640 l 2
 923 733 918 793 911 821 c 1
 911 820 l 1
 904 842 892 860 874 874 c 0
 856 888 839 895 821 895 c 0
 772 895 717 870 657 821 c 0
 596 771 546 708 505 633 c 1
 505 0 l 1
EndSplineSet
EndChar

StartChar: i
Encoding: 105 105 74
Width: 1229
GlyphClass: 2
Flags: MW
HStem: 0 235<789 1075 789 1075> 882 235<241 525 241 789>
VStem: 405 264
LayerCount: 2
Fore
SplineSet
1075 0 m 1
 525 0 l 1
 525 882 l 1
 241 882 l 1
 241 1117 l 1
 789 1117 l 1
 789 235 l 1
 1075 235 l 1
 1075 0 l 1
497 1440 m 0
 497 1493 517 1535 555 1563 c 0
 588 1588 625 1601 657 1601 c 0
 691 1601 727 1588 760 1563 c 0
 798 1535 818 1494 818 1440 c 0
 818 1386 798 1346 760 1317 c 0
 726 1293 690 1279 657 1279 c 0
 623 1279 589 1291 554 1318 c 1
 555 1317 l 1
 517 1346 497 1386 497 1440 c 0
EndSplineSet
EndChar

StartChar: j
Encoding: 106 106 75
Width: 1229
GlyphClass: 2
Flags: MW
HStem: -427 21G<510 603> -427 236<526 602.5 526 603> 882 235<344 779 344 1043>
VStem: 646 264
LayerCount: 2
Fore
SplineSet
267 -393 m 1xb0
 267 -131 l 1
 400 -171 497 -191 555 -191 c 0x70
 650 -191 715 -162 750 -87 c 0
 770 -47 779 29 779 139 c 2
 779 882 l 1
 344 882 l 1
 344 1117 l 1
 1043 1117 l 1
 1043 171 l 2
 1043 -10 1020 -141 976 -214 c 0
 930 -288 871 -346 808 -379 c 0
 744 -410 658 -427 548 -427 c 0
 472 -427 378 -416 267 -393 c 1xb0
751 1440 m 0
 751 1494 771 1535 808 1563 c 0
 842 1589 876 1601 911 1601 c 0
 944 1601 978 1588 1013 1563 c 0
 1050 1534 1071 1492 1071 1440 c 0
 1071 1387 1051 1346 1013 1317 c 0
 979 1292 945 1279 911 1279 c 0
 878 1279 842 1293 808 1317 c 0
 771 1346 751 1387 751 1440 c 0
EndSplineSet
EndChar

StartChar: k
Encoding: 107 107 76
Width: 1229
GlyphClass: 2
Flags: MW
HStem: 0 21G<341 605 341 341 1035 1035 1035 1397> 1097 20G<1030 1394 1394 1394> 1553 20G<341 605 605 605>
VStem: 171 264
LayerCount: 2
Fore
SplineSet
605 0 m 1
 341 0 l 1
 341 1573 l 1
 605 1573 l 1
 605 707 l 1
 724 822 l 1
 1030 1117 l 1
 1394 1117 l 1
 852 595 l 1
 1397 0 l 1
 1035 0 l 1
 605 475 l 1
 605 0 l 1
EndSplineSet
EndChar

StartChar: l
Encoding: 108 108 77
Width: 1229
GlyphClass: 2
Flags: MW
HStem: 0 235<743 1063 743 1063> 1336 237<173 480 173 743>
VStem: 394 263
LayerCount: 2
Fore
SplineSet
1063 0 m 1
 480 0 l 1
 480 1336 l 1
 173 1336 l 1
 173 1573 l 1
 743 1573 l 1
 743 235 l 1
 1063 235 l 1
 1063 0 l 1
EndSplineSet
EndChar

StartChar: m
Encoding: 109 109 78
Width: 1229
GlyphClass: 2
Flags: MW
HStem: 0 21G<87 330 87 87 513 513 513 749 932 932 932 1175> 1097 20G<87 330 330 330> 1125 20G<511 585.5 944 998>
VStem: 44 243 470 236 889 243
CounterMasks: 1 1c
LayerCount: 2
Fore
SplineSet
330 0 m 1
 87 0 l 1
 87 1117 l 1
 330 1117 l 1
 330 1015 l 1
 348 1041 364 1060 381 1076 c 0
 431 1122 484 1145 538 1145 c 0
 633 1145 704 1091 733 992 c 1
 765 1037 801 1074 836 1101 c 0
 873 1129 919 1145 969 1145 c 0
 1027 1145 1077 1122 1117 1072 c 0
 1153 1026 1175 938 1175 820 c 2
 1175 0 l 1
 932 0 l 1
 932 746 l 2
 932 799 931 834 927 856 c 0
 925 866 922 874 919 879 c 2
 916 882 l 1
 901 882 877 861 851 827 c 0
 819 782 782 705 749 608 c 1
 749 0 l 1
 513 0 l 1
 513 745 l 2
 513 822 509 864 503 869 c 0
 494 878 488 882 485 882 c 0
 472 882 449 859 424 821 c 1
 424 822 l 1
 391 773 361 709 330 629 c 1
 330 0 l 1
EndSplineSet
EndChar

StartChar: n
Encoding: 110 110 79
Width: 1229
GlyphClass: 2
Flags: MW
HStem: 0 21G<241 505 241 241 923 923 923 1187> 1097 20G<241 505 505 505> 1125 20G<802.5 877>
VStem: 121 264 803 264
LayerCount: 2
Fore
SplineSet
505 0 m 1
 241 0 l 1
 241 1117 l 1
 505 1117 l 1
 505 984 l 1
 537 1017 573 1048 610 1071 c 0
 686 1121 763 1145 842 1145 c 0
 912 1145 975 1127 1032 1089 c 0
 1090 1052 1132 1000 1155 940 c 0
 1176 884 1187 774 1187 619 c 2
 1187 0 l 1
 923 0 l 1
 923 640 l 2
 923 733 918 793 911 821 c 1
 911 820 l 1
 904 842 892 860 874 874 c 0
 856 888 839 895 821 895 c 0
 772 895 717 870 657 821 c 0
 596 771 546 708 505 633 c 1
 505 0 l 1
EndSplineSet
EndChar

StartChar: o
Encoding: 111 111 80
Width: 1229
GlyphClass: 2
Flags: MW
HStem: -28 21G<565 726.5> -28 235<608.5 684 608.5 726.5> 910 235<608.5 684> 1125 20G<565.5 726.5>
VStem: 58 279 58 1060 840 278
LayerCount: 2
Fore
SplineSet
646 -28 m 0x94
 484 -28 356 28 258 140 c 0
 163 251 115 391 115 559 c 0
 115 727 163 867 258 977 c 0
 356 1089 485 1145 646 1145 c 0
 807 1145 935 1089 1033 977 c 0
 1128 867 1175 727 1175 559 c 0x9a
 1175 391 1128 251 1033 140 c 0
 935 28 807 -28 646 -28 c 0x94
646 207 m 0x6a
 722 207 781 236 826 295 c 0
 873 358 897 446 897 559 c 0
 897 671 873 759 826 822 c 0
 781 881 722 910 646 910 c 0
 571 910 510 881 465 822 c 0
 418 759 394 671 394 559 c 0
 394 446 418 358 465 295 c 0
 510 236 571 207 646 207 c 0x6a
EndSplineSet
EndChar

StartChar: p
Encoding: 112 112 81
Width: 1229
GlyphClass: 2
Flags: MW
HStem: -398 21G<217 481 217 217> -14 21G<607.5 685> -14 236<607.5 647 586 685> -6 21G<481 481> 1097 20G<217 481 481 481> 1125 20G<786.5 871.5>
VStem: 109 264 816 279
LayerCount: 2
Fore
SplineSet
481 1117 m 1x96
 481 979 l 1
 517 1018 556 1050 598 1073 c 1
 597 1073 l 1
 676 1122 751 1145 822 1145 c 0
 921 1145 1009 1103 1088 1019 c 0
 1164 937 1203 814 1203 651 c 0
 1203 527 1178 414 1129 313 c 0
 1081 214 1016 134 932 75 c 0
 849 15 746 -14 624 -14 c 0xc7
 591 -14 541 -11 481 -6 c 1
 481 -398 l 1
 217 -398 l 1
 217 1117 l 1
 481 1117 l 1x96
481 625 m 1
 481 235 l 1
 520 228 568 222 604 222 c 0
 690 222 769 264 830 327 c 1
 829 326 l 1
 889 398 924 503 924 628 c 0
 924 719 907 788 875 830 c 0
 846 868 815 888 781 888 c 0
 742 888 686 861 636 819 c 1
 637 819 l 1
 579 770 528 708 481 625 c 1
EndSplineSet
EndChar

StartChar: q
Encoding: 113 113 82
Width: 1229
GlyphClass: 2
Flags: MW
HStem: -398 21G<885 885 885 1149> -28 21G<493 577> 895 236<719.5 758 681 781> 1097 20G<932 1149 1149 1149> 1102 20G<892 892> 1111 20G<681 758>
VStem: 82 279 804 264
LayerCount: 2
Fore
SplineSet
885 -398 m 1xc5
 885 141 l 1
 849 104 805 66 767 44 c 0
 689 -4 611 -28 543 -28 c 0
 443 -28 355 13 277 98 c 0
 200 181 163 304 163 466 c 0
 163 589 189 705 236 803 c 0
 283 896 354 985 432 1041 c 0
 516 1100 622 1131 740 1131 c 0xc7
 776 1131 828 1128 892 1122 c 2xc9
 914 1119 l 2
 921 1118 929 1117 932 1117 c 2
 1149 1117 l 1xd1
 1149 -398 l 1
 885 -398 l 1xc5
885 492 m 1
 885 882 l 1
 846 889 799 895 763 895 c 0xe1
 676 895 595 853 534 789 c 1
 535 791 l 1
 477 718 442 614 442 489 c 0
 442 396 459 329 490 286 c 1
 490 287 l 1
 518 248 551 229 583 229 c 0
 626 229 673 251 729 298 c 0
 788 346 838 410 885 492 c 1
EndSplineSet
EndChar

StartChar: r
Encoding: 114 114 83
Width: 1229
GlyphClass: 2
Flags: MW
HStem: 0 21G<419 683 419 419> 1097 20G<419 683 683 683> 1125 20G<980 1083.5>
VStem: 210 264 814 257
LayerCount: 2
Fore
SplineSet
683 0 m 1
 419 0 l 1
 419 1117 l 1
 683 1117 l 1
 683 982 l 1
 785 1086 911 1145 1049 1145 c 0
 1118 1145 1195 1132 1280 1106 c 1
 1280 654 l 1
 1023 654 l 1
 1023 894 l 1
 1014 895 1007 895 1002 895 c 0
 894 895 788 804 683 629 c 1
 683 0 l 1
EndSplineSet
EndChar

StartChar: s
Encoding: 115 115 84
Width: 1229
GlyphClass: 2
Flags: MW
HStem: -28 21G<646.5 795> -28 235<696.5 760.5 696.5 795> 910 235<716 793> 1125 20G<675.5 809.5>
VStem: 133 926
LayerCount: 2
Fore
SplineSet
265 69 m 1x98
 265 368 l 1
 378 293 469 249 540 232 c 1
 539 232 l 1
 609 216 670 207 723 207 c 0
 798 207 852 219 881 239 c 0
 906 258 919 282 919 307 c 0
 919 322 914 335 905 345 c 1
 905 344 l 1
 891 359 850 381 790 405 c 0
 772 413 750 422 732 429 c 2
 614 475 l 2
 487 525 391 581 354 627 c 0
 314 678 294 738 294 810 c 0
 294 907 331 989 408 1052 c 0
 482 1114 597 1145 754 1145 c 0
 865 1145 985 1126 1112 1084 c 1
 1112 828 l 1
 961 884 839 910 747 910 c 0
 685 910 636 899 603 878 c 0
 577 863 564 845 564 824 c 0x68
 564 804 575 788 596 775 c 0
 626 756 683 731 757 704 c 2
 837 675 l 1
 836 675 l 1
 872 661 l 1
 986 621 1065 575 1113 525 c 1
 1112 525 l 1
 1165 470 1191 401 1191 323 c 0
 1191 219 1151 135 1071 68 c 0
 995 4 875 -28 715 -28 c 0
 578 -28 429 4 265 69 c 1x98
EndSplineSet
EndChar

StartChar: t
Encoding: 116 116 85
Width: 1229
GlyphClass: 2
Flags: MW
HStem: -28 21G<770.5 829> -28 235<808.5 829> 796 236<131 386 131 386 650 1106>
VStem: 321 264
LayerCount: 2
Fore
SplineSet
1134 319 m 1xb0
 1134 56 l 1
 1034 14 961 -12 922 -18 c 0
 886 -25 849 -28 809 -28 c 0
 732 -28 660 -12 593 17 c 0
 524 49 473 97 438 158 c 0
 403 219 386 310 386 431 c 2
 386 796 l 1
 131 796 l 1
 131 1032 l 1
 386 1032 l 1
 386 1444 l 1
 650 1444 l 1
 650 1032 l 1
 1106 1032 l 1
 1106 796 l 1
 650 796 l 1
 650 434 l 2
 650 362 660 309 674 281 c 1
 673 282 l 1
 687 258 708 239 732 227 c 1
 730 227 l 1
 756 215 790 207 827 207 c 0x70
 901 207 1004 244 1134 319 c 1xb0
EndSplineSet
EndChar

StartChar: u
Encoding: 117 117 86
Width: 1229
GlyphClass: 2
Flags: MW
HStem: -28 21G<527 620.5> 0 21G<900 1164 900 900> 1097 20G<217 481 481 481 900 1164 1164 1164>
VStem: 109 264 792 264
LayerCount: 2
Fore
SplineSet
900 1117 m 1
 1164 1117 l 1
 1164 0 l 1
 900 0 l 1
 900 135 l 1
 798 25 679 -28 562 -28 c 0
 492 -28 429 -11 371 27 c 0
 314 65 273 114 249 177 c 0
 229 233 217 342 217 498 c 2
 217 1117 l 1
 481 1117 l 1
 481 477 l 2
 481 383 486 323 493 295 c 1
 493 296 l 1
 500 274 512 256 529 242 c 1
 529 243 l 1
 547 229 565 222 584 222 c 0
 630 222 684 248 746 296 c 1
 746 295 l 1
 807 346 859 409 900 484 c 1
 900 1117 l 1
EndSplineSet
EndChar

StartChar: v
Encoding: 118 118 87
Width: 1229
GlyphClass: 2
Flags: MW
HStem: 0 21G<454 690 454 454> 1097 20G<-30 259 259 259 907 1178 1178 1178>
VStem: -15 1208
LayerCount: 2
Fore
SplineSet
690 0 m 1
 454 0 l 1
 -30 1117 l 1
 259 1117 l 1
 579 377 l 1
 682 608 806 888 907 1117 c 1
 1178 1117 l 1
 690 0 l 1
EndSplineSet
EndChar

StartChar: w
Encoding: 119 119 88
Width: 1229
GlyphClass: 2
Flags: MW
HStem: 0 21G<158 400 158 158 760 760 760 995> 1097 20G<-24 230 230 230 466 690 690 690 949 1176 1176 1176>
VStem: -12 1200
LayerCount: 2
Fore
SplineSet
400 0 m 1
 158 0 l 1
 -24 1117 l 1
 230 1117 l 1
 318 556 l 1
 466 1117 l 1
 690 1117 l 1
 858 545 l 1
 949 1117 l 1
 1176 1117 l 1
 995 0 l 1
 760 0 l 1
 566 646 l 1
 400 0 l 1
EndSplineSet
EndChar

StartChar: x
Encoding: 120 120 89
Width: 1229
GlyphClass: 2
Flags: MW
HStem: 0 21G<-34 280 -34 -34 848 848 848 1185> 1097 20G<-9 328 328 328 807 1117 1117 1117>
VStem: -17 1219
LayerCount: 2
Fore
SplineSet
560 378 m 1
 280 0 l 1
 -34 0 l 1
 403 583 l 1
 192 856 l 1
 -9 1117 l 1
 328 1117 l 1
 570 805 l 1
 648 908 730 1015 807 1117 c 1
 1117 1117 l 1
 727 600 l 1
 871 413 1043 185 1185 0 c 1
 848 0 l 1
 560 378 l 1
EndSplineSet
EndChar

StartChar: y
Encoding: 121 121 90
Width: 1229
GlyphClass: 2
Flags: MW
HStem: -427 21G<163 256> -427 235<167.5 234 167.5 256> -404 21G<5 5> 1097 20G<-6 286 286 286 916 1190 1190 1190>
VStem: -3 1196
LayerCount: 2
Fore
SplineSet
481 65 m 1x38
 491 85 l 1
 335 408 147 796 -6 1117 c 1
 286 1117 l 1
 628 418 l 1
 675 532 721 641 767 754 c 0
 813 867 870 1005 916 1117 c 1
 1190 1117 l 1
 766 101 l 2
 686 -88 590 -245 515 -317 c 1
 430 -388 321 -427 191 -427 c 0x98
 135 -427 73 -419 5 -404 c 1x38
 5 -153 l 1
 88 -178 148 -192 187 -192 c 0x58
 281 -192 351 -160 411 -67 c 0
 444 -17 467 28 481 65 c 1x38
EndSplineSet
EndChar

StartChar: z
Encoding: 122 122 91
Width: 1229
GlyphClass: 2
Flags: MW
HStem: 0 251<573 1168 573 1168> 882 235<215 772 215 1147>
VStem: 101 967
LayerCount: 2
Fore
SplineSet
1168 0 m 1
 201 0 l 1
 201 221 l 1
 772 882 l 1
 215 882 l 1
 215 1117 l 1
 1147 1117 l 1
 1147 910 l 1
 573 251 l 1
 1168 251 l 1
 1168 0 l 1
EndSplineSet
EndChar

StartChar: braceleft
Encoding: 123 123 92
Width: 1229
GlyphClass: 2
Flags: MW
HStem: -349 240<988 1272 1078 1272 1078 1272> 525 240<339 471 339 471> 1398 242<1076 1078 1078 1272>
VStem: 170 933
LayerCount: 2
Fore
SplineSet
866 702 m 1
 866 701 l 1
 848 683 824 664 796 645 c 1
 823 626 847 606 866 587 c 0
 894 555 917 519 934 481 c 0
 949 445 959 401 959 357 c 0
 959 319 952 267 940 208 c 2
 917 101 l 2
 906 49 898 4 898 -19 c 0
 898 -43 908 -64 926 -81 c 0
 946 -100 997 -109 1078 -109 c 2
 1272 -109 l 1
 1272 -349 l 1
 1076 -349 l 2
 900 -349 772 -310 711 -250 c 1
 656 -187 624 -111 624 -32 c 0
 624 9 629 51 638 96 c 2
 656 171 l 1
 656 170 l 1
 664 215 l 1
 671 252 l 1
 682 302 l 2
 687 325 688 345 688 361 c 0
 688 405 674 443 642 477 c 0
 612 508 555 525 471 525 c 2
 339 525 l 1
 339 765 l 1
 471 765 l 2
 555 765 612 782 643 813 c 0
 674 843 688 882 688 931 c 0
 688 950 687 970 684 986 c 1
 684 985 l 1
 671 1036 l 1
 656 1119 l 1
 657 1117 l 1
 638 1192 l 2
 629 1238 624 1281 624 1322 c 0
 624 1400 656 1476 711 1539 c 1
 772 1599 900 1640 1076 1640 c 2
 1272 1640 l 1
 1272 1398 l 1
 1078 1398 l 2
 998 1398 947 1389 927 1370 c 0
 909 1353 898 1332 898 1307 c 0
 898 1285 906 1240 917 1188 c 2
 940 1081 l 2
 952 1022 959 970 959 932 c 0
 959 838 929 770 866 702 c 1
EndSplineSet
EndChar

StartChar: bar
Encoding: 124 124 93
Width: 1229
GlyphClass: 2
Flags: W
LayerCount: 2
Fore
SplineSet
763.735351562 1890 m 1
 763.735351562 -630 l 1
 463.313476562 -630 l 1
 463.313476562 1890 l 1
 763.735351562 1890 l 1
EndSplineSet
EndChar

StartChar: braceright
Encoding: 125 125 94
Width: 1229
GlyphClass: 2
Flags: MW
HStem: -349 240<175 368 368 370 175 368> 525 240<934.5 1107 977 1107> 1398 242<175 368 175 370>
VStem: 88 932
LayerCount: 2
Fore
SplineSet
581 586 m 0
 597 606 623 627 650 645 c 1
 575 697 536 752 512 806 c 0
 498 841 488 887 488 932 c 0
 488 969 496 1027 508 1081 c 2
 531 1188 l 2
 541 1240 549 1285 549 1308 c 0
 549 1331 538 1352 519 1370 c 0
 496 1387 445 1398 368 1398 c 2
 175 1398 l 1
 175 1640 l 1
 370 1640 l 2
 556 1640 677 1606 737 1539 c 0
 794 1475 824 1402 824 1322 c 0
 824 1283 819 1237 807 1191 c 2
 792 1119 l 1
 783 1075 l 2
 780 1062 777 1049 775 1037 c 2
 764 987 l 2
 760 968 758 946 758 928 c 0
 758 883 773 844 803 813 c 1
 803 814 l 1
 833 782 891 765 977 765 c 2
 1107 765 l 1
 1107 525 l 1
 977 525 l 2
 892 525 835 508 803 477 c 0
 773 446 758 407 758 358 c 0
 758 339 760 321 763 304 c 1
 763 305 l 1
 774 253 l 1
 792 170 l 1
 791 171 l 1
 796 147 802 122 807 98 c 0
 819 51 824 6 824 -33 c 0
 824 -113 791 -191 737 -251 c 0
 676 -315 554 -349 370 -349 c 2
 175 -349 l 1
 175 -109 l 1
 368 -109 l 2
 445 -109 496 -98 519 -81 c 0
 538 -63 549 -40 549 -18 c 0
 549 4 541 49 531 101 c 2
 508 208 l 2
 495 267 488 319 488 357 c 0
 488 451 519 518 581 586 c 0
EndSplineSet
EndChar

StartChar: asciitilde
Encoding: 126 126 95
Width: 1229
GlyphClass: 2
Flags: W
LayerCount: 2
Fore
SplineSet
415.51953125 903 m 0
 616.451171875 903 698.383789062 693 821.284179688 693 c 0
 899.315429688 693 948.0859375 751 1003.68359375 858 c 1
 1185.10742188 774 l 1
 1098.296875 579 995.879882812 442 813.48046875 442 c 0
 616.451171875 442 530.616210938 652 407.715820312 652 c 0
 327.733398438 652 278.963867188 589 225.31640625 488 c 1
 43.892578125 571 l 1
 127.77734375 746 231.168945312 903 415.51953125 903 c 0
EndSplineSet
EndChar

StartChar: exclamdown
Encoding: 161 161 97
Width: 1229
GlyphClass: 2
Flags: MW
HStem: -423 21G<849 1180 849 849>
VStem: 413 365
LayerCount: 2
Fore
SplineSet
896 713 m 1
 1134 713 l 1
 1180 -423 l 1
 849 -423 l 1
 896 713 l 1
1008 1173 m 0
 1055 1173 1097 1155 1134 1119 c 0
 1171 1082 1190 1040 1190 991 c 0
 1190 941 1171 898 1134 862 c 1
 1134 863 l 1
 1097 826 1055 808 1008 808 c 0
 960 808 916 826 880 863 c 0
 843 899 825 942 825 991 c 0
 825 1039 843 1081 880 1118 c 1
 879 1118 l 1
 915 1155 959 1173 1008 1173 c 0
EndSplineSet
EndChar

StartChar: cent
Encoding: 162 162 98
Width: 1229
GlyphClass: 2
Flags: MW
HStem: -145 1842<620 861 620 861>
VStem: 81 285 540 241
LayerCount: 2
Fore
SplineSet
861 -145 m 1
 620 -145 l 1
 620 185 l 1
 436 219 305 328 225 482 c 0
 182 566 161 661 161 766 c 0
 161 978 247 1144 388 1254 c 0
 453 1302 527 1337 620 1358 c 1
 620 1697 l 1
 861 1697 l 1
 861 1360 l 1
 953 1348 1046 1328 1130 1302 c 1
 1130 1018 l 1
 1036 1068 949 1108 861 1123 c 1
 861 417 l 1
 885 421 902 426 916 429 c 0
 942 437 978 451 1030 476 c 2
 1130 521 l 1
 1130 246 l 1
 1026 211 935 190 861 182 c 1
 861 -145 l 1
620 437 m 1
 620 1099 l 1
 568 1073 528 1036 501 991 c 1
 501 992 l 1
 466 927 446 850 446 765 c 0
 446 694 462 623 497 552 c 0
 521 503 562 463 620 437 c 1
EndSplineSet
EndChar

StartChar: sterling
Encoding: 163 163 99
Width: 1229
GlyphClass: 2
Flags: MW
HStem: 0 256<610 1212 610 1212> 721 241<207 418 207 418 687 994> 1355 240<815.5 876> 1575 20G<815.5 903.5>
VStem: 315 269
LayerCount: 2
Fore
SplineSet
1212 0 m 1xd8
 207 0 l 1
 207 246 l 1
 281 263 328 282 349 300 c 1
 348 300 l 1
 371 322 387 352 399 393 c 1
 399 392 l 1
 410 438 418 498 418 571 c 2
 418 721 l 1
 207 721 l 1
 207 962 l 1
 418 962 l 1
 418 979 l 2
 418 1151 436 1276 471 1355 c 0
 507 1436 559 1496 626 1536 c 0
 691 1575 770 1595 861 1595 c 0
 946 1595 1044 1572 1154 1524 c 1
 1154 1245 l 1
 1016 1318 912 1355 840 1355 c 0xe8
 787 1355 735 1317 709 1244 c 1
 709 1246 l 1
 697 1200 687 1109 687 988 c 2
 687 962 l 1
 994 962 l 1
 994 721 l 1
 687 721 l 1
 687 659 l 2
 687 540 682 448 665 380 c 0
 655 336 639 297 610 256 c 1
 1212 256 l 1
 1212 0 l 1xd8
EndSplineSet
EndChar

StartChar: currency
Encoding: 164 164 100
Width: 1229
GlyphClass: 2
Flags: MW
HStem: 143 1268<215 215 215 1009> 291 240<592.5 629.5>
VStem: 18 1154 111 243 836 242
LayerCount: 2
Fore
SplineSet
830 1207 m 1xa0
 1010 1410 l 1
 1189 1254 l 1
 1009 1047 l 1
 1044 994 1067 945 1079 908 c 0
 1089 867 1095 819 1095 774 c 0
 1095 728 1090 683 1079 637 c 0
 1068 600 1045 552 1009 498 c 1
 1065 433 1135 354 1189 293 c 1
 1009 143 l 1
 830 343 l 1
 782 319 747 306 714 299 c 0
 682 294 647 291 612 291 c 0
 573 291 539 294 508 299 c 0
 481 306 442 321 394 343 c 1x58
 215 143 l 1
 35 293 l 1
 215 498 l 1
 179 552 156 600 146 637 c 0
 133 683 128 728 128 774 c 0
 128 819 134 866 146 908 c 0
 156 944 180 995 214 1047 c 1
 35 1254 l 1
 215 1411 l 1x90
 394 1207 l 1
 439 1232 479 1248 511 1252 c 0
 543 1257 582 1260 612 1260 c 0
 643 1260 681 1256 713 1252 c 0
 746 1247 786 1232 830 1207 c 1xa0
612 531 m 0
 672 531 731 556 779 600 c 0
 824 645 853 706 853 770 c 0
 853 814 842 857 819 896 c 0
 798 937 768 966 730 987 c 0
 691 1008 650 1020 612 1020 c 0
 573 1020 534 1008 494 987 c 1
 495 987 l 1
 455 965 424 935 404 896 c 0
 382 858 371 815 371 770 c 0
 371 706 400 644 442 601 c 1
 493 557 552 531 612 531 c 0
EndSplineSet
EndChar

StartChar: yen
Encoding: 165 165 101
Width: 1229
GlyphClass: 2
Flags: MW
HStem: 0 21G<446 715 446 446> 233 226<140 446 140 446 715 1014> 546 226<140 404 140 446 140 404 748 1014> 1532 20G<-30 272 272 272 908 1189 1189 1189>
VStem: 461 269
LayerCount: 2
Fore
SplineSet
715 0 m 1
 446 0 l 1
 446 233 l 1
 140 233 l 1
 140 459 l 1
 446 459 l 1
 446 546 l 1
 140 546 l 1
 140 772 l 1
 404 772 l 1
 199 1140 l 1
 -30 1552 l 1
 272 1552 l 1
 589 998 l 1
 695 1182 l 2
 762 1300 842 1436 908 1552 c 1
 1189 1552 l 1
 748 772 l 1
 1014 772 l 1
 1014 546 l 1
 715 546 l 1
 715 459 l 1
 1014 459 l 1
 1014 233 l 1
 715 233 l 1
 715 0 l 1
EndSplineSet
EndChar

StartChar: brokenbar
Encoding: 166 166 102
Width: 1229
GlyphClass: 2
Flags: MW
HStem: -44 21G<943 1191 943 943> 1575 20G<943 1191 1191 1191>
VStem: 472 248
LayerCount: 2
Fore
SplineSet
1191 -44 m 1
 943 -44 l 1
 943 737 l 1
 1191 737 l 1
 1191 -44 l 1
1191 815 m 1
 943 815 l 1
 943 1595 l 1
 1191 1595 l 1
 1191 815 l 1
EndSplineSet
EndChar

StartChar: section
Encoding: 167 167 103
Width: 1229
GlyphClass: 2
Flags: MW
HStem: -349 240<644.5 712 644.5 719> 1355 240<747 763> 1575 20G<747 797>
VStem: 112 990
LayerCount: 2
Fore
SplineSet
223 -269 m 1xb0
 223 35 l 1
 333 -27 419 -64 487 -81 c 0
 556 -99 617 -109 672 -109 c 0
 752 -109 816 -91 858 -61 c 0
 894 -34 914 -4 914 24 c 0
 914 48 906 70 890 87 c 0
 867 112 817 145 741 188 c 1
 742 188 l 1
 718 200 694 213 671 226 c 0
 648 240 626 253 603 266 c 0
 475 337 385 406 329 474 c 0
 272 543 244 619 244 699 c 0
 244 799 281 892 357 975 c 1
 294 1038 259 1117 259 1207 c 0
 264 1412 426 1599 747 1595 c 0
 847 1595 969 1573 1111 1530 c 1
 1111 1249 l 1
 1028 1291 956 1320 898 1333 c 0
 839 1347 786 1355 740 1355 c 0
 666 1355 614 1342 585 1316 c 0xd0
 558 1292 543 1266 543 1239 c 0
 543 1210 559 1184 590 1158 c 0
 632 1125 670 1099 702 1080 c 2
 731 1063 l 2
 741 1057 750 1050 760 1046 c 2
 902 964 l 2
 1022 892 1114 817 1153 761 c 0
 1192 698 1213 631 1213 556 c 0
 1213 457 1174 362 1100 278 c 1
 1142 239 1166 200 1179 164 c 0
 1191 120 1199 80 1199 49 c 0
 1199 -20 1176 -88 1127 -154 c 1
 1127 -153 l 1
 1079 -220 1018 -270 939 -301 c 0
 863 -332 772 -349 666 -349 c 0
 523 -349 376 -322 223 -269 c 1xb0
779 479 m 2
 905 405 l 1
 940 441 958 480 958 522 c 0
 958 553 942 585 909 620 c 0
 872 660 829 696 782 721 c 2
 693 770 l 1
 556 851 l 1
 537 828 528 811 523 796 c 0
 516 777 513 758 513 738 c 0
 513 701 528 665 554 634 c 1
 552 635 l 1
 587 600 665 545 779 479 c 2
EndSplineSet
EndChar

StartChar: dieresis
Encoding: 168 168 104
Width: 1229
GlyphClass: 2
Flags: MW
HStem: 1209 328<595.5 639 595.5 640 1004 1046.5>
VStem: 227 736
LayerCount: 2
Fore
SplineSet
618 1209 m 0
 572 1209 535 1225 501 1256 c 0
 469 1288 453 1327 453 1373 c 0
 453 1421 469 1459 502 1489 c 0
 536 1521 573 1537 618 1537 c 0
 660 1537 699 1520 732 1489 c 0
 764 1459 781 1420 781 1373 c 0
 781 1326 765 1287 733 1256 c 0
 701 1225 662 1209 618 1209 c 0
1026 1209 m 0
 981 1209 943 1225 909 1256 c 0
 877 1288 860 1326 860 1373 c 0
 860 1421 877 1459 909 1489 c 0
 943 1521 982 1537 1026 1537 c 0
 1069 1537 1107 1522 1140 1489 c 1
 1139 1489 l 1
 1174 1458 1189 1420 1189 1373 c 0
 1189 1327 1173 1288 1139 1256 c 0
 1108 1227 1067 1209 1026 1209 c 0
EndSplineSet
EndChar

StartChar: copyright
Encoding: 169 169 105
Width: 1229
GlyphClass: 2
Flags: MW
HStem: -44 212<534 602.5 534 636> -44 277<630 636> 1318 277<568 648 500.5 766> 1384 211<533.5 603>
VStem: -27 212 1007 212
LayerCount: 2
Fore
SplineSet
569 -44 m 0x9c
 303 -44 134 97 25 352 c 0
 -27 478 -54 617 -54 776 c 0
 -54 928 -29 1064 18 1185 c 0
 68 1309 137 1409 226 1482 c 0
 318 1558 432 1595 569 1595 c 0
 834 1595 1005 1453 1113 1198 c 0
 1165 1073 1192 933 1192 776 c 0
 1192 626 1160 473 1112 352 c 0
 1061 228 988 128 901 61 c 1
 902 61 l 1
 813 -10 703 -44 569 -44 c 0x9c
569 168 m 0
 636 168 704 192 767 235 c 1
 766 234 l 1
 827 279 881 354 918 451 c 0
 960 555 980 661 980 776 c 0
 980 890 960 998 918 1101 c 0
 879 1202 828 1274 766 1318 c 1
 766 1317 l 1
 703 1361 637 1384 569 1384 c 0
 498 1384 432 1360 368 1314 c 0
 306 1269 255 1196 216 1096 c 0
 178 994 158 887 158 776 c 0
 158 660 178 552 220 448 c 0
 260 349 315 274 373 231 c 1
 372 232 l 1
 432 191 499 168 569 168 c 0
879 278 m 1x6c
 879 526 l 1
 769 481 693 459 649 459 c 0
 587 459 527 492 483 535 c 1
 441 588 413 674 413 773 c 0
 413 867 436 946 473 1003 c 1
 472 1001 l 1
 510 1051 562 1078 625 1078 c 0
 659 1078 769 1061 879 1026 c 1
 879 1277 l 1
 768 1305 680 1318 616 1318 c 0
 520 1318 439 1294 371 1245 c 0
 308 1200 256 1132 215 1047 c 0
 177 963 158 873 158 775 c 0
 157 478 361 229 630 233 c 0
 714 233 797 247 879 278 c 1x6c
EndSplineSet
EndChar

StartChar: ordfeminine
Encoding: 170 170 106
Width: 1229
GlyphClass: 2
Flags: MW
HStem: 1384 211<799.5 835 770.5 850> 1568 20G<980 1155 1155 1155>
VStem: 170 240 758 227
LayerCount: 2
Fore
SplineSet
992 852 m 1x50
 964 872 l 1
 957 894 950 918 944 942 c 1
 916 919 886 901 852 885 c 0
 784 853 721 838 658 838 c 0
 576 838 503 864 440 918 c 0
 372 972 339 1055 339 1165 c 0
 339 1332 427 1464 565 1539 c 0
 635 1576 720 1595 821 1595 c 0xb0
 849 1595 892 1593 945 1591 c 2
 980 1588 l 1
 1155 1588 l 1
 1155 1094 l 2
 1155 1068 1157 1036 1160 1009 c 0
 1166 982 1189 928 1230 852 c 1
 992 852 l 1x50
928 1198 m 1
 927 1378 l 1
 893 1382 864 1384 836 1384 c 0
 763 1384 700 1364 649 1326 c 0
 601 1290 579 1239 579 1175 c 0
 579 1135 591 1103 610 1085 c 0
 631 1067 659 1056 689 1056 c 0
 726 1056 769 1072 815 1099 c 1
 814 1098 l 1
 857 1125 896 1159 928 1198 c 1
EndSplineSet
EndChar

StartChar: guillemotleft
Encoding: 171 171 107
Width: 1229
GlyphClass: 2
Flags: MW
HStem: 39 1067<635 637 637 1079>
VStem: 116 1022
LayerCount: 2
Fore
SplineSet
1079 39 m 1
 675 480 l 1
 675 663 l 1
 1081 1106 l 1
 1252 939 l 1
 957 571 l 1
 1051 450 1161 311 1253 192 c 1
 1079 39 l 1
635 39 m 1
 231 480 l 1
 231 663 l 1
 637 1106 l 1
 808 940 l 1
 512 572 l 1
 562 507 619 437 668 373 c 2
 809 192 l 1
 635 39 l 1
EndSplineSet
EndChar

StartChar: logicalnot
Encoding: 172 172 108
Width: 1229
GlyphClass: 2
Flags: MW
HStem: 436 242<73 947 73 1188>
VStem: 911 241
LayerCount: 2
Fore
SplineSet
73 678 m 1
 1188 678 l 1
 1188 145 l 1
 947 145 l 1
 947 436 l 1
 73 436 l 1
 73 678 l 1
EndSplineSet
EndChar

StartChar: sfthyphen
Encoding: 173 173 109
Width: 1229
GlyphClass: 2
Flags: MW
HStem: 517 241<369 1192 369 1192>
VStem: 185 823
LayerCount: 2
Fore
SplineSet
1192 517 m 1
 369 517 l 1
 369 758 l 1
 1192 758 l 1
 1192 517 l 1
EndSplineSet
EndChar

StartChar: registered
Encoding: 174 174 110
Width: 1229
GlyphClass: 2
Flags: MW
HStem: -44 212<534 602.5 534 636> 1073 199<474 497 497 503 503 503 503 503> 1384 211<533.5 603>
VStem: -27 212 304 226 663 225 1007 212
LayerCount: 2
Fore
SplineSet
569 -44 m 0
 303 -44 134 97 25 352 c 0
 -27 478 -54 617 -54 776 c 0
 -54 928 -29 1064 18 1185 c 0
 68 1309 137 1409 226 1482 c 0
 318 1558 432 1595 569 1595 c 0
 834 1595 1005 1453 1113 1198 c 0
 1165 1073 1192 933 1192 776 c 0
 1192 626 1160 473 1112 352 c 0
 1061 228 988 128 901 61 c 1
 902 61 l 1
 813 -10 703 -44 569 -44 c 0
569 168 m 0
 636 168 704 192 767 235 c 1
 766 234 l 1
 827 279 881 354 918 451 c 0
 960 555 980 661 980 776 c 0
 980 890 960 998 918 1101 c 0
 879 1202 828 1274 766 1318 c 1
 766 1317 l 1
 703 1361 637 1384 569 1384 c 0
 498 1384 432 1360 368 1314 c 0
 306 1269 255 1196 216 1096 c 0
 178 994 158 887 158 776 c 0
 158 660 178 552 220 448 c 0
 260 349 315 274 373 231 c 1
 372 232 l 1
 432 191 499 168 569 168 c 0
503 674 m 1
 503 318 l 1
 277 318 l 1
 277 1272 l 1
 531 1272 l 2
 654 1272 741 1246 789 1196 c 1
 788 1196 l 1
 837 1145 861 1089 861 1025 c 0
 861 929 815 823 714 749 c 1
 831 538 l 2
 863 479 922 375 954 318 c 1
 687 318 l 1
 503 674 l 1
503 1073 m 1
 503 1101 l 1
 474 1073 l 1
 497 1073 l 1
 503 1073 l 1
613 1052 m 0
 597 1066 559 1072 503 1073 c 1
 503 873 l 1
 550 873 l 1
 606 909 636 951 636 1001 c 0
 636 1022 628 1039 613 1052 c 0
EndSplineSet
EndChar

StartChar: macron
Encoding: 175 175 111
Width: 1229
GlyphClass: 2
Flags: MW
HStem: 1209 212<571 1191 571 1191>
VStem: 286 620
LayerCount: 2
Fore
SplineSet
1191 1209 m 1
 571 1209 l 1
 571 1421 l 1
 1191 1421 l 1
 1191 1209 l 1
EndSplineSet
EndChar

StartChar: degree
Encoding: 176 176 112
Width: 1229
GlyphClass: 2
Flags: MW
HStem: 990 183<871 904 871 929.5> 1412 183<871 903.5> 1575 20G<847.5 929>
VStem: 293 182 715 183
LayerCount: 2
Fore
SplineSet
888 990 m 0xb8
 803 990 732 1021 672 1079 c 0
 613 1141 585 1211 585 1292 c 0
 585 1375 615 1446 674 1506 c 0
 736 1565 807 1595 888 1595 c 0
 970 1595 1042 1565 1100 1506 c 0
 1160 1446 1190 1375 1190 1292 c 0
 1190 1211 1161 1141 1101 1079 c 0
 1043 1021 971 990 888 990 c 0xb8
888 1173 m 0
 920 1173 947 1185 971 1209 c 0
 996 1234 1007 1261 1007 1292 c 0
 1007 1325 995 1352 971 1376 c 0
 946 1400 919 1412 888 1412 c 0
 854 1412 825 1401 802 1377 c 0xd8
 779 1354 767 1326 767 1292 c 0
 767 1261 779 1233 802 1208 c 1
 802 1209 l 1
 826 1185 854 1173 888 1173 c 0
EndSplineSet
EndChar

StartChar: plusminus
Encoding: 177 177 113
Width: 1229
GlyphClass: 2
Flags: MW
HStem: 0 241<73 1188 73 1188> 729 241<73 510 73 510 752 1188>
VStem: 474 242
LayerCount: 2
Fore
SplineSet
752 970 m 1
 1188 970 l 1
 1188 729 l 1
 752 729 l 1
 752 291 l 1
 510 291 l 1
 510 729 l 1
 73 729 l 1
 73 970 l 1
 510 970 l 1
 510 1406 l 1
 752 1406 l 1
 752 970 l 1
73 241 m 1
 1188 241 l 1
 1188 0 l 1
 73 0 l 1
 73 241 l 1
EndSplineSet
EndChar

StartChar: twosuperior
Encoding: 178 178 114
Width: 1229
GlyphClass: 2
Flags: MW
HStem: 605 218<659 1188 659 1188> 1384 211<770.5 804> 1575 20G<744.5 868>
VStem: 194 801
LayerCount: 2
Fore
SplineSet
1188 823 m 1xb0
 1188 605 l 1
 387 605 l 1
 387 761 l 2
 387 809 405 858 443 908 c 1
 443 907 l 1
 477 954 537 1010 624 1075 c 2
 703 1133 l 2
 792 1201 859 1253 894 1283 c 0
 920 1306 934 1326 934 1338 c 0
 934 1347 923 1355 899 1363 c 0
 862 1377 823 1384 785 1384 c 0
 756 1384 717 1382 675 1377 c 0
 635 1372 549 1354 416 1315 c 1xd0
 416 1531 l 1
 551 1573 681 1595 808 1595 c 0
 928 1595 1021 1571 1079 1530 c 0
 1140 1486 1175 1426 1175 1355 c 0
 1175 1303 1156 1249 1119 1202 c 0
 1086 1160 1024 1102 930 1036 c 1
 931 1036 l 1
 845 975 l 1
 774 924 l 1
 775 924 l 1
 723 887 684 855 659 823 c 1
 1188 823 l 1xb0
EndSplineSet
EndChar

StartChar: threesuperior
Encoding: 179 179 115
Width: 1229
GlyphClass: 2
Flags: MW
HStem: 582 212<1009 1086 1009 1100> 1020 211<826 951 826 981> 1384 211<1002 1099.5> 1533 20G<724 724>
VStem: 351 817 927 241
LayerCount: 2
Fore
SplineSet
701 632 m 1xd8
 701 869 l 1
 851 820 968 794 1050 794 c 0
 1122 794 1179 809 1222 835 c 0
 1260 857 1277 881 1277 908 c 0
 1277 983 1168 1020 951 1020 c 2
 826 1020 l 1
 826 1231 l 1
 981 1231 l 2
 1066 1231 1130 1244 1169 1268 c 0
 1201 1288 1218 1309 1218 1328 c 0
 1218 1360 1157 1384 1042 1384 c 0
 962 1384 856 1365 724 1329 c 1
 724 1553 l 1
 851 1581 957 1595 1038 1595 c 0
 1179 1595 1286 1571 1355 1525 c 0
 1418 1483 1460 1408 1460 1340 c 0
 1460 1298 1445 1254 1417 1209 c 0
 1402 1189 1386 1170 1363 1152 c 1
 1465 1100 1518 1021 1518 917 c 0xe4
 1518 816 1465 730 1374 668 c 0
 1290 615 1169 582 1031 582 c 0
 925 582 815 599 701 632 c 1xd8
EndSplineSet
EndChar

StartChar: acute
Encoding: 180 180 116
Width: 1229
GlyphClass: 2
Flags: MW
HStem: 1209 401<419 1129 419 1129>
VStem: 210 710
LayerCount: 2
Fore
SplineSet
708 1209 m 1
 419 1209 l 1
 784 1610 l 1
 1129 1610 l 1
 708 1209 l 1
EndSplineSet
EndChar

StartChar: mu
Encoding: 181 181 117
Width: 1229
GlyphClass: 2
Flags: MW
HStem: -28 21G<566 638.5> 0 21G<882 1146 882 882> 1097 20G<179 443 443 443 882 1146 1146 1146>
VStem: 90 264 793 264
LayerCount: 2
Fore
SplineSet
443 2 m 2
 443 3 l 1
 451 -3 446 0 443 2 c 2
882 1117 m 1
 1146 1117 l 1
 1146 0 l 1
 882 0 l 1
 882 117 l 1
 794 17 688 -28 589 -28 c 0
 543 -28 484 -14 445 2 c 1
 444 3 l 2
 439 6 440 4 443 2 c 2
 443 -341 l 1
 179 -341 l 1
 179 1117 l 1
 443 1117 l 1
 443 475 l 2
 443 371 458 300 486 264 c 0
 513 230 545 214 585 214 c 0
 627 214 670 231 711 263 c 0
 754 300 818 376 882 479 c 1
 882 1117 l 1
EndSplineSet
EndChar

StartChar: paragraph
Encoding: 182 182 118
Width: 1229
GlyphClass: 2
Flags: MW
HStem: 1310 242<784 834 784 784 1075 1228 1075 1075>
VStem: 490 242 782 241
LayerCount: 2
Fore
SplineSet
784 -349 m 1
 542 -349 l 1
 542 646 l 1
 402 666 300 717 225 797 c 0
 145 886 105 988 105 1102 c 0
 105 1181 125 1255 163 1327 c 0
 202 1401 257 1456 329 1494 c 1
 328 1494 l 1
 398 1533 513 1552 676 1552 c 2
 1228 1552 l 1
 1228 1310 l 1
 1075 1310 l 1
 1075 -349 l 1
 834 -349 l 1
 834 1310 l 1
 784 1310 l 1
 784 -349 l 1
EndSplineSet
EndChar

StartChar: periodcentered
Encoding: 183 183 119
Width: 1229
GlyphClass: 2
Flags: MW
HStem: 356 402<960 1017.5 960 1017.5>
VStem: 394 402
LayerCount: 2
Fore
SplineSet
988 758 m 0
 1047 758 1095 737 1132 696 c 0
 1169 657 1189 609 1189 557 c 0
 1189 504 1169 457 1132 418 c 0
 1095 377 1047 356 988 356 c 0
 930 356 881 377 843 418 c 0
 804 459 787 506 787 557 c 0
 787 608 808 657 843 694 c 0
 882 736 932 758 988 758 c 0
EndSplineSet
EndChar

StartChar: cedilla
Encoding: 184 184 120
Width: 1229
GlyphClass: 2
Flags: MW
HStem: -408 21G<937 1002.5> -44 21G<1046 1046> -44 139<1046 1046>
VStem: 388 16
LayerCount: 2
Fore
SplineSet
966 -219 m 1xd0
 966 -206 904 -193 785 -179 c 1
 853 -216 900 -232 928 -232 c 0
 940 -232 951 -228 959 -222 c 1
 958 -222 l 1
 963 -219 966 -218 966 -219 c 1xd0
913 95 m 1xb0
 1122 95 l 1
 1046 -44 l 1
 1092 -60 1124 -81 1143 -108 c 0
 1168 -142 1184 -185 1184 -223 c 0
 1184 -271 1165 -313 1131 -350 c 0
 1095 -389 1039 -408 966 -408 c 0
 908 -408 844 -395 769 -368 c 1
 769 -177 l 1
 763 -177 l 1
 913 95 l 1xb0
EndSplineSet
EndChar

StartChar: onesuperior
Encoding: 185 185 121
Width: 1229
GlyphClass: 2
Flags: MW
HStem: 605 211<449 739 967 1250 449 739> 1553 20G<778 967 967 967>
VStem: 515 228
LayerCount: 2
Fore
SplineSet
449 816 m 1
 739 816 l 1
 739 1313 l 1
 661 1278 563 1244 449 1216 c 1
 449 1431 l 1
 582 1470 693 1518 778 1573 c 1
 967 1573 l 1
 967 816 l 1
 1250 816 l 1
 1250 605 l 1
 449 605 l 1
 449 816 l 1
EndSplineSet
EndChar

StartChar: ordmasculine
Encoding: 186 186 122
Width: 1229
GlyphClass: 2
Flags: MW
HStem: 830 212<702 766 702 808.5> 1384 211<702 766>
VStem: 140 241 140 911 810 241
LayerCount: 2
Fore
SplineSet
734 830 m 0xd0
 585 830 472 868 395 944 c 0xd0
 318 1021 279 1111 279 1212 c 0
 279 1317 318 1407 395 1482 c 1
 395 1481 l 1
 472 1557 585 1595 734 1595 c 0
 883 1595 998 1557 1075 1481 c 1
 1075 1482 l 1
 1152 1407 1190 1317 1190 1212 c 0
 1190 1109 1152 1019 1075 944 c 1xe8
 1075 944 l 1
 998 868 883 830 734 830 c 0xd0
734 1042 m 0xe8
 798 1042 854 1059 895 1088 c 0xd0
 930 1116 949 1159 949 1212 c 0
 949 1266 930 1308 895 1336 c 0
 854 1365 798 1384 734 1384 c 0
 670 1384 615 1365 574 1336 c 0
 539 1308 520 1266 520 1212 c 0
 520 1159 539 1116 574 1088 c 0
 615 1059 670 1042 734 1042 c 0xe8
EndSplineSet
EndChar

StartChar: guillemotright
Encoding: 187 187 123
Width: 1229
GlyphClass: 2
Flags: MW
HStem: 38 1066<277 719>
VStem: 51 1025
LayerCount: 2
Fore
SplineSet
277 1104 m 1
 681 662 l 1
 681 481 l 1
 275 39 l 1
 102 204 l 1
 399 573 l 1
 101 952 l 1
 277 1104 l 1
721 1104 m 1
 1126 663 l 1
 1126 480 l 1
 719 38 l 1
 548 205 l 1
 843 573 l 1
 749 694 639 833 547 952 c 1
 721 1104 l 1
EndSplineSet
EndChar

StartChar: onequarter
Encoding: 188 188 124
Width: 1229
GlyphClass: 2
Flags: MW
HStem: -44 21G<-134 133 -134 -134> 0 21G<772 1013 772 772> 145 212<691 772 691 772 1013 1152> 729 211<-94 124 373 482 -94 124> 1532 20G<158 373 373 373> 1575 20G<920 1192 1192 1192>
VStem: 191 249 839 241
LayerCount: 2
Fore
SplineSet
482 729 m 1
 -94 729 l 1
 -94 940 l 1
 124 940 l 1
 124 1271 l 1
 -94 1125 l 1
 -94 1385 l 1
 158 1552 l 1
 373 1552 l 1
 373 940 l 1
 482 940 l 1
 482 729 l 1
1192 1595 m 1
 133 -44 l 1
 -134 -44 l 1
 920 1595 l 1
 1192 1595 l 1
1013 145 m 1
 1013 0 l 1
 772 0 l 1
 772 145 l 1
 386 145 l 1
 386 326 l 1
 798 816 l 1
 1013 816 l 1
 1013 357 l 1
 1152 357 l 1
 1152 145 l 1
 1013 145 l 1
691 357 m 1
 772 357 l 1
 772 454 l 1
 741 416 l 1
 691 357 l 1
EndSplineSet
EndChar

StartChar: onehalf
Encoding: 189 189 125
Width: 1229
GlyphClass: 2
Flags: MW
HStem: -44 21G<-134 129 -134 -134> 0 212<779 1108 779 1108> 605 211<791 803> 729 211<-94 124 373 482 -94 124> 1532 20G<158 373 373 373> 1575 20G<921 1192 1192 1192>
VStem: 191 249
LayerCount: 2
Fore
SplineSet
482 729 m 1xde
 -94 729 l 1
 -94 940 l 1
 124 940 l 1
 124 1271 l 1
 -94 1125 l 1
 -94 1385 l 1
 158 1552 l 1
 373 1552 l 1
 373 940 l 1
 482 940 l 1
 482 729 l 1xde
1192 1595 m 1
 129 -44 l 1
 -134 -44 l 1
 921 1595 l 1
 1192 1595 l 1
1108 212 m 1
 1108 0 l 1
 495 0 l 1
 495 164 l 2
 495 213 556 314 720 430 c 2
 776 470 l 1
 776 469 l 1
 823 504 852 526 860 538 c 0
 865 546 867 556 867 567 c 0
 867 579 863 587 855 590 c 0
 837 600 815 605 791 605 c 0
 747 605 671 575 561 517 c 1
 561 750 l 1
 670 794 759 816 823 816 c 0
 908 816 980 790 1028 749 c 0xee
 1081 703 1108 644 1108 574 c 0
 1108 516 1086 466 1046 420 c 0
 1009 380 960 339 901 300 c 2
 859 272 l 1
 860 272 l 1
 824 248 799 230 781 214 c 2
 779 212 l 1
 1108 212 l 1
EndSplineSet
EndChar

StartChar: threequarters
Encoding: 190 190 126
Width: 1229
GlyphClass: 2
Flags: MW
HStem: -44 21G<-134 133 -134 -134> 0 21G<772 1013 772 772> 145 212<691 772 691 772 1013 1152> 729 211<207.5 250.5 207.5 274> 1034 212<22 139 22 146> 1532 20G<217 301> 1575 20G<920 1192 1192 1192>
VStem: 839 241
LayerCount: 2
Fore
SplineSet
139 1034 m 2
 22 1034 l 1
 22 1246 l 1
 146 1246 l 2
 218 1246 259 1252 269 1263 c 0
 279 1277 285 1288 285 1298 c 0
 285 1306 280 1314 270 1325 c 1
 271 1325 l 1
 261 1334 242 1339 214 1339 c 0
 174 1339 98 1323 -21 1284 c 1
 -21 1498 l 1
 91 1534 181 1552 253 1552 c 0
 349 1552 418 1527 462 1477 c 0
 507 1428 526 1376 526 1321 c 0
 526 1257 505 1204 456 1158 c 1
 516 1116 548 1059 548 990 c 0
 548 924 519 864 463 810 c 0
 407 756 327 729 221 729 c 0
 149 729 70 742 -21 772 c 1
 -21 1001 l 1
 102 961 186 940 229 940 c 0
 272 940 306 957 306 981 c 0
 306 992 300 1002 283 1013 c 0
 264 1027 215 1034 139 1034 c 2
1192 1595 m 1
 133 -44 l 1
 -134 -44 l 1
 920 1595 l 1
 1192 1595 l 1
1013 145 m 1
 1013 0 l 1
 772 0 l 1
 772 145 l 1
 386 145 l 1
 386 326 l 1
 798 816 l 1
 1013 816 l 1
 1013 357 l 1
 1152 357 l 1
 1152 145 l 1
 1013 145 l 1
691 357 m 1
 772 357 l 1
 772 454 l 1
 741 416 l 1
 691 357 l 1
EndSplineSet
EndChar

StartChar: questiondown
Encoding: 191 191 127
Width: 1229
GlyphClass: 2
Flags: MW
HStem: -467 243<711.5 773 711.5 816>
VStem: 572 271
LayerCount: 2
Fore
SplineSet
707 713 m 1
 978 713 l 1
 978 634 l 2
 978 579 973 532 963 492 c 0
 954 453 934 412 906 369 c 0
 877 326 838 279 790 229 c 1
 790 230 l 1
 731 166 l 1
 729 164 l 2
 720 152 704 135 685 111 c 2
 624 34 l 2
 581 -20 556 -70 556 -105 c 0
 556 -135 570 -161 597 -187 c 1
 596 -187 l 1
 624 -213 676 -224 747 -224 c 0
 799 -224 851 -218 902 -205 c 0
 957 -192 1043 -149 1160 -86 c 1
 1160 -364 l 1
 1021 -432 883 -467 749 -467 c 0
 596 -467 479 -434 398 -371 c 1
 399 -371 l 1
 314 -304 271 -217 271 -110 c 0
 271 -9 324 98 426 205 c 2
 489 269 l 1
 561 344 l 1
 629 412 l 2
 649 437 669 467 685 496 c 1
 684 496 l 1
 700 525 707 567 707 623 c 2
 707 713 l 1
833 801 m 0
 784 801 740 818 704 854 c 0
 670 892 651 934 651 983 c 0
 651 1033 670 1076 704 1112 c 0
 740 1148 784 1165 833 1165 c 0
 883 1165 925 1148 961 1114 c 0
 999 1078 1016 1034 1016 983 c 0
 1016 932 999 890 961 853 c 0
 925 817 883 801 833 801 c 0
EndSplineSet
EndChar

StartChar: Agrave
Encoding: 192 192 128
Width: 1229
GlyphClass: 2
Flags: MW
HStem: 0 21G<-30 253 -30 -30 891 891 891 1192> 320 241<351 719 426 719 426 792> 1532 20G<447 712 712 712>
VStem: -15 1222
LayerCount: 2
Fore
SplineSet
351 320 m 1
 253 0 l 1
 -30 0 l 1
 447 1552 l 1
 712 1552 l 1
 1192 0 l 1
 891 0 l 1
 792 320 l 1
 351 320 l 1
571 1029 m 1
 578 1051 l 1
 598 1132 l 1
 542 1132 l 1
 564 1051 l 1
 571 1029 l 1
719 561 m 1
 571 1029 l 1
 426 561 l 1
 719 561 l 1
563 2044 m 1
 926 1643 l 1
 639 1643 l 1
 217 2044 l 1
 563 2044 l 1
EndSplineSet
EndChar

StartChar: Aacute
Encoding: 193 193 129
Width: 1229
GlyphClass: 2
Flags: MW
HStem: 0 21G<-30 253 -30 -30 891 891 891 1192> 320 241<351 719 426 719 426 792> 1532 20G<447 712 712 712>
VStem: -15 1222
LayerCount: 2
Fore
SplineSet
351 320 m 1
 253 0 l 1
 -30 0 l 1
 447 1552 l 1
 712 1552 l 1
 1192 0 l 1
 891 0 l 1
 792 320 l 1
 351 320 l 1
571 1029 m 1
 578 1051 l 1
 598 1132 l 1
 542 1132 l 1
 564 1051 l 1
 571 1029 l 1
719 561 m 1
 571 1029 l 1
 426 561 l 1
 719 561 l 1
520 1643 m 1
 231 1643 l 1
 596 2044 l 1
 941 2044 l 1
 520 1643 l 1
EndSplineSet
EndChar

StartChar: Acircumflex
Encoding: 194 194 130
Width: 1229
GlyphClass: 2
Flags: MW
HStem: 0 21G<-30 253 -30 -30 891 891 891 1192> 320 241<351 719 426 719 426 792> 1532 20G<447 712 712 712>
VStem: -15 1222
LayerCount: 2
Fore
SplineSet
351 320 m 1
 253 0 l 1
 -30 0 l 1
 447 1552 l 1
 712 1552 l 1
 1192 0 l 1
 891 0 l 1
 792 320 l 1
 351 320 l 1
571 1029 m 1
 578 1051 l 1
 598 1132 l 1
 542 1132 l 1
 564 1051 l 1
 571 1029 l 1
719 561 m 1
 571 1029 l 1
 426 561 l 1
 719 561 l 1
689 1643 m 1
 581 1774 l 1
 516 1695 l 1
 472 1643 l 1
 211 1643 l 1
 499 2044 l 1
 663 2044 l 1
 951 1643 l 1
 689 1643 l 1
EndSplineSet
EndChar

StartChar: Atilde
Encoding: 195 195 131
Width: 1229
GlyphClass: 2
Flags: MW
HStem: 0 21G<-30 253 -30 -30 891 891 891 1192> 320 241<351 719 426 719 426 792> 1532 20G<447 712 712 712>
VStem: 251 17 807 155
LayerCount: 2
Fore
SplineSet
351 320 m 1
 253 0 l 1
 -30 0 l 1
 447 1552 l 1
 712 1552 l 1
 1192 0 l 1
 891 0 l 1
 792 320 l 1
 351 320 l 1
571 1029 m 1
 578 1051 l 1
 598 1132 l 1
 542 1132 l 1
 564 1051 l 1
 571 1029 l 1
719 561 m 1
 571 1029 l 1
 426 561 l 1
 719 561 l 1
449 1643 m 1
 236 1643 l 1
 236 1873 330 1978 454 1978 c 0
 503 1978 551 1965 597 1933 c 1
 596 1934 l 1
 636 1910 l 2
 680 1882 708 1869 721 1869 c 0
 726 1869 729 1905 729 1978 c 1
 947 1978 l 1
 940 1876 929 1808 913 1772 c 1
 914 1772 l 1
 900 1738 872 1706 836 1680 c 0
 802 1655 763 1642 721 1642 c 0
 673 1642 616 1662 563 1695 c 2
 521 1722 l 1
 497 1738 l 2
 484 1747 471 1752 464 1752 c 0
 463 1752 457 1746 455 1744 c 0
 451 1737 449 1703 449 1643 c 1
EndSplineSet
EndChar

StartChar: Adieresis
Encoding: 196 196 132
Width: 1229
GlyphClass: 2
Flags: MW
HStem: 0 21G<-30 253 -30 -30 891 891 891 1192> 320 241<351 719 426 719 426 792> 1532 20G<447 712 712 712>
VStem: 227 41 906 57
LayerCount: 2
Fore
SplineSet
351 320 m 1
 253 0 l 1
 -30 0 l 1
 447 1552 l 1
 712 1552 l 1
 1192 0 l 1
 891 0 l 1
 792 320 l 1
 351 320 l 1
571 1029 m 1
 578 1051 l 1
 598 1132 l 1
 542 1132 l 1
 564 1051 l 1
 571 1029 l 1
719 561 m 1
 571 1029 l 1
 426 561 l 1
 719 561 l 1
377 1643 m 0
 331 1643 294 1659 260 1690 c 0
 228 1722 212 1761 212 1807 c 0
 212 1855 228 1893 261 1923 c 0
 295 1955 332 1971 377 1971 c 0
 419 1971 458 1954 491 1923 c 0
 523 1893 540 1854 540 1807 c 0
 540 1760 524 1721 492 1690 c 0
 460 1659 421 1643 377 1643 c 0
785 1643 m 0
 740 1643 702 1659 668 1690 c 0
 636 1722 619 1760 619 1807 c 0
 619 1855 636 1893 668 1923 c 0
 702 1955 741 1971 785 1971 c 0
 828 1971 866 1956 899 1923 c 1
 898 1923 l 1
 933 1892 948 1854 948 1807 c 0
 948 1761 932 1722 898 1690 c 0
 867 1661 826 1643 785 1643 c 0
EndSplineSet
EndChar

StartChar: Aring
Encoding: 197 197 133
Width: 1229
GlyphClass: 2
Flags: MW
HStem: 0 21G<-30 252 -30 -30 891 1192 891 891> 320 241<426 719 426 792 351 719> 1690 182<574 590>
VStem: -15 1222 371 183 633 183
LayerCount: 2
Fore
SplineSet
731 1488 m 1xd0
 1192 0 l 1
 891 0 l 1
 792 320 l 1
 351 320 l 1
 312 194 l 1
 312 194 l 1
 295 136 270 56 252 0 c 1
 -30 0 l 1
 428 1488 l 1
 379 1534 356 1584 356 1650 c 0
 356 1709 379 1761 422 1805 c 0
 466 1849 519 1872 579 1872 c 0
 641 1872 692 1850 736 1806 c 0
 780 1762 801 1710 801 1650 c 0
 801 1590 777 1533 731 1488 c 1xd0
571 1029 m 1
 578 1051 l 1
 598 1132 l 1
 542 1132 l 1
 564 1051 l 1
 571 1029 l 1
719 561 m 1
 571 1029 l 1
 426 561 l 1
 719 561 l 1
539 1650 m 0
 539 1628 557 1610 579 1610 c 0
 601 1610 618 1628 618 1650 c 0
 618 1672 601 1690 579 1690 c 0
 569 1690 562 1687 558 1682 c 0
 545 1670 539 1660 539 1650 c 0
EndSplineSet
EndChar

StartChar: AE
Encoding: 198 198 134
Width: 1229
GlyphClass: 2
Flags: MW
HStem: 0 256<787 1122 787 1122> 349 227<395 517 395 517 302 517> 662 241<787 1108 787 1108> 1310 242<787 1122 787 787>
VStem: 569 270
LayerCount: 2
Fore
SplineSet
1122 0 m 1
 517 0 l 1
 517 349 l 1
 302 349 l 1
 285 308 267 264 250 222 c 0
 222 154 187 66 161 0 c 1
 -104 0 l 1
 532 1552 l 1
 1122 1552 l 1
 1122 1310 l 1
 787 1310 l 1
 787 903 l 1
 1108 903 l 1
 1108 662 l 1
 787 662 l 1
 787 256 l 1
 1122 256 l 1
 1122 0 l 1
517 873 m 1
 395 576 l 1
 517 576 l 1
 517 873 l 1
EndSplineSet
EndChar

StartChar: Ccedilla
Encoding: 199 199 135
Width: 1229
GlyphClass: 2
Flags: MW
HStem: -408 21G<724.5 790> -15 21G<640 640> 1355 241<754.5 865>
VStem: 81 292 477 16
LayerCount: 2
Fore
SplineSet
753 -219 m 1
 753 -206 694 -193 573 -179 c 1
 642 -215 687 -232 716 -232 c 0
 727 -232 738 -227 748 -221 c 0
 750 -220 753 -218 753 -219 c 1
1167 1521 m 1
 1167 1232 l 1
 1028 1314 911 1355 819 1355 c 0
 690 1355 574 1261 507 1082 c 0
 470 988 453 887 453 776 c 0
 453 663 471 561 509 466 c 0
 545 374 591 305 646 260 c 1
 646 261 l 1
 700 219 756 196 819 196 c 0
 909 196 1026 237 1167 319 c 1
 1167 31 l 1
 1063 -6 987 -28 947 -36 c 0
 915 -40 879 -45 838 -46 c 1
 881 -61 912 -82 932 -108 c 0
 959 -143 972 -182 972 -223 c 0
 972 -271 953 -313 918 -350 c 0
 882 -389 827 -408 753 -408 c 0
 696 -408 631 -395 557 -368 c 1
 557 -178 l 2
 554 -177 551 -177 549 -177 c 1
 640 -15 l 1
 536 18 451 67 385 134 c 0
 307 212 251 301 215 403 c 0
 180 504 161 622 161 756 c 0
 161 1020 224 1224 348 1372 c 0
 475 1521 635 1596 827 1596 c 0
 918 1596 1033 1570 1167 1521 c 1
EndSplineSet
EndChar

StartChar: Egrave
Encoding: 200 200 136
Width: 1229
GlyphClass: 2
Flags: MW
HStem: 0 256<608 1205 608 1205> 670 241<608 1131 608 1131> 1310 242<608 1190 608 608>
VStem: 162 285
LayerCount: 2
Fore
SplineSet
608 256 m 1
 1205 256 l 1
 1205 0 l 1
 323 0 l 1
 323 1552 l 1
 1190 1552 l 1
 1190 1310 l 1
 608 1310 l 1
 608 911 l 1
 1131 911 l 1
 1131 670 l 1
 608 670 l 1
 608 256 l 1
750 2044 m 1
 1113 1643 l 1
 826 1643 l 1
 404 2044 l 1
 750 2044 l 1
EndSplineSet
EndChar

StartChar: Eacute
Encoding: 201 201 137
Width: 1229
GlyphClass: 2
Flags: MW
HStem: 0 256<608 1205 608 1205> 670 241<608 1131 608 1131> 1310 242<608 1190 608 608>
VStem: 162 285
LayerCount: 2
Fore
SplineSet
608 256 m 1
 1205 256 l 1
 1205 0 l 1
 323 0 l 1
 323 1552 l 1
 1190 1552 l 1
 1190 1310 l 1
 608 1310 l 1
 608 911 l 1
 1131 911 l 1
 1131 670 l 1
 608 670 l 1
 608 256 l 1
707 1643 m 1
 418 1643 l 1
 783 2044 l 1
 1128 2044 l 1
 707 1643 l 1
EndSplineSet
EndChar

StartChar: Ecircumflex
Encoding: 202 202 138
Width: 1229
GlyphClass: 2
Flags: MW
HStem: 0 256<608 1205 608 1205> 670 241<608 1131 608 1131> 1310 242<608 1190 608 608>
VStem: 162 285
LayerCount: 2
Fore
SplineSet
608 256 m 1
 1205 256 l 1
 1205 0 l 1
 323 0 l 1
 323 1552 l 1
 1190 1552 l 1
 1190 1310 l 1
 608 1310 l 1
 608 911 l 1
 1131 911 l 1
 1131 670 l 1
 608 670 l 1
 608 256 l 1
865 1643 m 1
 757 1774 l 1
 692 1695 l 1
 648 1643 l 1
 387 1643 l 1
 675 2044 l 1
 839 2044 l 1
 1127 1643 l 1
 865 1643 l 1
EndSplineSet
EndChar

StartChar: Edieresis
Encoding: 203 203 139
Width: 1229
GlyphClass: 2
Flags: MW
HStem: 0 256<608 1205 608 1205> 670 241<608 1131 608 1131> 1310 242<608 1190 608 608>
VStem: 162 285
LayerCount: 2
Fore
SplineSet
608 256 m 1
 1205 256 l 1
 1205 0 l 1
 323 0 l 1
 323 1552 l 1
 1190 1552 l 1
 1190 1310 l 1
 608 1310 l 1
 608 911 l 1
 1131 911 l 1
 1131 670 l 1
 608 670 l 1
 608 256 l 1
561 1643 m 0
 515 1643 478 1659 444 1690 c 0
 412 1722 396 1761 396 1807 c 0
 396 1855 412 1893 445 1923 c 0
 479 1955 516 1971 561 1971 c 0
 603 1971 642 1954 675 1923 c 0
 707 1893 724 1854 724 1807 c 0
 724 1760 708 1721 676 1690 c 0
 644 1659 605 1643 561 1643 c 0
969 1643 m 0
 924 1643 886 1659 852 1690 c 0
 820 1722 803 1760 803 1807 c 0
 803 1855 820 1893 852 1923 c 0
 886 1955 925 1971 969 1971 c 0
 1012 1971 1050 1956 1083 1923 c 1
 1082 1923 l 1
 1117 1892 1132 1854 1132 1807 c 0
 1132 1761 1116 1722 1082 1690 c 0
 1051 1661 1010 1643 969 1643 c 0
EndSplineSet
EndChar

StartChar: Igrave
Encoding: 204 204 140
Width: 1229
GlyphClass: 2
Flags: MW
HStem: 0 241<265 584 869 1190 265 584> 1310 242<265 584 265 1190 869 869 869 1190>
VStem: 452 285
LayerCount: 2
Fore
SplineSet
1190 0 m 1
 265 0 l 1
 265 241 l 1
 584 241 l 1
 584 1310 l 1
 265 1310 l 1
 265 1552 l 1
 1190 1552 l 1
 1190 1310 l 1
 869 1310 l 1
 869 241 l 1
 1190 241 l 1
 1190 0 l 1
713 2044 m 1
 1076 1643 l 1
 789 1643 l 1
 367 2044 l 1
 713 2044 l 1
EndSplineSet
EndChar

StartChar: Iacute
Encoding: 205 205 141
Width: 1229
GlyphClass: 2
Flags: MW
HStem: 0 241<265 584 869 1190 265 584> 1310 242<265 584 265 1190 869 869 869 1190>
VStem: 452 285
LayerCount: 2
Fore
SplineSet
1190 0 m 1
 265 0 l 1
 265 241 l 1
 584 241 l 1
 584 1310 l 1
 265 1310 l 1
 265 1552 l 1
 1190 1552 l 1
 1190 1310 l 1
 869 1310 l 1
 869 241 l 1
 1190 241 l 1
 1190 0 l 1
670 1643 m 1
 381 1643 l 1
 746 2044 l 1
 1091 2044 l 1
 670 1643 l 1
EndSplineSet
EndChar

StartChar: Icircumflex
Encoding: 206 206 142
Width: 1229
GlyphClass: 2
Flags: MW
HStem: 0 241<265 584 869 1190 265 584> 1310 242<265 584 265 1190 869 869 869 1190>
VStem: 452 285
LayerCount: 2
Fore
SplineSet
1190 0 m 1
 265 0 l 1
 265 241 l 1
 584 241 l 1
 584 1310 l 1
 265 1310 l 1
 265 1552 l 1
 1190 1552 l 1
 1190 1310 l 1
 869 1310 l 1
 869 241 l 1
 1190 241 l 1
 1190 0 l 1
836 1643 m 1
 728 1774 l 1
 663 1695 l 1
 619 1643 l 1
 358 1643 l 1
 646 2044 l 1
 810 2044 l 1
 1098 1643 l 1
 836 1643 l 1
EndSplineSet
EndChar

StartChar: Idieresis
Encoding: 207 207 143
Width: 1229
GlyphClass: 2
Flags: MW
HStem: 0 241<265 584 869 1190 265 584> 1310 242<265 584 265 1190 869 869 869 1190>
VStem: 452 285
LayerCount: 2
Fore
SplineSet
1190 0 m 1
 265 0 l 1
 265 241 l 1
 584 241 l 1
 584 1310 l 1
 265 1310 l 1
 265 1552 l 1
 1190 1552 l 1
 1190 1310 l 1
 869 1310 l 1
 869 241 l 1
 1190 241 l 1
 1190 0 l 1
524 1643 m 0
 478 1643 441 1659 407 1690 c 0
 375 1722 359 1761 359 1807 c 0
 359 1855 375 1893 408 1923 c 0
 442 1955 479 1971 524 1971 c 0
 566 1971 605 1954 638 1923 c 0
 670 1893 687 1854 687 1807 c 0
 687 1760 671 1721 639 1690 c 0
 607 1659 568 1643 524 1643 c 0
932 1643 m 0
 887 1643 849 1659 815 1690 c 0
 783 1722 766 1760 766 1807 c 0
 766 1855 783 1893 815 1923 c 0
 849 1955 888 1971 932 1971 c 0
 975 1971 1013 1956 1046 1923 c 1
 1045 1923 l 1
 1080 1892 1095 1854 1095 1807 c 0
 1095 1761 1079 1722 1045 1690 c 0
 1014 1661 973 1643 932 1643 c 0
EndSplineSet
EndChar

StartChar: Eth
Encoding: 208 208 144
Width: 1229
GlyphClass: 2
Flags: MW
HStem: 0 256<374 453 453 514 374 522> 670 241<-56 89 -56 89 374 606> 1310 242<374 468 374 374>
VStem: 117 285 861 284
LayerCount: 2
Fore
SplineSet
522 0 m 2
 89 0 l 1
 89 670 l 1
 -56 670 l 1
 -56 911 l 1
 89 911 l 1
 89 1552 l 1
 482 1552 l 2
 661 1552 790 1525 867 1470 c 0
 944 1416 1006 1325 1051 1197 c 0
 1095 1072 1117 931 1117 772 c 0
 1117 621 1095 486 1051 368 c 0
 1006 245 946 153 871 93 c 0
 794 30 678 0 522 0 c 2
374 670 m 1
 374 256 l 1
 453 256 l 2
 575 256 660 273 701 304 c 1
 700 303 l 1
 739 337 772 393 795 471 c 0
 819 554 833 664 833 802 c 0
 833 937 819 1041 795 1116 c 0
 773 1184 740 1235 704 1266 c 1
 665 1293 584 1310 468 1310 c 2
 374 1310 l 1
 374 911 l 1
 606 911 l 1
 606 670 l 1
 374 670 l 1
EndSplineSet
EndChar

StartChar: Ntilde
Encoding: 209 209 145
Width: 1229
GlyphClass: 2
Flags: MW
HStem: 0 21G<177 447 177 177 938 1189 938 938> 1532 20G<177 426 426 426 920 1189 1189 1189>
VStem: 89 270 251 213 832 269 850 112
LayerCount: 2
Fore
SplineSet
938 0 m 1xe8
 447 936 l 1
 447 0 l 1
 177 0 l 1
 177 1552 l 1
 426 1552 l 1
 920 621 l 1
 920 1552 l 1
 1189 1552 l 1
 1189 0 l 1
 938 0 l 1xe8
552 1643 m 1
 339 1643 l 1
 339 1873 433 1978 557 1978 c 0
 606 1978 654 1965 700 1933 c 1
 699 1934 l 1
 739 1910 l 2
 783 1882 811 1869 824 1869 c 0
 829 1869 832 1905 832 1978 c 1
 1050 1978 l 1
 1043 1876 1032 1808 1016 1772 c 1
 1017 1772 l 1
 1003 1738 975 1706 939 1680 c 0
 905 1655 866 1642 824 1642 c 0
 776 1642 719 1662 666 1695 c 2
 624 1722 l 1
 600 1738 l 2
 587 1747 574 1752 567 1752 c 0
 566 1752 560 1746 558 1744 c 0
 554 1737 552 1703 552 1643 c 1
EndSplineSet
EndChar

StartChar: Ograve
Encoding: 210 210 146
Width: 1229
GlyphClass: 2
Flags: MW
HStem: -44 21G<540 723> -44 241<595.5 666.5 595.5 723> 1355 240<595 667.5> 1575 20G<542.5 723>
VStem: 37 285 867 285
LayerCount: 2
Fore
SplineSet
631 -44 m 0x9c
 449 -44 308 33 212 186 c 0
 119 334 73 530 73 776 c 0
 73 1015 124 1218 212 1364 c 1
 307 1511 454 1595 631 1595 c 0
 815 1595 953 1518 1050 1364 c 0
 1142 1217 1188 1021 1188 776 c 0
 1188 530 1142 335 1050 186 c 0
 953 33 815 -44 631 -44 c 0x9c
631 197 m 0x6c
 702 197 768 246 819 329 c 1
 818 328 l 1
 873 426 903 576 903 776 c 0
 903 970 870 1126 818 1223 c 1
 766 1308 704 1355 631 1355 c 0
 559 1355 494 1308 443 1223 c 1
 391 1126 358 970 358 776 c 0
 358 576 388 426 443 328 c 1
 443 329 l 1
 494 246 560 197 631 197 c 0x6c
617 2044 m 1
 980 1643 l 1
 693 1643 l 1
 271 2044 l 1
 617 2044 l 1
EndSplineSet
EndChar

StartChar: Oacute
Encoding: 211 211 147
Width: 1229
GlyphClass: 2
Flags: MW
HStem: -44 21G<540 723> -44 241<595.5 666.5 595.5 723> 1355 240<595 667.5> 1575 20G<542.5 723>
VStem: 37 285 867 285
LayerCount: 2
Fore
SplineSet
631 -44 m 0x9c
 449 -44 308 33 212 186 c 0
 119 334 73 530 73 776 c 0
 73 1015 124 1218 212 1364 c 1
 307 1511 454 1595 631 1595 c 0
 815 1595 953 1518 1050 1364 c 0
 1142 1217 1188 1021 1188 776 c 0
 1188 530 1142 335 1050 186 c 0
 953 33 815 -44 631 -44 c 0x9c
631 197 m 0x6c
 702 197 768 246 819 329 c 1
 818 328 l 1
 873 426 903 576 903 776 c 0
 903 970 870 1126 818 1223 c 1
 766 1308 704 1355 631 1355 c 0
 559 1355 494 1308 443 1223 c 1
 391 1126 358 970 358 776 c 0
 358 576 388 426 443 328 c 1
 443 329 l 1
 494 246 560 197 631 197 c 0x6c
574 1643 m 1
 285 1643 l 1
 650 2044 l 1
 995 2044 l 1
 574 1643 l 1
EndSplineSet
EndChar

StartChar: Ocircumflex
Encoding: 212 212 148
Width: 1229
GlyphClass: 2
Flags: MW
HStem: -44 21G<540 723> -44 241<595.5 666.5 595.5 723> 1355 240<595 667.5> 1575 20G<542.5 723>
VStem: 37 285 867 285
LayerCount: 2
Fore
SplineSet
631 -44 m 0x9c
 449 -44 308 33 212 186 c 0
 119 334 73 530 73 776 c 0
 73 1015 124 1218 212 1364 c 1
 307 1511 454 1595 631 1595 c 0
 815 1595 953 1518 1050 1364 c 0
 1142 1217 1188 1021 1188 776 c 0
 1188 530 1142 335 1050 186 c 0
 953 33 815 -44 631 -44 c 0x9c
631 197 m 0x6c
 702 197 768 246 819 329 c 1
 818 328 l 1
 873 426 903 576 903 776 c 0
 903 970 870 1126 818 1223 c 1
 766 1308 704 1355 631 1355 c 0
 559 1355 494 1308 443 1223 c 1
 391 1126 358 970 358 776 c 0
 358 576 388 426 443 328 c 1
 443 329 l 1
 494 246 560 197 631 197 c 0x6c
740 1643 m 1
 632 1774 l 1
 567 1695 l 1
 523 1643 l 1
 262 1643 l 1
 550 2044 l 1
 714 2044 l 1
 1002 1643 l 1
 740 1643 l 1
EndSplineSet
EndChar

StartChar: Otilde
Encoding: 213 213 149
Width: 1229
GlyphClass: 2
Flags: MW
HStem: -44 21G<540 723> -44 241<595.5 666.5 595.5 723> 1355 240<595 667.5> 1575 20G<542.5 723>
VStem: 37 285 242 213 735 218 867 285
LayerCount: 2
Fore
SplineSet
631 -44 m 0x95
 449 -44 308 33 212 186 c 0
 119 334 73 530 73 776 c 0x99
 73 1015 124 1218 212 1364 c 1
 307 1511 454 1595 631 1595 c 0
 815 1595 953 1518 1050 1364 c 0
 1142 1217 1188 1021 1188 776 c 0
 1188 530 1142 335 1050 186 c 0
 953 33 815 -44 631 -44 c 0x95
631 197 m 0x69
 702 197 768 246 819 329 c 1
 818 328 l 1
 873 426 903 576 903 776 c 0
 903 970 870 1126 818 1223 c 1
 766 1308 704 1355 631 1355 c 0
 559 1355 494 1308 443 1223 c 1
 391 1126 358 970 358 776 c 0
 358 576 388 426 443 328 c 1
 443 329 l 1
 494 246 560 197 631 197 c 0x69
491 1643 m 1x96
 278 1643 l 1
 278 1873 372 1978 496 1978 c 0
 545 1978 593 1965 639 1933 c 1
 638 1934 l 1
 678 1910 l 2
 722 1882 750 1869 763 1869 c 0
 768 1869 771 1905 771 1978 c 1
 989 1978 l 1
 982 1876 971 1808 955 1772 c 1
 956 1772 l 1
 942 1738 914 1706 878 1680 c 0
 844 1655 805 1642 763 1642 c 0
 715 1642 658 1662 605 1695 c 2
 563 1722 l 1
 539 1738 l 2
 526 1747 513 1752 506 1752 c 0
 505 1752 499 1746 497 1744 c 0
 493 1737 491 1703 491 1643 c 1x96
EndSplineSet
EndChar

StartChar: Odieresis
Encoding: 214 214 150
Width: 1229
GlyphClass: 2
Flags: MW
HStem: -44 21G<540 723> -44 241<595.5 666.5 595.5 723> 1355 240<595 667.5> 1575 20G<542.5 723>
VStem: 37 285 867 285
LayerCount: 2
Fore
SplineSet
631 -44 m 0x9c
 449 -44 308 33 212 186 c 0
 119 334 73 530 73 776 c 0
 73 1015 124 1218 212 1364 c 1
 307 1511 454 1595 631 1595 c 0
 815 1595 953 1518 1050 1364 c 0
 1142 1217 1188 1021 1188 776 c 0
 1188 530 1142 335 1050 186 c 0
 953 33 815 -44 631 -44 c 0x9c
631 197 m 0x6c
 702 197 768 246 819 329 c 1
 818 328 l 1
 873 426 903 576 903 776 c 0
 903 970 870 1126 818 1223 c 1
 766 1308 704 1355 631 1355 c 0
 559 1355 494 1308 443 1223 c 1
 391 1126 358 970 358 776 c 0
 358 576 388 426 443 328 c 1
 443 329 l 1
 494 246 560 197 631 197 c 0x6c
428 1643 m 0
 382 1643 345 1659 311 1690 c 0
 279 1722 263 1761 263 1807 c 0
 263 1855 279 1893 312 1923 c 0
 346 1955 383 1971 428 1971 c 0
 470 1971 509 1954 542 1923 c 0
 574 1893 591 1854 591 1807 c 0
 591 1760 575 1721 543 1690 c 0
 511 1659 472 1643 428 1643 c 0
836 1643 m 0
 791 1643 753 1659 719 1690 c 0
 687 1722 670 1760 670 1807 c 0
 670 1855 687 1893 719 1923 c 0
 753 1955 792 1971 836 1971 c 0
 879 1971 917 1956 950 1923 c 1
 949 1923 l 1
 984 1892 999 1854 999 1807 c 0
 999 1761 983 1722 949 1690 c 0
 918 1661 877 1643 836 1643 c 0
EndSplineSet
EndChar

StartChar: multiply
Encoding: 215 215 151
Width: 1229
GlyphClass: 2
Flags: MW
HStem: -19 21G<207 207 1014 1014> 1113 20G<208 208 1013 1013>
VStem: 17 1156
LayerCount: 2
Fore
SplineSet
1187 153 m 1
 1014 -19 l 1
 612 390 l 1
 207 -19 l 1
 35 153 l 1
 443 556 l 1
 33 969 l 1
 208 1133 l 1
 612 731 l 1
 1013 1133 l 1
 1189 969 l 1
 782 556 l 1
 1187 153 l 1
EndSplineSet
EndChar

StartChar: Oslash
Encoding: 216 216 152
Width: 1229
GlyphClass: 2
Flags: MW
HStem: -44 21G -44 241<572 640 572 658> 1355 240<563 614.5> 1575 20G<512 632.5>
VStem: 37 285 867 285
LayerCount: 2
Fore
SplineSet
327 39 m 1x9c
 249 -102 l 1
 12 -102 l 1
 175 202 l 1
 141 261 117 314 100 368 c 0
 82 427 68 494 58 561 c 0
 48 630 43 704 43 785 c 0
 43 1042 92 1241 192 1380 c 0
 294 1524 428 1595 596 1595 c 0
 669 1595 752 1577 815 1551 c 0
 839 1540 859 1533 883 1516 c 1
 957 1653 l 1
 1190 1653 l 1
 1032 1351 l 1
 1068 1289 1090 1240 1105 1190 c 0
 1121 1138 1135 1066 1145 992 c 0
 1153 918 1158 841 1158 765 c 0
 1158 608 1135 461 1093 340 c 0
 1048 218 987 119 910 56 c 0
 831 -12 724 -44 592 -44 c 0
 536 -44 486 -38 442 -23 c 1
 442 -24 l 1
 407 -13 374 4 327 39 c 1x9c
342 516 m 1
 342 515 l 1
 333 544 346 498 342 516 c 1
331 652 m 0
 333 602 337 549 342 517 c 1
 342 516 l 1x9c
 762 1288 l 1
 737 1311 712 1330 690 1336 c 0
 658 1348 628 1355 601 1355 c 0
 525 1355 461 1306 410 1215 c 1
 411 1216 l 1xac
 358 1114 328 969 328 789 c 0
 328 758 329 714 331 652 c 0
860 1033 m 1
 861 1034 l 1
 868 1002 857 1054 860 1033 c 1
861 1031 m 1
 861 1031 860 1032 860 1033 c 1
 448 267 l 1
 499 214 548 197 596 197 c 0
 684 197 752 246 797 343 c 0
 848 452 873 597 873 777 c 0
 873 810 872 851 870 905 c 0
 868 951 865 999 861 1031 c 1
EndSplineSet
EndChar

StartChar: Ugrave
Encoding: 217 217 153
Width: 1229
GlyphClass: 2
Flags: MW
HStem: -44 21G<577 729> -44 240<665.5 729> 1532 20G<177 462 462 462 920 1189 1189 1189>
VStem: 89 285 832 269
LayerCount: 2
Fore
SplineSet
177 572 m 2xb8
 177 1552 l 1
 462 1552 l 1
 462 548 l 2
 462 433 473 350 489 309 c 1
 508 273 533 245 565 226 c 1
 564 227 l 1
 603 207 643 196 688 196 c 0x78
 778 196 857 243 891 325 c 0
 909 377 920 479 920 622 c 2
 920 1552 l 1
 1189 1552 l 1
 1189 554 l 2
 1189 411 1167 297 1123 213 c 0
 1078 130 1019 64 947 21 c 0
 875 -20 781 -44 677 -44 c 0
 477 -44 317 32 236 184 c 0
 197 259 177 388 177 572 c 2xb8
669 2044 m 1
 1032 1643 l 1
 745 1643 l 1
 323 2044 l 1
 669 2044 l 1
EndSplineSet
EndChar

StartChar: Uacute
Encoding: 218 218 154
Width: 1229
GlyphClass: 2
Flags: MW
HStem: -44 21G<577 729> -44 240<665.5 729> 1532 20G<177 462 462 462 920 1189 1189 1189>
VStem: 89 285 832 269
LayerCount: 2
Fore
SplineSet
177 572 m 2xb8
 177 1552 l 1
 462 1552 l 1
 462 548 l 2
 462 433 473 350 489 309 c 1
 508 273 533 245 565 226 c 1
 564 227 l 1
 603 207 643 196 688 196 c 0x78
 778 196 857 243 891 325 c 0
 909 377 920 479 920 622 c 2
 920 1552 l 1
 1189 1552 l 1
 1189 554 l 2
 1189 411 1167 297 1123 213 c 0
 1078 130 1019 64 947 21 c 0
 875 -20 781 -44 677 -44 c 0
 477 -44 317 32 236 184 c 0
 197 259 177 388 177 572 c 2xb8
626 1643 m 1
 337 1643 l 1
 702 2044 l 1
 1047 2044 l 1
 626 1643 l 1
EndSplineSet
EndChar

StartChar: Ucircumflex
Encoding: 219 219 155
Width: 1229
GlyphClass: 2
Flags: MW
HStem: -44 21G<577 729> -44 240<665.5 729> 1532 20G<177 462 462 462 920 1189 1189 1189>
VStem: 89 285 832 269
LayerCount: 2
Fore
SplineSet
177 572 m 2xb8
 177 1552 l 1
 462 1552 l 1
 462 548 l 2
 462 433 473 350 489 309 c 1
 508 273 533 245 565 226 c 1
 564 227 l 1
 603 207 643 196 688 196 c 0x78
 778 196 857 243 891 325 c 0
 909 377 920 479 920 622 c 2
 920 1552 l 1
 1189 1552 l 1
 1189 554 l 2
 1189 411 1167 297 1123 213 c 0
 1078 130 1019 64 947 21 c 0
 875 -20 781 -44 677 -44 c 0
 477 -44 317 32 236 184 c 0
 197 259 177 388 177 572 c 2xb8
792 1643 m 1
 684 1774 l 1
 619 1695 l 1
 575 1643 l 1
 314 1643 l 1
 602 2044 l 1
 766 2044 l 1
 1054 1643 l 1
 792 1643 l 1
EndSplineSet
EndChar

StartChar: Udieresis
Encoding: 220 220 156
Width: 1229
GlyphClass: 2
Flags: MW
HStem: -44 21G<577 729> -44 240<665.5 729> 1532 20G<177 462 462 462 920 1189 1189 1189>
VStem: 89 285 832 269
LayerCount: 2
Fore
SplineSet
177 572 m 2xb8
 177 1552 l 1
 462 1552 l 1
 462 548 l 2
 462 433 473 350 489 309 c 1
 508 273 533 245 565 226 c 1
 564 227 l 1
 603 207 643 196 688 196 c 0x78
 778 196 857 243 891 325 c 0
 909 377 920 479 920 622 c 2
 920 1552 l 1
 1189 1552 l 1
 1189 554 l 2
 1189 411 1167 297 1123 213 c 0
 1078 130 1019 64 947 21 c 0
 875 -20 781 -44 677 -44 c 0
 477 -44 317 32 236 184 c 0
 197 259 177 388 177 572 c 2xb8
480 1643 m 0
 434 1643 397 1659 363 1690 c 0
 331 1722 315 1761 315 1807 c 0
 315 1855 331 1893 364 1923 c 0
 398 1955 435 1971 480 1971 c 0
 522 1971 561 1954 594 1923 c 0
 626 1893 643 1854 643 1807 c 0
 643 1760 627 1721 595 1690 c 0
 563 1659 524 1643 480 1643 c 0
888 1643 m 0
 843 1643 805 1659 771 1690 c 0
 739 1722 722 1760 722 1807 c 0
 722 1855 739 1893 771 1923 c 0
 805 1955 844 1971 888 1971 c 0
 931 1971 969 1956 1002 1923 c 1
 1001 1923 l 1
 1036 1892 1051 1854 1051 1807 c 0
 1051 1761 1035 1722 1001 1690 c 0
 970 1661 929 1643 888 1643 c 0
EndSplineSet
EndChar

StartChar: Yacute
Encoding: 221 221 157
Width: 1229
GlyphClass: 2
Flags: MW
HStem: 0 21G<440 725 440 440> 1532 20G<-26 297 297 297 889 1191 1191 1191>
VStem: 453 285
LayerCount: 2
Fore
SplineSet
725 0 m 1
 440 0 l 1
 440 711 l 1
 -26 1552 l 1
 297 1552 l 1
 593 1022 l 1
 638 1100 680 1179 724 1257 c 2
 889 1552 l 1
 1191 1552 l 1
 725 710 l 1
 725 0 l 1
525 1643 m 1
 236 1643 l 1
 601 2044 l 1
 946 2044 l 1
 525 1643 l 1
EndSplineSet
EndChar

StartChar: Thorn
Encoding: 222 222 158
Width: 1229
GlyphClass: 2
Flags: MW
HStem: 0 21G<273 558 273 273> 284 241<558 588 558 593> 1064 241<558 683 558 625> 1532 20G<273 558 558 558>
VStem: 137 285
LayerCount: 2
Fore
SplineSet
588 284 m 2
 558 284 l 1
 558 0 l 1
 273 0 l 1
 273 1552 l 1
 558 1552 l 1
 558 1305 l 1
 683 1305 l 2
 837 1305 955 1284 1030 1249 c 0
 1102 1212 1168 1153 1207 1083 c 0
 1248 1011 1268 931 1268 844 c 0
 1268 741 1242 645 1188 557 c 0
 1135 470 1060 401 963 354 c 0
 869 308 745 284 588 284 c 2
558 1064 m 1
 558 525 l 1
 593 525 l 2
 702 525 781 538 832 565 c 1
 832 564 l 1
 878 590 914 626 941 676 c 0
 970 728 983 782 983 838 c 0
 983 907 961 962 916 1000 c 0
 871 1043 772 1064 625 1064 c 2
 558 1064 l 1
EndSplineSet
EndChar

StartChar: germandbls
Encoding: 223 223 159
Width: 1229
GlyphClass: 2
Flags: MW
HStem: -28 21G<786 857.5> 0 21G<195 459 195 195> 1365 236<622.5 663.5>
VStem: 98 264
LayerCount: 2
Fore
SplineSet
459 0 m 1
 195 0 l 1
 195 1075 l 2
 195 1204 214 1303 253 1375 c 0
 293 1447 347 1503 418 1543 c 0
 490 1581 574 1601 671 1601 c 0
 802 1601 897 1569 958 1503 c 1
 958 1504 l 1
 1018 1442 1050 1373 1050 1300 c 0
 1050 1255 1037 1207 1011 1164 c 1
 1011 1165 l 1
 987 1126 940 1074 874 1017 c 2
 857 1002 l 1
 858 1002 l 1
 843 989 826 977 812 964 c 0
 803 957 792 946 778 932 c 2
 759 914 l 2
 744 901 737 888 737 877 c 0
 737 868 739 861 742 856 c 0
 745 851 766 834 794 812 c 2
 852 770 l 1
 851 771 l 1
 967 692 l 2
 1030 648 1092 591 1138 538 c 0
 1185 479 1214 404 1214 326 c 0
 1214 222 1173 136 1093 69 c 0
 1016 4 917 -28 798 -28 c 0
 774 -28 740 -28 711 -25 c 0
 679 -23 647 -20 632 -18 c 0
 614 -15 583 -9 515 12 c 1
 515 287 l 1
 641 232 690 221 740 213 c 0
 762 209 780 207 797 207 c 0
 822 207 849 213 879 222 c 0
 902 230 919 239 931 256 c 0
 941 272 949 291 949 307 c 0
 949 332 937 360 916 388 c 0
 889 419 838 461 776 503 c 1
 777 503 l 1
 666 576 l 2
 540 661 466 738 466 849 c 0
 466 893 477 932 497 971 c 0
 517 1007 565 1059 626 1117 c 2
 681 1167 l 2
 730 1213 771 1257 771 1295 c 0
 771 1314 760 1331 739 1341 c 0
 709 1357 678 1365 649 1365 c 0
 582 1365 522 1332 487 1265 c 0
 469 1231 459 1168 459 1075 c 2
 459 0 l 1
EndSplineSet
EndChar

StartChar: agrave
Encoding: 224 224 160
Width: 1229
GlyphClass: 2
Flags: MW
HStem: -28 21G<473 556.5> 0 21G<929 929 929 1185> 895 236<698.5 738 660.5 760> 1097 20G<913 1129 1129 1129> 1102 20G<871 876> 1111 20G<660.5 738>
VStem: 72 279 794 264
LayerCount: 2
Fore
SplineSet
929 0 m 1x45
 902 22 l 1x63
 891 64 883 106 876 154 c 1
 836 110 791 70 747 44 c 0
 667 -4 590 -28 523 -28 c 0
 423 -28 335 13 257 98 c 0
 180 180 143 303 143 466 c 0
 143 589 169 705 216 803 c 0
 262 896 334 985 412 1041 c 0
 496 1100 601 1131 720 1131 c 0x87
 756 1131 809 1128 871 1122 c 0x49
 881 1122 886 1121 892 1120 c 2
 913 1117 l 1
 1129 1117 l 1x51
 1129 347 l 2
 1129 230 1148 114 1185 0 c 1
 929 0 l 1x45
865 492 m 1
 865 882 l 1
 825 889 778 895 742 895 c 0
 655 895 573 853 515 790 c 1
 515 791 l 1
 457 718 422 614 422 489 c 0
 422 398 439 331 470 286 c 1
 469 287 l 1
 498 248 531 229 563 229 c 0
 605 229 653 251 709 298 c 0
 767 346 817 410 865 492 c 1
679 1610 m 1
 1042 1209 l 1
 755 1209 l 1
 333 1610 l 1
 679 1610 l 1
EndSplineSet
EndChar

StartChar: aacute
Encoding: 225 225 161
Width: 1229
GlyphClass: 2
Flags: MW
HStem: -28 21G<473 556.5> 0 21G<929 929 929 1185> 895 236<698.5 738 660.5 760> 1097 20G<913 1129 1129 1129> 1102 20G<871 876> 1111 20G<660.5 738>
VStem: 72 279 794 264
LayerCount: 2
Fore
SplineSet
929 0 m 1x45
 902 22 l 1x63
 891 64 883 106 876 154 c 1
 836 110 791 70 747 44 c 0
 667 -4 590 -28 523 -28 c 0
 423 -28 335 13 257 98 c 0
 180 180 143 303 143 466 c 0
 143 589 169 705 216 803 c 0
 262 896 334 985 412 1041 c 0
 496 1100 601 1131 720 1131 c 0x87
 756 1131 809 1128 871 1122 c 0x49
 881 1122 886 1121 892 1120 c 2
 913 1117 l 1
 1129 1117 l 1x51
 1129 347 l 2
 1129 230 1148 114 1185 0 c 1
 929 0 l 1x45
865 492 m 1
 865 882 l 1
 825 889 778 895 742 895 c 0
 655 895 573 853 515 790 c 1
 515 791 l 1
 457 718 422 614 422 489 c 0
 422 398 439 331 470 286 c 1
 469 287 l 1
 498 248 531 229 563 229 c 0
 605 229 653 251 709 298 c 0
 767 346 817 410 865 492 c 1
729 1209 m 1
 440 1209 l 1
 805 1610 l 1
 1150 1610 l 1
 729 1209 l 1
EndSplineSet
EndChar

StartChar: acircumflex
Encoding: 226 226 162
Width: 1229
GlyphClass: 2
Flags: MW
HStem: -28 21G<473 556.5> 0 21G<929 929 929 1185> 895 236<698.5 738 660.5 760> 1097 20G<913 1129 1129 1129> 1102 20G<871 876> 1111 20G<660.5 738>
VStem: 72 279 794 264
LayerCount: 2
Fore
SplineSet
929 0 m 1x45
 902 22 l 1x63
 891 64 883 106 876 154 c 1
 836 110 791 70 747 44 c 0
 667 -4 590 -28 523 -28 c 0
 423 -28 335 13 257 98 c 0
 180 180 143 303 143 466 c 0
 143 589 169 705 216 803 c 0
 262 896 334 985 412 1041 c 0
 496 1100 601 1131 720 1131 c 0x87
 756 1131 809 1128 871 1122 c 0x49
 881 1122 886 1121 892 1120 c 2
 913 1117 l 1
 1129 1117 l 1x51
 1129 347 l 2
 1129 230 1148 114 1185 0 c 1
 929 0 l 1x45
865 492 m 1
 865 882 l 1
 825 889 778 895 742 895 c 0
 655 895 573 853 515 790 c 1
 515 791 l 1
 457 718 422 614 422 489 c 0
 422 398 439 331 470 286 c 1
 469 287 l 1
 498 248 531 229 563 229 c 0
 605 229 653 251 709 298 c 0
 767 346 817 410 865 492 c 1
864 1209 m 1
 756 1340 l 1
 691 1261 l 1
 647 1209 l 1
 386 1209 l 1
 674 1610 l 1
 838 1610 l 1
 1126 1209 l 1
 864 1209 l 1
EndSplineSet
EndChar

StartChar: atilde
Encoding: 227 227 163
Width: 1229
GlyphClass: 2
Flags: MW
HStem: -28 21G<473 556.5> 0 21G<929 929 929 1185> 895 236<698.5 738 660.5 760> 1097 20G<913 1129 1129 1129> 1102 20G<871 876> 1111 20G<660.5 738>
VStem: 72 279 285 213 778 218 794 264
LayerCount: 2
Fore
SplineSet
929 0 m 1x4440
 902 22 l 1x6240
 891 64 883 106 876 154 c 1
 836 110 791 70 747 44 c 0
 667 -4 590 -28 523 -28 c 0
 423 -28 335 13 257 98 c 0
 180 180 143 303 143 466 c 0
 143 589 169 705 216 803 c 0
 262 896 334 985 412 1041 c 0
 496 1100 601 1131 720 1131 c 0x8640
 756 1131 809 1128 871 1122 c 0x4840
 881 1122 886 1121 892 1120 c 2
 913 1117 l 1
 1129 1117 l 1x5040
 1129 347 l 2
 1129 230 1148 114 1185 0 c 1
 929 0 l 1x4440
865 492 m 1
 865 882 l 1
 825 889 778 895 742 895 c 0
 655 895 573 853 515 790 c 1
 515 791 l 1
 457 718 422 614 422 489 c 0
 422 398 439 331 470 286 c 1
 469 287 l 1
 498 248 531 229 563 229 c 0
 605 229 653 251 709 298 c 0
 767 346 817 410 865 492 c 1
569 1209 m 1
 356 1209 l 1
 356 1439 450 1544 574 1544 c 0
 623 1544 671 1531 717 1499 c 1
 716 1500 l 1
 756 1476 l 2
 800 1448 828 1435 841 1435 c 0
 846 1435 849 1471 849 1544 c 1
 1067 1544 l 1
 1060 1442 1049 1374 1033 1338 c 1
 1034 1338 l 1
 1020 1304 992 1272 956 1246 c 0
 922 1221 883 1208 841 1208 c 0
 793 1208 736 1228 683 1261 c 2
 641 1288 l 1
 617 1304 l 2
 604 1313 591 1318 584 1318 c 0
 583 1318 577 1312 575 1310 c 0
 571 1303 569 1269 569 1209 c 1
EndSplineSet
EndChar

StartChar: adieresis
Encoding: 228 228 164
Width: 1229
GlyphClass: 2
Flags: MW
HStem: -28 21G<473 556.5> 0 21G<929 929 929 1185> 895 236<698.5 738 660.5 760> 1097 20G<913 1129 1129 1129> 1102 20G<871 876> 1111 20G<660.5 738>
VStem: 72 279 794 264
LayerCount: 2
Fore
SplineSet
929 0 m 1x45
 902 22 l 1x63
 891 64 883 106 876 154 c 1
 836 110 791 70 747 44 c 0
 667 -4 590 -28 523 -28 c 0
 423 -28 335 13 257 98 c 0
 180 180 143 303 143 466 c 0
 143 589 169 705 216 803 c 0
 262 896 334 985 412 1041 c 0
 496 1100 601 1131 720 1131 c 0x87
 756 1131 809 1128 871 1122 c 0x49
 881 1122 886 1121 892 1120 c 2
 913 1117 l 1
 1129 1117 l 1x51
 1129 347 l 2
 1129 230 1148 114 1185 0 c 1
 929 0 l 1x45
865 492 m 1
 865 882 l 1
 825 889 778 895 742 895 c 0
 655 895 573 853 515 790 c 1
 515 791 l 1
 457 718 422 614 422 489 c 0
 422 398 439 331 470 286 c 1
 469 287 l 1
 498 248 531 229 563 229 c 0
 605 229 653 251 709 298 c 0
 767 346 817 410 865 492 c 1
521 1209 m 0
 475 1209 438 1225 404 1256 c 0
 372 1288 356 1327 356 1373 c 0
 356 1421 372 1459 405 1489 c 0
 439 1521 476 1537 521 1537 c 0
 563 1537 602 1520 635 1489 c 0
 667 1459 684 1420 684 1373 c 0
 684 1326 668 1287 636 1256 c 0
 604 1225 565 1209 521 1209 c 0
929 1209 m 0
 884 1209 846 1225 812 1256 c 0
 780 1288 763 1326 763 1373 c 0
 763 1421 780 1459 812 1489 c 0
 846 1521 885 1537 929 1537 c 0
 972 1537 1010 1522 1043 1489 c 1
 1042 1489 l 1
 1077 1458 1092 1420 1092 1373 c 0
 1092 1327 1076 1288 1042 1256 c 0
 1011 1227 970 1209 929 1209 c 0
EndSplineSet
EndChar

StartChar: aring
Encoding: 229 229 165
Width: 1229
GlyphClass: 2
Flags: MW
HStem: -28 21G<473 556.5> 0 21G<929 929 929 1185> 895 236<698.5 738 660.5 760> 1097 20G<913 1129 1129 1129> 1102 20G<871 876> 1111 20G<660.5 738> 1209 182<698 720 698 740> 1471 182<698 720>
VStem: 72 279 415 183 677 183 794 264
LayerCount: 2
Fore
SplineSet
929 0 m 1x4710
 902 22 l 1x6390
 891 64 883 106 876 154 c 1
 836 110 791 70 747 44 c 0
 667 -4 590 -28 523 -28 c 0
 423 -28 335 13 257 98 c 0
 180 180 143 303 143 466 c 0
 143 589 169 705 216 803 c 0
 262 896 334 985 412 1041 c 0
 496 1100 601 1131 720 1131 c 0x8790
 756 1131 809 1128 871 1122 c 0x4b10
 881 1122 886 1121 892 1120 c 2
 913 1117 l 1
 1129 1117 l 1x5310
 1129 347 l 2
 1129 230 1148 114 1185 0 c 1
 929 0 l 1x4710
865 492 m 1
 865 882 l 1
 825 889 778 895 742 895 c 0
 655 895 573 853 515 790 c 1
 515 791 l 1
 457 718 422 614 422 489 c 0
 422 398 439 331 470 286 c 1
 469 287 l 1
 498 248 531 229 563 229 c 0
 605 229 653 251 709 298 c 0
 767 346 817 410 865 492 c 1
709 1391 m 0
 731 1391 748 1409 748 1431 c 0
 748 1453 731 1471 709 1471 c 0
 687 1471 669 1453 669 1431 c 0
 669 1409 687 1391 709 1391 c 0
709 1209 m 0
 647 1209 594 1231 551 1276 c 0
 508 1320 486 1372 486 1431 c 0
 486 1490 508 1542 552 1587 c 0
 596 1631 649 1653 709 1653 c 0
 771 1653 824 1631 867 1587 c 0
 910 1541 931 1489 931 1431 c 0
 931 1373 910 1321 867 1276 c 0
 824 1231 771 1209 709 1209 c 0
EndSplineSet
EndChar

StartChar: ae
Encoding: 230 230 166
Width: 1229
GlyphClass: 2
Flags: MW
HStem: -28 21G<331 411.5 845.5 934.5> 491 214<807 911 911 940 778 1177 778 807> 910 235<489 510.5 851 866.5> 1099 20G<635 635> 1125 20G<489 513 851 909.5>
VStem: 37 264 506 265 771 104 875 266
LayerCount: 2
Fore
SplineSet
639 81 m 0xce80
 624 98 611 115 599 139 c 1
 533 27 450 -28 373 -28 c 0
 289 -28 213 28 155 127 c 0
 104 220 73 349 73 490 c 0
 68 881 271 1148 489 1145 c 0xce80
 537 1145 596 1134 637 1118 c 1
 635 1119 l 1
 652 1113 670 1106 694 1090 c 1xd680
 731 1115 763 1129 788 1136 c 0
 814 1143 839 1145 863 1145 c 0
 956 1145 1033 1101 1092 1021 c 0
 1146 942 1177 790 1177 583 c 2
 1177 491 l 1
 807 491 l 1
 807 461 l 2
 807 376 812 318 824 286 c 0
 833 258 849 238 867 225 c 1
 866 226 l 1
 884 214 904 207 925 207 c 0
 979 207 1063 245 1177 319 c 1
 1177 47 l 1
 1066 -5 972 -28 897 -28 c 0
 794 -28 704 8 639 81 c 0xce80
542 485 m 1
 542 900 l 1
 530 906 516 910 505 910 c 0xe680
 457 910 416 867 387 790 c 0
 355 696 337 586 337 471 c 0
 337 404 347 348 365 301 c 1
 365 302 l 1
 375 274 385 260 395 257 c 1
 440 267 491 343 542 485 c 1
911 687 m 1
 911 677 l 1
 940 705 l 1
 911 705 l 1
 911 687 l 1
807 677 m 1
 807 687 l 1
 807 705 l 1
 778 705 l 1xcd
 807 677 l 1
861 910 m 0
 827 910 808 842 807 705 c 1
 911 705 l 1
 910 795 905 856 891 883 c 0
 883 901 872 910 861 910 c 0
EndSplineSet
EndChar

StartChar: ccedilla
Encoding: 231 231 167
Width: 1229
GlyphClass: 2
Flags: MW
HStem: -399 21G<763 826.5> -44 21G<868 868> -29 21G<875 875> -11 21G<681 681> 910 235<811 877 749.5 883> 1125 20G<749.5 877>
VStem: 130 279 469 17
LayerCount: 2
Fore
SplineSet
790 -213 m 1xd5
 788 -200 729 -188 615 -175 c 1
 682 -209 727 -226 753 -226 c 0
 764 -226 775 -222 783 -216 c 0
 786 -214 789 -212 790 -213 c 1xd5
875 -29 m 1xab
 868 -44 l 1
 912 -59 946 -79 965 -104 c 0
 989 -139 1005 -179 1005 -218 c 0
 1005 -264 986 -306 951 -343 c 0
 915 -381 862 -399 791 -399 c 0
 735 -399 671 -385 598 -359 c 1
 598 -173 l 1
 594 -173 l 1
 681 -11 l 1
 600 9 531 42 474 86 c 0xd7
 404 141 350 208 313 283 c 0
 277 359 259 447 259 548 c 0
 259 721 320 872 428 980 c 1
 540 1085 676 1145 823 1145 c 0
 931 1145 1059 1121 1205 1071 c 1
 1205 803 l 1
 1049 873 928 910 838 910 c 0
 784 910 733 896 685 868 c 0
 638 844 603 802 578 746 c 0
 550 688 538 626 538 565 c 0
 538 483 567 399 615 326 c 1
 663 261 745 222 849 222 c 0
 880 222 917 225 952 230 c 0
 988 234 1076 261 1205 305 c 1
 1205 44 l 1
 1092 4 984 -21 875 -29 c 1xab
EndSplineSet
EndChar

StartChar: egrave
Encoding: 232 232 168
Width: 1229
GlyphClass: 2
Flags: MW
HStem: -29 21G<627.5 793> -29 236<725.5 793> 484 221<495 897 897 927 495 1177 474 897> 910 235<676.5 747.5> 1125 20G<676.5 794.5>
VStem: 98 982
LayerCount: 2
Fore
SplineSet
1162 351 m 1xac
 1162 84 l 1
 1002 9 857 -29 729 -29 c 0
 526 -29 362 75 264 261 c 0
 219 352 195 452 195 556 c 0
 195 656 218 753 261 847 c 0
 305 938 374 1014 453 1066 c 0
 534 1118 626 1145 727 1145 c 0
 862 1145 972 1094 1055 998 c 0
 1133 903 1177 754 1177 568 c 2
 1177 484 l 1
 474 484 l 1
 480 439 493 394 511 357 c 1
 510 358 l 1
 536 310 572 270 611 245 c 0
 651 221 700 207 751 207 c 0x6c
 852 207 989 255 1162 351 c 1xac
898 682 m 2
 898 677 l 1
 927 705 l 1
 897 705 l 1xb4
 898 698 898 690 898 682 c 2
495 705 m 1
 897 705 l 1
 894 767 878 816 848 852 c 0
 817 891 775 910 720 910 c 0
 621 910 538 833 495 705 c 1
717 1610 m 1
 1080 1209 l 1
 793 1209 l 1
 371 1610 l 1
 717 1610 l 1
EndSplineSet
EndChar

StartChar: eacute
Encoding: 233 233 169
Width: 1229
GlyphClass: 2
Flags: MW
HStem: -29 21G<627.5 793> -29 236<725.5 793> 484 221<495 897 897 927 495 1177 474 897> 910 235<676.5 747.5> 1125 20G<676.5 794.5>
VStem: 98 982
LayerCount: 2
Fore
SplineSet
1162 351 m 1xac
 1162 84 l 1
 1002 9 857 -29 729 -29 c 0
 526 -29 362 75 264 261 c 0
 219 352 195 452 195 556 c 0
 195 656 218 753 261 847 c 0
 305 938 374 1014 453 1066 c 0
 534 1118 626 1145 727 1145 c 0
 862 1145 972 1094 1055 998 c 0
 1133 903 1177 754 1177 568 c 2
 1177 484 l 1
 474 484 l 1
 480 439 493 394 511 357 c 1
 510 358 l 1
 536 310 572 270 611 245 c 0
 651 221 700 207 751 207 c 0x6c
 852 207 989 255 1162 351 c 1xac
898 682 m 2
 898 677 l 1
 927 705 l 1
 897 705 l 1xb4
 898 698 898 690 898 682 c 2
495 705 m 1
 897 705 l 1
 894 767 878 816 848 852 c 0
 817 891 775 910 720 910 c 0
 621 910 538 833 495 705 c 1
720 1209 m 1
 431 1209 l 1
 796 1610 l 1
 1141 1610 l 1
 720 1209 l 1
EndSplineSet
EndChar

StartChar: ecircumflex
Encoding: 234 234 170
Width: 1229
GlyphClass: 2
Flags: MW
HStem: -29 21G<627.5 793> -29 236<725.5 793> 484 221<495 897 897 927 495 1177 474 897> 910 235<676.5 747.5> 1125 20G<676.5 794.5>
VStem: 98 982
LayerCount: 2
Fore
SplineSet
1162 351 m 1xac
 1162 84 l 1
 1002 9 857 -29 729 -29 c 0
 526 -29 362 75 264 261 c 0
 219 352 195 452 195 556 c 0
 195 656 218 753 261 847 c 0
 305 938 374 1014 453 1066 c 0
 534 1118 626 1145 727 1145 c 0
 862 1145 972 1094 1055 998 c 0
 1133 903 1177 754 1177 568 c 2
 1177 484 l 1
 474 484 l 1
 480 439 493 394 511 357 c 1
 510 358 l 1
 536 310 572 270 611 245 c 0
 651 221 700 207 751 207 c 0x6c
 852 207 989 255 1162 351 c 1xac
898 682 m 2
 898 677 l 1
 927 705 l 1
 897 705 l 1xb4
 898 698 898 690 898 682 c 2
495 705 m 1
 897 705 l 1
 894 767 878 816 848 852 c 0
 817 891 775 910 720 910 c 0
 621 910 538 833 495 705 c 1
840 1209 m 1
 732 1340 l 1
 667 1261 l 1
 623 1209 l 1
 362 1209 l 1
 650 1610 l 1
 814 1610 l 1
 1102 1209 l 1
 840 1209 l 1
EndSplineSet
EndChar

StartChar: edieresis
Encoding: 235 235 171
Width: 1229
GlyphClass: 2
Flags: MW
HStem: -29 21G<627.5 793> -29 236<725.5 793> 484 221<495 897 897 927 495 1177 474 897> 910 235<676.5 747.5> 1125 20G<676.5 794.5>
VStem: 98 982
LayerCount: 2
Fore
SplineSet
1162 351 m 1xac
 1162 84 l 1
 1002 9 857 -29 729 -29 c 0
 526 -29 362 75 264 261 c 0
 219 352 195 452 195 556 c 0
 195 656 218 753 261 847 c 0
 305 938 374 1014 453 1066 c 0
 534 1118 626 1145 727 1145 c 0
 862 1145 972 1094 1055 998 c 0
 1133 903 1177 754 1177 568 c 2
 1177 484 l 1
 474 484 l 1
 480 439 493 394 511 357 c 1
 510 358 l 1
 536 310 572 270 611 245 c 0
 651 221 700 207 751 207 c 0x6c
 852 207 989 255 1162 351 c 1xac
898 682 m 2
 898 677 l 1
 927 705 l 1
 897 705 l 1xb4
 898 698 898 690 898 682 c 2
495 705 m 1
 897 705 l 1
 894 767 878 816 848 852 c 0
 817 891 775 910 720 910 c 0
 621 910 538 833 495 705 c 1
543 1209 m 0
 497 1209 460 1225 426 1256 c 0
 394 1288 378 1327 378 1373 c 0
 378 1421 394 1459 427 1489 c 0
 461 1521 498 1537 543 1537 c 0
 585 1537 624 1520 657 1489 c 0
 689 1459 706 1420 706 1373 c 0
 706 1326 690 1287 658 1256 c 0
 626 1225 587 1209 543 1209 c 0
951 1209 m 0
 906 1209 868 1225 834 1256 c 0
 802 1288 785 1326 785 1373 c 0
 785 1421 802 1459 834 1489 c 0
 868 1521 907 1537 951 1537 c 0
 994 1537 1032 1522 1065 1489 c 1
 1064 1489 l 1
 1099 1458 1114 1420 1114 1373 c 0
 1114 1327 1098 1288 1064 1256 c 0
 1033 1227 992 1209 951 1209 c 0
EndSplineSet
EndChar

StartChar: igrave
Encoding: 236 236 172
Width: 1229
GlyphClass: 2
Flags: MW
HStem: 0 235<787 1073 787 1073> 882 235<239 523 239 787>
VStem: 404 264
LayerCount: 2
Fore
SplineSet
1073 0 m 1
 523 0 l 1
 523 882 l 1
 239 882 l 1
 239 1117 l 1
 787 1117 l 1
 787 235 l 1
 1073 235 l 1
 1073 0 l 1
653 1610 m 1
 1016 1209 l 1
 729 1209 l 1
 307 1610 l 1
 653 1610 l 1
EndSplineSet
EndChar

StartChar: iacute
Encoding: 237 237 173
Width: 1229
GlyphClass: 2
Flags: MW
HStem: 0 235<787 1073 787 1073> 882 235<239 523 239 787>
VStem: 404 264
LayerCount: 2
Fore
SplineSet
1073 0 m 1
 523 0 l 1
 523 882 l 1
 239 882 l 1
 239 1117 l 1
 787 1117 l 1
 787 235 l 1
 1073 235 l 1
 1073 0 l 1
610 1209 m 1
 321 1209 l 1
 686 1610 l 1
 1031 1610 l 1
 610 1209 l 1
EndSplineSet
EndChar

StartChar: icircumflex
Encoding: 238 238 174
Width: 1229
GlyphClass: 2
Flags: MW
HStem: 0 235<787 1073 787 1073> 882 235<239 523 239 787>
VStem: 404 264
LayerCount: 2
Fore
SplineSet
1073 0 m 1
 523 0 l 1
 523 882 l 1
 239 882 l 1
 239 1117 l 1
 787 1117 l 1
 787 235 l 1
 1073 235 l 1
 1073 0 l 1
777 1209 m 1
 669 1340 l 1
 604 1261 l 1
 560 1209 l 1
 299 1209 l 1
 587 1610 l 1
 751 1610 l 1
 1039 1209 l 1
 777 1209 l 1
EndSplineSet
EndChar

StartChar: idieresis
Encoding: 239 239 175
Width: 1229
GlyphClass: 2
Flags: MW
HStem: 0 235<787 1073 787 1073> 882 235<239 523 239 787>
VStem: 404 264
LayerCount: 2
Fore
SplineSet
1073 0 m 1
 523 0 l 1
 523 882 l 1
 239 882 l 1
 239 1117 l 1
 787 1117 l 1
 787 235 l 1
 1073 235 l 1
 1073 0 l 1
465 1209 m 0
 419 1209 382 1225 348 1256 c 0
 316 1288 300 1327 300 1373 c 0
 300 1421 316 1459 349 1489 c 0
 383 1521 420 1537 465 1537 c 0
 507 1537 546 1520 579 1489 c 0
 611 1459 628 1420 628 1373 c 0
 628 1326 612 1287 580 1256 c 0
 548 1225 509 1209 465 1209 c 0
873 1209 m 0
 828 1209 790 1225 756 1256 c 0
 724 1288 707 1326 707 1373 c 0
 707 1421 724 1459 756 1489 c 0
 790 1521 829 1537 873 1537 c 0
 916 1537 954 1522 987 1489 c 1
 986 1489 l 1
 1021 1458 1036 1420 1036 1373 c 0
 1036 1327 1020 1288 986 1256 c 0
 955 1227 914 1209 873 1209 c 0
EndSplineSet
EndChar

StartChar: eth
Encoding: 240 240 176
Width: 1229
GlyphClass: 2
Flags: MW
HStem: -28 21G<564.5 728.5> -28 235<609 683 609 728.5> 1336 237<193 263 193 271>
VStem: 58 271 58 1060 848 270
LayerCount: 2
Fore
SplineSet
748 1075 m 1xa8
 749 1075 l 2
 760 1072 772 1070 786 1064 c 1
 780 1073 773 1084 767 1092 c 1
 768 1092 l 1
 740 1130 699 1174 644 1218 c 1
 613 1190 583 1164 554 1136 c 2
 473 1064 l 1
 524 1080 576 1089 629 1089 c 0
 667 1089 706 1084 748 1075 c 1xa8
371 1019 m 1
 415 1041 l 1
 275 1202 l 1
 408 1322 l 1
 360 1331 313 1336 263 1336 c 2
 193 1336 l 1
 193 1573 l 1
 271 1573 l 2
 347 1573 414 1569 470 1562 c 0
 519 1556 575 1543 631 1521 c 1
 841 1711 l 1
 999 1534 l 1
 841 1393 l 1
 916 1327 974 1261 1019 1190 c 0
 1067 1111 1109 1012 1135 913 c 0
 1162 813 1175 706 1175 608 c 0
 1175 419 1131 266 1039 150 c 1
 1039 151 l 1
 946 31 814 -28 643 -28 c 0
 486 -28 357 25 259 132 c 0
 164 239 115 374 115 538 c 0xb4
 115 758 212 927 371 1019 c 1
646 207 m 0
 720 207 782 238 831 295 c 1
 831 294 l 1
 878 353 905 437 905 531 c 0
 905 627 880 706 831 766 c 0
 783 824 722 853 646 853 c 0
 570 853 508 824 461 766 c 0
 411 706 386 626 386 531 c 0
 386 437 413 353 461 294 c 1
 461 295 l 1
 509 238 572 207 646 207 c 0
EndSplineSet
EndChar

StartChar: ntilde
Encoding: 241 241 177
Width: 1229
GlyphClass: 2
Flags: MW
HStem: 0 21G<245 509 245 245 927 927 927 1191> 1097 20G<245 509 509 509> 1125 20G<806.5 881>
VStem: 123 264 258 213 751 218 805 264
LayerCount: 2
Fore
SplineSet
509 0 m 1xb2
 245 0 l 1
 245 1117 l 1
 509 1117 l 1xf2
 509 984 l 1
 541 1017 577 1048 614 1071 c 0
 690 1121 767 1145 846 1145 c 0
 916 1145 979 1127 1036 1089 c 0
 1094 1052 1136 1000 1159 940 c 0
 1180 884 1191 774 1191 619 c 2
 1191 0 l 1
 927 0 l 1
 927 640 l 2
 927 733 922 793 915 821 c 1
 915 820 l 1
 908 842 896 860 878 874 c 0
 860 888 843 895 825 895 c 0
 776 895 721 870 661 821 c 0
 600 771 550 708 509 633 c 1
 509 0 l 1xb2
593 1209 m 1
 380 1209 l 1xb2
 380 1439 474 1544 598 1544 c 0
 647 1544 695 1531 741 1499 c 1
 740 1500 l 1
 780 1476 l 2
 824 1448 852 1435 865 1435 c 0
 870 1435 873 1471 873 1544 c 1
 1091 1544 l 1
 1084 1442 1073 1374 1057 1338 c 1
 1058 1338 l 1
 1044 1304 1016 1272 980 1246 c 0
 946 1221 907 1208 865 1208 c 0
 817 1208 760 1228 707 1261 c 2
 665 1288 l 1
 641 1304 l 2
 628 1313 615 1318 608 1318 c 0
 607 1318 601 1312 599 1310 c 0
 595 1303 593 1269 593 1209 c 1
EndSplineSet
EndChar

StartChar: ograve
Encoding: 242 242 178
Width: 1229
GlyphClass: 2
Flags: MW
HStem: -28 21G<565 726.5> -28 235<608.5 684 608.5 726.5> 910 235<608.5 684> 1125 20G<565.5 726.5>
VStem: 58 279 58 1060 840 278
LayerCount: 2
Fore
SplineSet
646 -28 m 0x94
 484 -28 356 28 258 140 c 0
 163 251 115 391 115 559 c 0
 115 727 163 867 258 977 c 0
 356 1089 485 1145 646 1145 c 0
 807 1145 935 1089 1033 977 c 0
 1128 867 1175 727 1175 559 c 0x9a
 1175 391 1128 251 1033 140 c 0
 935 28 807 -28 646 -28 c 0x94
646 207 m 0x6a
 722 207 781 236 826 295 c 0
 873 358 897 446 897 559 c 0
 897 671 873 759 826 822 c 0
 781 881 722 910 646 910 c 0
 571 910 510 881 465 822 c 0
 418 759 394 671 394 559 c 0
 394 446 418 358 465 295 c 0
 510 236 571 207 646 207 c 0x6a
638 1610 m 1
 1001 1209 l 1
 714 1209 l 1
 292 1610 l 1
 638 1610 l 1
EndSplineSet
EndChar

StartChar: oacute
Encoding: 243 243 179
Width: 1229
GlyphClass: 2
Flags: MW
HStem: -28 21G<565 726.5> -28 235<608.5 684 608.5 726.5> 910 235<608.5 684> 1125 20G<565.5 726.5>
VStem: 58 279 58 1060 840 278
LayerCount: 2
Fore
SplineSet
646 -28 m 0x94
 484 -28 356 28 258 140 c 0
 163 251 115 391 115 559 c 0
 115 727 163 867 258 977 c 0
 356 1089 485 1145 646 1145 c 0
 807 1145 935 1089 1033 977 c 0
 1128 867 1175 727 1175 559 c 0x9a
 1175 391 1128 251 1033 140 c 0
 935 28 807 -28 646 -28 c 0x94
646 207 m 0x6a
 722 207 781 236 826 295 c 0
 873 358 897 446 897 559 c 0
 897 671 873 759 826 822 c 0
 781 881 722 910 646 910 c 0
 571 910 510 881 465 822 c 0
 418 759 394 671 394 559 c 0
 394 446 418 358 465 295 c 0
 510 236 571 207 646 207 c 0x6a
595 1209 m 1
 306 1209 l 1
 671 1610 l 1
 1016 1610 l 1
 595 1209 l 1
EndSplineSet
EndChar

StartChar: ocircumflex
Encoding: 244 244 180
Width: 1229
GlyphClass: 2
Flags: MW
HStem: -28 21G<565 726.5> -28 235<608.5 684 608.5 726.5> 910 235<608.5 684> 1125 20G<565.5 726.5>
VStem: 58 279 58 1060 840 278
LayerCount: 2
Fore
SplineSet
646 -28 m 0x94
 484 -28 356 28 258 140 c 0
 163 251 115 391 115 559 c 0
 115 727 163 867 258 977 c 0
 356 1089 485 1145 646 1145 c 0
 807 1145 935 1089 1033 977 c 0
 1128 867 1175 727 1175 559 c 0x9a
 1175 391 1128 251 1033 140 c 0
 935 28 807 -28 646 -28 c 0x94
646 207 m 0x6a
 722 207 781 236 826 295 c 0
 873 358 897 446 897 559 c 0
 897 671 873 759 826 822 c 0
 781 881 722 910 646 910 c 0
 571 910 510 881 465 822 c 0
 418 759 394 671 394 559 c 0
 394 446 418 358 465 295 c 0
 510 236 571 207 646 207 c 0x6a
761 1209 m 1
 653 1340 l 1
 588 1261 l 1
 544 1209 l 1
 283 1209 l 1
 571 1610 l 1
 735 1610 l 1
 1023 1209 l 1
 761 1209 l 1
EndSplineSet
EndChar

StartChar: otilde
Encoding: 245 245 181
Width: 1229
GlyphClass: 2
Flags: MW
HStem: -28 21G<565 726.5> -28 235<608.5 684 608.5 726.5> 910 235<608.5 684> 1125 20G<565.5 726.5>
VStem: 58 279 242 213 735 218 840 278
LayerCount: 2
Fore
SplineSet
646 -28 m 0x95
 484 -28 356 28 258 140 c 0
 163 251 115 391 115 559 c 0x99
 115 727 163 867 258 977 c 0
 356 1089 485 1145 646 1145 c 0
 807 1145 935 1089 1033 977 c 0
 1128 867 1175 727 1175 559 c 0
 1175 391 1128 251 1033 140 c 0
 935 28 807 -28 646 -28 c 0x95
646 207 m 0x69
 722 207 781 236 826 295 c 0
 873 358 897 446 897 559 c 0
 897 671 873 759 826 822 c 0
 781 881 722 910 646 910 c 0
 571 910 510 881 465 822 c 0
 418 759 394 671 394 559 c 0
 394 446 418 358 465 295 c 0
 510 236 571 207 646 207 c 0x69
512 1209 m 1x96
 299 1209 l 1
 299 1439 393 1544 517 1544 c 0
 566 1544 614 1531 660 1499 c 1
 659 1500 l 1
 699 1476 l 2
 743 1448 771 1435 784 1435 c 0
 789 1435 792 1471 792 1544 c 1
 1010 1544 l 1
 1003 1442 992 1374 976 1338 c 1
 977 1338 l 1
 963 1304 935 1272 899 1246 c 0
 865 1221 826 1208 784 1208 c 0
 736 1208 679 1228 626 1261 c 2
 584 1288 l 1
 560 1304 l 2
 547 1313 534 1318 527 1318 c 0
 526 1318 520 1312 518 1310 c 0
 514 1303 512 1269 512 1209 c 1x96
EndSplineSet
EndChar

StartChar: odieresis
Encoding: 246 246 182
Width: 1229
GlyphClass: 2
Flags: MW
HStem: -28 21G<565 726.5> -28 235<608.5 684 608.5 726.5> 910 235<608.5 684> 1125 20G<565.5 726.5>
VStem: 58 279 58 1060 840 278
LayerCount: 2
Fore
SplineSet
646 -28 m 0x94
 484 -28 356 28 258 140 c 0
 163 251 115 391 115 559 c 0
 115 727 163 867 258 977 c 0
 356 1089 485 1145 646 1145 c 0
 807 1145 935 1089 1033 977 c 0
 1128 867 1175 727 1175 559 c 0x9a
 1175 391 1128 251 1033 140 c 0
 935 28 807 -28 646 -28 c 0x94
646 207 m 0x6a
 722 207 781 236 826 295 c 0
 873 358 897 446 897 559 c 0
 897 671 873 759 826 822 c 0
 781 881 722 910 646 910 c 0
 571 910 510 881 465 822 c 0
 418 759 394 671 394 559 c 0
 394 446 418 358 465 295 c 0
 510 236 571 207 646 207 c 0x6a
449 1209 m 0
 403 1209 366 1225 332 1256 c 0
 300 1288 284 1327 284 1373 c 0
 284 1421 300 1459 333 1489 c 0
 367 1521 404 1537 449 1537 c 0
 491 1537 530 1520 563 1489 c 0
 595 1459 612 1420 612 1373 c 0
 612 1326 596 1287 564 1256 c 0
 532 1225 493 1209 449 1209 c 0
857 1209 m 0
 812 1209 774 1225 740 1256 c 0
 708 1288 691 1326 691 1373 c 0
 691 1421 708 1459 740 1489 c 0
 774 1521 813 1537 857 1537 c 0
 900 1537 938 1522 971 1489 c 1
 970 1489 l 1
 1005 1458 1020 1420 1020 1373 c 0
 1020 1327 1004 1288 970 1256 c 0
 939 1227 898 1209 857 1209 c 0
EndSplineSet
EndChar

StartChar: divide
Encoding: 247 247 183
Width: 1229
GlyphClass: 2
Flags: MW
HStem: 436 242<73 1188 73 1188>
VStem: 37 1115
LayerCount: 2
Fore
SplineSet
631 729 m 0
 583 729 540 746 504 783 c 0
 467 819 449 862 449 910 c 0
 449 959 466 1001 503 1039 c 0
 539 1075 582 1093 631 1093 c 0
 679 1093 721 1075 758 1039 c 0
 795 1001 814 959 814 910 c 0
 814 861 795 818 758 782 c 1
 758 783 l 1
 721 746 679 729 631 729 c 0
73 678 m 1
 1188 678 l 1
 1188 436 l 1
 73 436 l 1
 73 678 l 1
631 21 m 0
 583 21 540 39 504 76 c 0
 467 113 449 155 449 204 c 0
 449 255 469 298 504 332 c 0
 539 368 583 386 631 386 c 0
 679 386 722 368 758 332 c 0
 793 297 814 253 814 204 c 0
 814 154 795 112 758 75 c 1
 758 76 l 1
 721 39 679 21 631 21 c 0
EndSplineSet
EndChar

StartChar: oslash
Encoding: 248 248 184
Width: 1229
GlyphClass: 2
Flags: MW
HStem: -28 21G<582.5 691.5> -28 235<582.5 641 580.5 691.5> 910 235<564 622.5> 1125 20G<516 635>
VStem: 16 1144 58 279 840 278
LayerCount: 2
Fore
SplineSet
359 27 m 1x98
 281 -85 l 1
 31 -85 l 1
 199 164 l 1
 112 283 73 410 73 564 c 0
 73 724 119 860 206 971 c 0
 298 1087 430 1145 602 1145 c 0
 668 1145 737 1135 791 1118 c 0
 810 1110 829 1103 850 1092 c 1
 926 1202 l 1
 1175 1202 l 1
 1007 960 l 1
 1083 846 1133 700 1133 559 c 0x96
 1133 403 1090 268 1003 152 c 0
 913 32 780 -28 603 -28 c 0
 562 -28 519 -25 482 -18 c 0
 451 -14 406 2 359 27 c 1x98
369 407 m 1
 708 892 l 1
 675 904 641 910 604 910 c 0
 524 910 461 881 419 822 c 1
 419 823 l 1x66
 375 760 352 673 352 564 c 0
 352 509 357 457 369 407 c 1
837 714 m 1
 498 228 l 1
 532 214 566 207 595 207 c 0
 687 207 754 241 792 298 c 1
 791 297 l 1
 833 366 855 453 855 554 c 0
 855 610 848 662 837 714 c 1
EndSplineSet
EndChar

StartChar: ugrave
Encoding: 249 249 185
Width: 1229
GlyphClass: 2
Flags: MW
HStem: -28 21G<527 620.5> 0 21G<900 1164 900 900> 1097 20G<217 481 481 481 900 1164 1164 1164>
VStem: 109 264 792 264
LayerCount: 2
Fore
SplineSet
900 1117 m 1
 1164 1117 l 1
 1164 0 l 1
 900 0 l 1
 900 135 l 1
 798 25 679 -28 562 -28 c 0
 492 -28 429 -11 371 27 c 0
 314 65 273 114 249 177 c 0
 229 233 217 342 217 498 c 2
 217 1117 l 1
 481 1117 l 1
 481 477 l 2
 481 383 486 323 493 295 c 1
 493 296 l 1
 500 274 512 256 529 242 c 1
 529 243 l 1
 547 229 565 222 584 222 c 0
 630 222 684 248 746 296 c 1
 746 295 l 1
 807 346 859 409 900 484 c 1
 900 1117 l 1
690 1610 m 1
 1053 1209 l 1
 766 1209 l 1
 344 1610 l 1
 690 1610 l 1
EndSplineSet
EndChar

StartChar: uacute
Encoding: 250 250 186
Width: 1229
GlyphClass: 2
Flags: MW
HStem: -28 21G<527 620.5> 0 21G<900 1164 900 900> 1097 20G<217 481 481 481 900 1164 1164 1164>
VStem: 109 264 792 264
LayerCount: 2
Fore
SplineSet
900 1117 m 1
 1164 1117 l 1
 1164 0 l 1
 900 0 l 1
 900 135 l 1
 798 25 679 -28 562 -28 c 0
 492 -28 429 -11 371 27 c 0
 314 65 273 114 249 177 c 0
 229 233 217 342 217 498 c 2
 217 1117 l 1
 481 1117 l 1
 481 477 l 2
 481 383 486 323 493 295 c 1
 493 296 l 1
 500 274 512 256 529 242 c 1
 529 243 l 1
 547 229 565 222 584 222 c 0
 630 222 684 248 746 296 c 1
 746 295 l 1
 807 346 859 409 900 484 c 1
 900 1117 l 1
694 1209 m 1
 405 1209 l 1
 770 1610 l 1
 1115 1610 l 1
 694 1209 l 1
EndSplineSet
EndChar

StartChar: ucircumflex
Encoding: 251 251 187
Width: 1229
GlyphClass: 2
Flags: MW
HStem: -28 21G<527 620.5> 0 21G<900 1164 900 900> 1097 20G<217 481 481 481 900 1164 1164 1164>
VStem: 109 264 792 264
LayerCount: 2
Fore
SplineSet
900 1117 m 1
 1164 1117 l 1
 1164 0 l 1
 900 0 l 1
 900 135 l 1
 798 25 679 -28 562 -28 c 0
 492 -28 429 -11 371 27 c 0
 314 65 273 114 249 177 c 0
 229 233 217 342 217 498 c 2
 217 1117 l 1
 481 1117 l 1
 481 477 l 2
 481 383 486 323 493 295 c 1
 493 296 l 1
 500 274 512 256 529 242 c 1
 529 243 l 1
 547 229 565 222 584 222 c 0
 630 222 684 248 746 296 c 1
 746 295 l 1
 807 346 859 409 900 484 c 1
 900 1117 l 1
814 1209 m 1
 706 1340 l 1
 641 1261 l 1
 597 1209 l 1
 336 1209 l 1
 624 1610 l 1
 788 1610 l 1
 1076 1209 l 1
 814 1209 l 1
EndSplineSet
EndChar

StartChar: udieresis
Encoding: 252 252 188
Width: 1229
GlyphClass: 2
Flags: MW
HStem: -28 21G<527 620.5> 0 21G<900 1164 900 900> 1097 20G<217 481 481 481 900 1164 1164 1164>
VStem: 109 264 792 264
LayerCount: 2
Fore
SplineSet
900 1117 m 1
 1164 1117 l 1
 1164 0 l 1
 900 0 l 1
 900 135 l 1
 798 25 679 -28 562 -28 c 0
 492 -28 429 -11 371 27 c 0
 314 65 273 114 249 177 c 0
 229 233 217 342 217 498 c 2
 217 1117 l 1
 481 1117 l 1
 481 477 l 2
 481 383 486 323 493 295 c 1
 493 296 l 1
 500 274 512 256 529 242 c 1
 529 243 l 1
 547 229 565 222 584 222 c 0
 630 222 684 248 746 296 c 1
 746 295 l 1
 807 346 859 409 900 484 c 1
 900 1117 l 1
502 1209 m 0
 456 1209 419 1225 385 1256 c 0
 353 1288 337 1327 337 1373 c 0
 337 1421 353 1459 386 1489 c 0
 420 1521 457 1537 502 1537 c 0
 544 1537 583 1520 616 1489 c 0
 648 1459 665 1420 665 1373 c 0
 665 1326 649 1287 617 1256 c 0
 585 1225 546 1209 502 1209 c 0
910 1209 m 0
 865 1209 827 1225 793 1256 c 0
 761 1288 744 1326 744 1373 c 0
 744 1421 761 1459 793 1489 c 0
 827 1521 866 1537 910 1537 c 0
 953 1537 991 1522 1024 1489 c 1
 1023 1489 l 1
 1058 1458 1073 1420 1073 1373 c 0
 1073 1327 1057 1288 1023 1256 c 0
 992 1227 951 1209 910 1209 c 0
EndSplineSet
EndChar

StartChar: yacute
Encoding: 253 253 189
Width: 1229
GlyphClass: 2
Flags: MW
HStem: -427 21G<197 290> -427 235<201.5 268 201.5 290> -404 21G<39 39> 1097 20G<28 320 320 320 950 1224 1224 1224>
VStem: 14 1196
LayerCount: 2
Fore
SplineSet
515 65 m 1x38
 525 85 l 1
 369 408 181 796 28 1117 c 1
 320 1117 l 1
 662 418 l 1
 709 532 755 641 801 754 c 0
 847 867 904 1005 950 1117 c 1
 1224 1117 l 1
 800 101 l 2
 720 -88 624 -245 549 -317 c 1
 464 -388 355 -427 225 -427 c 0x98
 169 -427 107 -419 39 -404 c 1x38
 39 -153 l 1
 122 -178 182 -192 221 -192 c 0x58
 315 -192 385 -160 445 -67 c 0
 478 -17 501 28 515 65 c 1x38
646 1209 m 1
 357 1209 l 1
 722 1610 l 1
 1067 1610 l 1
 646 1209 l 1
EndSplineSet
EndChar

StartChar: thorn
Encoding: 254 254 190
Width: 1229
GlyphClass: 2
Flags: MW
HStem: -398 21G<209 473 209 209> -14 21G<599.5 663.5> -14 236<599.5 639 578 663.5> -6 21G<473 473> 1125 20G<778.5 864>
VStem: 105 264 812 279
LayerCount: 2
Fore
SplineSet
473 1516 m 1x9c
 473 979 l 1
 509 1018 549 1050 590 1073 c 1
 589 1073 l 1
 668 1122 743 1145 814 1145 c 0
 914 1145 1001 1103 1080 1019 c 0
 1156 937 1195 814 1195 651 c 0
 1195 462 1140 303 1032 174 c 0
 979 114 922 66 856 34 c 0
 790 2 711 -14 616 -14 c 0xce
 583 -14 534 -11 473 -6 c 1
 473 -398 l 1
 209 -398 l 1
 209 1516 l 1
 473 1516 l 1x9c
473 625 m 1
 473 235 l 1
 513 228 560 222 596 222 c 0xac
 682 222 761 264 822 327 c 1
 821 326 l 1
 881 398 916 503 916 628 c 0
 916 719 899 788 867 830 c 0
 838 868 807 888 774 888 c 0
 735 888 680 861 628 819 c 1
 629 819 l 1
 571 770 520 708 473 625 c 1
EndSplineSet
EndChar

StartChar: Ydieresis
Encoding: 255 255 191
Width: 1229
GlyphClass: 2
Flags: MW
HStem: -427 21G<197 290> -427 235<201.5 268 201.5 290> -404 21G<39 39> 1097 20G<28 320 320 320 950 1224 1224 1224>
VStem: 14 1196
LayerCount: 2
Fore
SplineSet
515 65 m 1x38
 525 85 l 1
 369 408 181 796 28 1117 c 1
 320 1117 l 1
 662 418 l 1
 709 532 755 641 801 754 c 0
 847 867 904 1005 950 1117 c 1
 1224 1117 l 1
 800 101 l 2
 720 -88 624 -245 549 -317 c 1
 464 -388 355 -427 225 -427 c 0x98
 169 -427 107 -419 39 -404 c 1x38
 39 -153 l 1
 122 -178 182 -192 221 -192 c 0x58
 315 -192 385 -160 445 -67 c 0
 478 -17 501 28 515 65 c 1x38
454 1209 m 0
 408 1209 371 1225 337 1256 c 0
 305 1288 289 1327 289 1373 c 0
 289 1421 305 1459 338 1489 c 0
 372 1521 409 1537 454 1537 c 0
 496 1537 535 1520 568 1489 c 0
 600 1459 617 1420 617 1373 c 0
 617 1326 601 1287 569 1256 c 0
 537 1225 498 1209 454 1209 c 0
862 1209 m 0
 817 1209 779 1225 745 1256 c 0
 713 1288 696 1326 696 1373 c 0
 696 1421 713 1459 745 1489 c 0
 779 1521 818 1537 862 1537 c 0
 905 1537 943 1522 976 1489 c 1
 975 1489 l 1
 1010 1458 1025 1420 1025 1373 c 0
 1025 1327 1009 1288 975 1256 c 0
 944 1227 903 1209 862 1209 c 0
EndSplineSet
EndChar

StartChar: Amacron
Encoding: 256 256 192
Width: 1229
GlyphClass: 2
Flags: MW
HStem: 0 21G<-30 253 -30 -30 891 891 891 1192> 320 241<351 719 426 719 426 792> 1532 20G<447 712 712 712> 1575 212<272 892 272 892>
VStem: -15 1222
LayerCount: 2
Fore
SplineSet
351 320 m 1
 253 0 l 1
 -30 0 l 1
 447 1552 l 1
 712 1552 l 1
 1192 0 l 1
 891 0 l 1
 792 320 l 1
 351 320 l 1
571 1029 m 1
 578 1051 l 1
 598 1132 l 1
 542 1132 l 1
 564 1051 l 1
 571 1029 l 1
719 561 m 1
 571 1029 l 1
 426 561 l 1
 719 561 l 1
892 1575 m 1
 272 1575 l 1
 272 1787 l 1
 892 1787 l 1
 892 1575 l 1
EndSplineSet
EndChar

StartChar: amacron
Encoding: 257 257 193
Width: 1229
GlyphClass: 2
Flags: MW
HStem: -28 21G<473 556.5> 0 21G<929 929 929 1185> 895 236<698.5 738 660.5 760> 1097 20G<913 1129 1129 1129> 1102 20G<871 876> 1111 20G<660.5 738> 1164 212<357 977 357 977>
VStem: 72 279 794 264
LayerCount: 2
Fore
SplineSet
929 0 m 1x4680
 902 22 l 1x6380
 891 64 883 106 876 154 c 1
 836 110 791 70 747 44 c 0
 667 -4 590 -28 523 -28 c 0
 423 -28 335 13 257 98 c 0
 180 180 143 303 143 466 c 0
 143 589 169 705 216 803 c 0
 262 896 334 985 412 1041 c 0
 496 1100 601 1131 720 1131 c 0x8780
 756 1131 809 1128 871 1122 c 0x4a80
 881 1122 886 1121 892 1120 c 2
 913 1117 l 1
 1129 1117 l 1x5280
 1129 347 l 2
 1129 230 1148 114 1185 0 c 1
 929 0 l 1x4680
865 492 m 1
 865 882 l 1
 825 889 778 895 742 895 c 0
 655 895 573 853 515 790 c 1
 515 791 l 1
 457 718 422 614 422 489 c 0
 422 398 439 331 470 286 c 1
 469 287 l 1
 498 248 531 229 563 229 c 0
 605 229 653 251 709 298 c 0
 767 346 817 410 865 492 c 1
977 1164 m 1
 357 1164 l 1
 357 1376 l 1
 977 1376 l 1
 977 1164 l 1
EndSplineSet
EndChar

StartChar: Abreve
Encoding: 258 258 194
Width: 1229
GlyphClass: 2
Flags: MW
HStem: 0 21G<-30 253 -30 -30 891 891 891 1192> 320 241<351 719 426 719 426 792> 1532 20G<447 712 712 712> 1575 219<582 582>
VStem: -15 1222
LayerCount: 2
Fore
SplineSet
351 320 m 1
 253 0 l 1
 -30 0 l 1
 447 1552 l 1
 712 1552 l 1
 1192 0 l 1
 891 0 l 1
 792 320 l 1
 351 320 l 1
571 1029 m 1
 578 1051 l 1
 598 1132 l 1
 542 1132 l 1
 564 1051 l 1
 571 1029 l 1
719 561 m 1
 571 1029 l 1
 426 561 l 1
 719 561 l 1
250 1976 m 1
 467 1976 l 1
 475 1908 490 1859 514 1831 c 0
 535 1806 558 1794 582 1794 c 0
 604 1794 628 1809 647 1831 c 0
 670 1861 687 1911 695 1976 c 1
 910 1976 l 1
 883 1708 728 1582 582 1575 c 1
 436 1582 279 1708 250 1976 c 1
EndSplineSet
EndChar

StartChar: abreve
Encoding: 259 259 195
Width: 1229
GlyphClass: 2
Flags: MW
HStem: -28 21G<473 556.5> 0 21G<929 929 929 1185> 895 236<698.5 738 660.5 760> 1097 20G<913 1129 1129 1129> 1102 20G<871 876> 1111 20G<660.5 738> 1164 219<668 668> 1545 20G<336 553 553 553 781 996 996 996>
VStem: 72 279 794 264
LayerCount: 2
Fore
SplineSet
929 0 m 1x4540
 902 22 l 1x63c0
 891 64 883 106 876 154 c 1
 836 110 791 70 747 44 c 0
 667 -4 590 -28 523 -28 c 0
 423 -28 335 13 257 98 c 0
 180 180 143 303 143 466 c 0
 143 589 169 705 216 803 c 0
 262 896 334 985 412 1041 c 0
 496 1100 601 1131 720 1131 c 0x85c0
 756 1131 809 1128 871 1122 c 0x4940
 881 1122 886 1121 892 1120 c 2
 913 1117 l 1
 1129 1117 l 1x5140
 1129 347 l 2
 1129 230 1148 114 1185 0 c 1
 929 0 l 1x4540
865 492 m 1
 865 882 l 1
 825 889 778 895 742 895 c 0
 655 895 573 853 515 790 c 1
 515 791 l 1
 457 718 422 614 422 489 c 0
 422 398 439 331 470 286 c 1
 469 287 l 1
 498 248 531 229 563 229 c 0
 605 229 653 251 709 298 c 0
 767 346 817 410 865 492 c 1
336 1565 m 1
 553 1565 l 1
 561 1497 576 1448 600 1420 c 0
 621 1395 644 1383 668 1383 c 0
 690 1383 714 1398 733 1420 c 0
 756 1450 773 1500 781 1565 c 1
 996 1565 l 1
 969 1297 814 1171 668 1164 c 1
 522 1171 365 1297 336 1565 c 1
EndSplineSet
EndChar

StartChar: Aogonek
Encoding: 260 260 196
Width: 1229
GlyphClass: 2
Flags: MW
HStem: -397 21G<998.5 1055> 0 105<891 1184 952 1184 952 1192> 28 77<952 1201> 320 241<351 719 426 719 426 792> 1532 20G<447 712 712 712>
VStem: -15 1231
LayerCount: 2
Fore
SplineSet
351 320 m 1xdc
 253 0 l 1
 -30 0 l 1
 447 1552 l 1
 712 1552 l 1
 1192 0 l 1
 891 0 l 1
 792 320 l 1
 351 320 l 1xdc
571 1029 m 1
 578 1051 l 1
 598 1132 l 1
 542 1132 l 1
 564 1051 l 1
 571 1029 l 1
719 561 m 1
 571 1029 l 1
 426 561 l 1
 719 561 l 1
952 105 m 1
 1184 105 l 1
 1201 28 l 1
 1134 -2 1083 -39 1053 -81 c 1
 1053 -80 l 1
 1025 -119 1012 -148 1012 -167 c 0
 1012 -184 1030 -202 1077 -202 c 0xdc
 1093 -202 1133 -188 1200 -159 c 1xbc
 1200 -353 l 1
 1134 -382 1077 -397 1033 -397 c 0
 964 -397 905 -379 858 -339 c 0
 810 -299 785 -247 785 -184 c 0
 785 -93 841 1 952 105 c 1
EndSplineSet
EndChar

StartChar: aogonek
Encoding: 261 261 197
Width: 1229
GlyphClass: 2
Flags: MW
HStem: -398 21G<1005.5 1062> -28 21G<473 556.5> 0 104<929 1191 959 1185> 27 77<959 1208> 895 236<698.5 738 660.5 760> 1097 20G<913 1129 1129 1129> 1102 20G<871 876> 1111 20G<660.5 738>
VStem: 72 279 794 264
LayerCount: 2
Fore
SplineSet
929 0 m 1xa140
 902 22 l 1xa8c0
 891 64 883 106 876 154 c 1
 836 110 791 70 747 44 c 0
 667 -4 590 -28 523 -28 c 0
 423 -28 335 13 257 98 c 0
 180 180 143 303 143 466 c 0
 143 589 169 705 216 803 c 0
 262 896 334 985 412 1041 c 0
 496 1100 601 1131 720 1131 c 0xc1c0
 756 1131 809 1128 871 1122 c 0xa240
 881 1122 886 1121 892 1120 c 2
 913 1117 l 1
 1129 1117 l 1xa440
 1129 347 l 2
 1129 230 1148 114 1185 0 c 1
 929 0 l 1xa140
865 492 m 1
 865 882 l 1
 825 889 778 895 742 895 c 0
 655 895 573 853 515 790 c 1
 515 791 l 1
 457 718 422 614 422 489 c 0
 422 398 439 331 470 286 c 1
 469 287 l 1
 498 248 531 229 563 229 c 0
 605 229 653 251 709 298 c 0
 767 346 817 410 865 492 c 1
959 104 m 1
 1191 104 l 1xa140
 1208 27 l 1x9140
 1141 -3 1090 -40 1060 -82 c 1
 1060 -81 l 1
 1032 -120 1019 -149 1019 -168 c 0
 1019 -185 1037 -203 1084 -203 c 0
 1100 -203 1140 -189 1207 -160 c 1
 1207 -354 l 1
 1141 -383 1084 -398 1040 -398 c 0
 971 -398 912 -380 865 -340 c 0
 817 -300 792 -248 792 -185 c 0
 792 -94 848 0 959 104 c 1
EndSplineSet
EndChar

StartChar: Cacute
Encoding: 262 262 198
Width: 1229
GlyphClass: 2
Flags: MW
HStem: -44 21G<765.5 872.5> -44 240<787.5 864 787.5 872.5> 1355 241<764.5 865> 1576 20G<764.5 872.5>
VStem: 81 292 796 291
LayerCount: 2
Fore
SplineSet
1167 319 m 1x94
 1167 31 l 1
 1033 -18 918 -44 827 -44 c 0
 704 -44 590 -13 487 55 c 0
 383 120 304 218 246 348 c 0
 189 477 161 619 161 776 c 0
 161 932 189 1073 245 1202 c 1
 244 1202 l 1
 300 1331 380 1429 485 1495 c 0
 588 1563 702 1596 827 1596 c 0
 918 1596 1033 1570 1167 1521 c 1
 1167 1232 l 1
 1028 1314 911 1355 819 1355 c 0
 690 1355 574 1261 507 1082 c 0
 470 988 453 887 453 776 c 0
 453 663 471 561 509 466 c 0
 545 374 591 305 646 260 c 1
 646 261 l 1
 700 219 756 196 819 196 c 0x6c
 909 196 1026 237 1167 319 c 1x94
800 1643 m 1
 511 1643 l 1
 876 2044 l 1
 1221 2044 l 1
 800 1643 l 1
EndSplineSet
EndChar

StartChar: cacute
Encoding: 263 263 199
Width: 1229
GlyphClass: 2
Flags: MW
HStem: -28 21G<832 886> -28 250<832 864.5 797 886> 910 235<811 877 745 883> 1125 20G<745 877>
VStem: 130 279 130 964
LayerCount: 2
Fore
SplineSet
1205 305 m 1x94
 1205 44 l 1
 1064 -5 940 -28 832 -28 c 0
 500 -30 255 224 259 558 c 0
 259 725 314 866 424 977 c 0
 534 1089 667 1145 823 1145 c 0
 931 1145 1059 1121 1205 1071 c 1
 1205 803 l 1
 1049 873 928 910 838 910 c 0
 784 910 733 896 685 868 c 0
 638 844 603 802 578 746 c 0
 550 688 538 626 538 565 c 0
 538 483 567 399 615 326 c 1
 663 261 745 222 849 222 c 0
 880 222 917 225 952 230 c 0
 988 234 1076 261 1205 305 c 1x94
802 1209 m 1
 513 1209 l 1
 878 1610 l 1
 1223 1610 l 1
 802 1209 l 1
EndSplineSet
EndChar

StartChar: Ccircumflex
Encoding: 264 264 200
Width: 1229
GlyphClass: 2
Flags: MW
HStem: -44 21G<765.5 872.5> -44 240<787.5 864 787.5 872.5> 1355 241<764.5 865> 1576 20G<764.5 872.5>
VStem: 81 292 81 1006
LayerCount: 2
Fore
SplineSet
1167 319 m 1x94
 1167 31 l 1
 1033 -18 918 -44 827 -44 c 0
 704 -44 590 -13 487 55 c 0
 383 120 304 218 246 348 c 0
 189 477 161 619 161 776 c 0
 161 932 189 1073 245 1202 c 1
 244 1202 l 1
 300 1331 380 1429 485 1495 c 0
 588 1563 702 1596 827 1596 c 0
 918 1596 1033 1570 1167 1521 c 1
 1167 1232 l 1
 1028 1314 911 1355 819 1355 c 0
 690 1355 574 1261 507 1082 c 0
 470 988 453 887 453 776 c 0
 453 663 471 561 509 466 c 0xa8
 545 374 591 305 646 260 c 1
 646 261 l 1
 700 219 756 196 819 196 c 0x54
 909 196 1026 237 1167 319 c 1x94
882 1622 m 1
 774 1753 l 1
 709 1674 l 1
 665 1622 l 1
 404 1622 l 1
 692 2023 l 1
 856 2023 l 1
 1144 1622 l 1
 882 1622 l 1
EndSplineSet
EndChar

StartChar: ccircumflex
Encoding: 265 265 201
Width: 1229
GlyphClass: 2
Flags: MW
HStem: -28 21G<832 886> -28 250<832 864.5 797 886> 910 235<811 877 745 883> 1125 20G<745 877> 1560 20G<707 871 871 871>
VStem: 130 279 130 946
LayerCount: 2
Fore
SplineSet
1205 305 m 1x9a
 1205 44 l 1
 1064 -5 940 -28 832 -28 c 0
 500 -30 255 224 259 558 c 0
 259 725 314 866 424 977 c 0
 534 1089 667 1145 823 1145 c 0
 931 1145 1059 1121 1205 1071 c 1
 1205 803 l 1
 1049 873 928 910 838 910 c 0
 784 910 733 896 685 868 c 0
 638 844 603 802 578 746 c 0
 550 688 538 626 538 565 c 0
 538 483 567 399 615 326 c 1
 663 261 745 222 849 222 c 0
 880 222 917 225 952 230 c 0
 988 234 1076 261 1205 305 c 1x9a
897 1179 m 1
 789 1310 l 1
 724 1231 l 1
 680 1179 l 1
 419 1179 l 1
 707 1580 l 1
 871 1580 l 1
 1159 1179 l 1
 897 1179 l 1
EndSplineSet
EndChar

StartChar: Cdot
Encoding: 266 266 202
Width: 1229
GlyphClass: 2
Flags: MW
HStem: -44 21G<765.5 872.5> -44 240<787.5 864 787.5 872.5> 1355 241<764.5 865> 1576 20G<764.5 872.5>
VStem: 81 292 81 1006
LayerCount: 2
Fore
SplineSet
1167 319 m 1x94
 1167 31 l 1
 1033 -18 918 -44 827 -44 c 0
 704 -44 590 -13 487 55 c 0
 383 120 304 218 246 348 c 0
 189 477 161 619 161 776 c 0
 161 932 189 1073 245 1202 c 1
 244 1202 l 1
 300 1331 380 1429 485 1495 c 0
 588 1563 702 1596 827 1596 c 0
 918 1596 1033 1570 1167 1521 c 1
 1167 1232 l 1
 1028 1314 911 1355 819 1355 c 0
 690 1355 574 1261 507 1082 c 0
 470 988 453 887 453 776 c 0
 453 663 471 561 509 466 c 0xa8
 545 374 591 305 646 260 c 1
 646 261 l 1
 700 219 756 196 819 196 c 0x54
 909 196 1026 237 1167 319 c 1x94
765 1695 m 0
 720 1695 682 1711 650 1743 c 0
 618 1774 602 1813 602 1857 c 0
 602 1901 618 1940 650 1973 c 0
 685 2004 721 2021 765 2021 c 0
 808 2021 846 2004 878 1973 c 0
 911 1940 927 1902 927 1857 c 0
 927 1812 911 1773 879 1742 c 0
 847 1710 808 1695 765 1695 c 0
EndSplineSet
EndChar

StartChar: cdot
Encoding: 267 267 203
Width: 1229
GlyphClass: 2
Flags: MW
HStem: -28 21G<832 886> -28 250<832 864.5 797 886> 910 235<811 877 745 883> 1125 20G<745 877> 1558 20G<768 811.5>
VStem: 130 279 130 946
LayerCount: 2
Fore
SplineSet
1205 305 m 1x9a
 1205 44 l 1
 1064 -5 940 -28 832 -28 c 0
 500 -30 255 224 259 558 c 0
 259 725 314 866 424 977 c 0
 534 1089 667 1145 823 1145 c 0
 931 1145 1059 1121 1205 1071 c 1
 1205 803 l 1
 1049 873 928 910 838 910 c 0
 784 910 733 896 685 868 c 0
 638 844 603 802 578 746 c 0
 550 688 538 626 538 565 c 0
 538 483 567 399 615 326 c 1
 663 261 745 222 849 222 c 0
 880 222 917 225 952 230 c 0
 988 234 1076 261 1205 305 c 1x9a
790 1252 m 0
 745 1252 707 1268 675 1300 c 0
 643 1331 627 1370 627 1414 c 0
 627 1458 643 1497 675 1530 c 0
 710 1561 746 1578 790 1578 c 0
 833 1578 871 1561 903 1530 c 0
 936 1497 952 1459 952 1414 c 0
 952 1369 936 1330 904 1299 c 0
 872 1267 833 1252 790 1252 c 0
EndSplineSet
EndChar

StartChar: Ccaron
Encoding: 268 268 204
Width: 1229
GlyphClass: 2
Flags: MW
HStem: -44 21G<765.5 872.5> -44 240<787.5 864 787.5 872.5> 1355 241<764.5 865> 1576 20G<764.5 872.5>
VStem: 81 292 839 248
LayerCount: 2
Fore
SplineSet
1167 319 m 1x94
 1167 31 l 1
 1033 -18 918 -44 827 -44 c 0
 704 -44 590 -13 487 55 c 0
 383 120 304 218 246 348 c 0
 189 477 161 619 161 776 c 0
 161 932 189 1073 245 1202 c 1
 244 1202 l 1
 300 1331 380 1429 485 1495 c 0
 588 1563 702 1596 827 1596 c 0
 918 1596 1033 1570 1167 1521 c 1
 1167 1232 l 1
 1028 1314 911 1355 819 1355 c 0
 690 1355 574 1261 507 1082 c 0
 470 988 453 887 453 776 c 0
 453 663 471 561 509 466 c 0
 545 374 591 305 646 260 c 1
 646 261 l 1
 700 219 756 196 819 196 c 0x6c
 909 196 1026 237 1167 319 c 1x94
702 2044 m 1
 811 1913 l 1
 846 1955 886 2004 919 2044 c 1
 1181 2044 l 1
 893 1643 l 1
 729 1643 l 1
 441 2044 l 1
 702 2044 l 1
EndSplineSet
EndChar

StartChar: ccaron
Encoding: 269 269 205
Width: 1229
GlyphClass: 2
Flags: MW
HStem: -28 21G<832 886> -28 250<832 864.5 797 886> 910 235<811 877 745 883> 1125 20G<745 877>
VStem: 130 279 130 971
LayerCount: 2
Fore
SplineSet
1205 305 m 1x94
 1205 44 l 1
 1064 -5 940 -28 832 -28 c 0
 500 -30 255 224 259 558 c 0
 259 725 314 866 424 977 c 0
 534 1089 667 1145 823 1145 c 0
 931 1145 1059 1121 1205 1071 c 1
 1205 803 l 1
 1049 873 928 910 838 910 c 0
 784 910 733 896 685 868 c 0
 638 844 603 802 578 746 c 0
 550 688 538 626 538 565 c 0
 538 483 567 399 615 326 c 1
 663 261 745 222 849 222 c 0
 880 222 917 225 952 230 c 0
 988 234 1076 261 1205 305 c 1x94
751 1610 m 1
 860 1479 l 1
 895 1521 935 1570 968 1610 c 1
 1230 1610 l 1
 942 1209 l 1
 778 1209 l 1
 490 1610 l 1
 751 1610 l 1
EndSplineSet
EndChar

StartChar: Dcaron
Encoding: 270 270 206
Width: 1229
GlyphClass: 2
Flags: MW
HStem: 0 256<520 599 599 628> 1310 242<520 520 520 613>
VStem: 118 285 861 284
LayerCount: 2
Fore
SplineSet
628 0 m 2
 235 0 l 1
 235 1552 l 1
 628 1552 l 2
 795 1552 924 1519 1009 1459 c 0
 1094 1398 1160 1304 1201 1186 c 0
 1241 1069 1262 931 1262 772 c 0
 1262 625 1238 486 1198 374 c 0
 1153 255 1088 162 1008 98 c 1
 1008 99 l 1
 924 32 798 0 628 0 c 2
520 1310 m 1
 520 256 l 1
 599 256 l 2
 712 256 796 276 842 313 c 0
 889 352 923 408 944 480 c 1
 944 479 l 1
 966 556 978 664 978 802 c 0
 978 933 964 1038 940 1108 c 0
 917 1166 878 1227 838 1258 c 0
 793 1292 719 1310 613 1310 c 2
 520 1310 l 1
598 1976 m 1
 707 1845 l 1
 742 1887 782 1936 815 1976 c 1
 1077 1976 l 1
 789 1575 l 1
 625 1575 l 1
 337 1976 l 1
 598 1976 l 1
EndSplineSet
EndChar

StartChar: dcaron
Encoding: 271 271 207
Width: 1229
GlyphClass: 2
Flags: MW
HStem: -28 21G<493 577> 0 21G<885 885 885 1149> 895 236<719.5 757 681 781> 1102 20G<885 885> 1111 20G<681 757> 1409 164 1553 20G<885 1149 1149 1149>
VStem: 82 279 804 264
LayerCount: 2
Fore
SplineSet
885 0 m 1x4a80
 885 141 l 1
 849 104 805 66 767 44 c 0
 689 -4 611 -28 543 -28 c 0
 443 -28 355 13 277 98 c 0
 200 181 163 304 163 466 c 0
 163 589 189 705 236 803 c 0
 283 896 354 985 432 1041 c 0
 516 1100 622 1131 740 1131 c 0x8b80
 774 1131 822 1128 885 1122 c 1x5280
 885 1573 l 1
 1149 1573 l 1
 1149 0 l 1
 885 0 l 1x4a80
885 492 m 1
 885 882 l 1
 846 889 799 895 763 895 c 0x6480
 676 895 595 853 534 789 c 1
 535 791 l 1
 477 718 442 614 442 489 c 0
 442 396 459 329 490 286 c 1
 490 287 l 1
 518 248 551 229 583 229 c 0
 626 229 673 251 729 298 c 0
 788 346 838 410 885 492 c 1
471 1810 m 1
 580 1679 l 1
 615 1721 655 1770 688 1810 c 1
 950 1810 l 1
 662 1409 l 1
 498 1409 l 1
 210 1810 l 1
 471 1810 l 1
EndSplineSet
EndChar

StartChar: Dcroat
Encoding: 272 272 208
Width: 1229
GlyphClass: 2
Flags: MW
HStem: 0 256<374 453 453 514 374 522> 670 241<-56 89 -56 89 374 606> 1310 242<374 468 374 374>
VStem: 117 285 861 284
LayerCount: 2
Fore
SplineSet
522 0 m 2
 89 0 l 1
 89 670 l 1
 -56 670 l 1
 -56 911 l 1
 89 911 l 1
 89 1552 l 1
 482 1552 l 2
 661 1552 790 1525 867 1470 c 0
 944 1416 1006 1325 1051 1197 c 0
 1095 1072 1117 931 1117 772 c 0
 1117 621 1095 486 1051 368 c 0
 1006 245 946 153 871 93 c 0
 794 30 678 0 522 0 c 2
374 670 m 1
 374 256 l 1
 453 256 l 2
 575 256 660 273 701 304 c 1
 700 303 l 1
 739 337 772 393 795 471 c 0
 819 554 833 664 833 802 c 0
 833 937 819 1041 795 1116 c 0
 773 1184 740 1235 704 1266 c 1
 665 1293 584 1310 468 1310 c 2
 374 1310 l 1
 374 911 l 1
 606 911 l 1
 606 670 l 1
 374 670 l 1
EndSplineSet
EndChar

StartChar: dcroat
Encoding: 273 273 209
Width: 1229
GlyphClass: 2
Flags: MW
HStem: -28 21G<510 593.5> 0 21G<901 901 901 1167> 895 236<735.5 774.5 698 797> 1102 20G<901 901> 1111 20G<698 774.5> 1152 220<731 901 731 901 1167 1336> 1553 20G<901 1167 1167 1167>
VStem: 91 278 811 266
LayerCount: 2
Fore
SplineSet
901 0 m 1x4a80
 901 141 l 1
 863 102 823 68 784 44 c 0
 704 -4 628 -28 559 -28 c 0
 461 -28 372 13 294 98 c 0
 218 180 181 303 181 466 c 0
 181 589 206 705 253 803 c 0
 299 896 371 985 449 1041 c 0
 533 1100 638 1131 758 1131 c 0x8b80
 791 1131 839 1128 901 1122 c 1x5280
 901 1152 l 1
 731 1152 l 1
 731 1372 l 1
 901 1372 l 1
 901 1573 l 1
 1167 1573 l 1
 1167 1372 l 1
 1336 1372 l 1
 1336 1152 l 1
 1167 1152 l 1x4e80
 1167 0 l 1
 901 0 l 1x4a80
901 492 m 1
 901 882 l 1
 862 889 815 895 779 895 c 0x6280
 692 895 610 853 552 790 c 1
 553 791 l 1
 494 718 459 614 459 489 c 0
 459 398 476 331 507 286 c 1
 506 287 l 1
 535 248 568 229 600 229 c 0
 642 229 690 251 746 298 c 0
 804 346 854 409 901 492 c 1
EndSplineSet
EndChar

StartChar: Emacron
Encoding: 274 274 210
Width: 1229
GlyphClass: 2
Flags: MW
HStem: 0 256<608 1205 608 1205> 670 241<608 1131 608 1131> 1310 242<608 1190 608 608> 1675 212<455 1075 455 1075>
VStem: 162 285
LayerCount: 2
Fore
SplineSet
608 256 m 1
 1205 256 l 1
 1205 0 l 1
 323 0 l 1
 323 1552 l 1
 1190 1552 l 1
 1190 1310 l 1
 608 1310 l 1
 608 911 l 1
 1131 911 l 1
 1131 670 l 1
 608 670 l 1
 608 256 l 1
1075 1675 m 1
 455 1675 l 1
 455 1887 l 1
 1075 1887 l 1
 1075 1675 l 1
EndSplineSet
EndChar

StartChar: emacron
Encoding: 275 275 211
Width: 1229
GlyphClass: 2
Flags: MW
HStem: -29 21G<627.5 793> -29 236<725.5 793> 484 221<495 897 897 927 495 1177 474 897> 910 235<676.5 747.5> 1125 20G<676.5 794.5> 1179 212<424 1044 424 1044>
VStem: 98 982
LayerCount: 2
Fore
SplineSet
1162 351 m 1xae
 1162 84 l 1
 1002 9 857 -29 729 -29 c 0
 526 -29 362 75 264 261 c 0
 219 352 195 452 195 556 c 0
 195 656 218 753 261 847 c 0
 305 938 374 1014 453 1066 c 0
 534 1118 626 1145 727 1145 c 0
 862 1145 972 1094 1055 998 c 0
 1133 903 1177 754 1177 568 c 2
 1177 484 l 1
 474 484 l 1
 480 439 493 394 511 357 c 1
 510 358 l 1
 536 310 572 270 611 245 c 0
 651 221 700 207 751 207 c 0x6e
 852 207 989 255 1162 351 c 1xae
898 682 m 2
 898 677 l 1
 927 705 l 1
 897 705 l 1xb6
 898 698 898 690 898 682 c 2
495 705 m 1
 897 705 l 1
 894 767 878 816 848 852 c 0
 817 891 775 910 720 910 c 0
 621 910 538 833 495 705 c 1
1044 1179 m 1
 424 1179 l 1
 424 1391 l 1
 1044 1391 l 1
 1044 1179 l 1
EndSplineSet
EndChar

StartChar: Ebreve
Encoding: 276 276 212
Width: 1229
GlyphClass: 2
Flags: MW
HStem: 0 256<608 1205 608 1205> 670 241<608 1131 608 1131> 1310 242<608 1190 608 608> 1575 219<765 765>
VStem: 162 285 717 327
LayerCount: 2
Fore
SplineSet
608 256 m 1
 1205 256 l 1
 1205 0 l 1
 323 0 l 1
 323 1552 l 1
 1190 1552 l 1
 1190 1310 l 1
 608 1310 l 1
 608 911 l 1
 1131 911 l 1
 1131 670 l 1
 608 670 l 1
 608 256 l 1
433 1976 m 1
 650 1976 l 1
 658 1908 673 1859 697 1831 c 0
 718 1806 741 1794 765 1794 c 0
 787 1794 811 1809 830 1831 c 0
 853 1861 870 1911 878 1976 c 1
 1093 1976 l 1
 1066 1708 911 1582 765 1575 c 1
 619 1582 462 1708 433 1976 c 1
EndSplineSet
EndChar

StartChar: ebreve
Encoding: 277 277 213
Width: 1229
GlyphClass: 2
Flags: MW
HStem: -29 21G<627.5 793> -29 236<725.5 793> 484 221<495 897 897 927 495 1177 474 897> 910 235<676.5 747.5> 1125 20G<676.5 794.5> 1179 219<744 744> 1560 20G<412 629 629 629 857 1072 1072 1072>
VStem: 98 982
LayerCount: 2
Fore
SplineSet
1162 351 m 1xab
 1162 84 l 1
 1002 9 857 -29 729 -29 c 0
 526 -29 362 75 264 261 c 0
 219 352 195 452 195 556 c 0
 195 656 218 753 261 847 c 0
 305 938 374 1014 453 1066 c 0
 534 1118 626 1145 727 1145 c 0
 862 1145 972 1094 1055 998 c 0
 1133 903 1177 754 1177 568 c 2
 1177 484 l 1
 474 484 l 1
 480 439 493 394 511 357 c 1
 510 358 l 1
 536 310 572 270 611 245 c 0
 651 221 700 207 751 207 c 0x6b
 852 207 989 255 1162 351 c 1xab
898 682 m 2
 898 677 l 1
 927 705 l 1
 897 705 l 1xb7
 898 698 898 690 898 682 c 2
495 705 m 1
 897 705 l 1
 894 767 878 816 848 852 c 0
 817 891 775 910 720 910 c 0
 621 910 538 833 495 705 c 1
412 1580 m 1
 629 1580 l 1
 637 1512 652 1463 676 1435 c 0
 697 1410 720 1398 744 1398 c 0
 766 1398 790 1413 809 1435 c 0
 832 1465 849 1515 857 1580 c 1
 1072 1580 l 1
 1045 1312 890 1186 744 1179 c 1
 598 1186 441 1312 412 1580 c 1
EndSplineSet
EndChar

StartChar: Edot
Encoding: 278 278 214
Width: 1229
GlyphClass: 2
Flags: MW
HStem: 0 256<608 1205 608 1205> 670 241<608 1131 608 1131> 1310 242<608 1190 608 608>
VStem: 162 285
LayerCount: 2
Fore
SplineSet
608 256 m 1
 1205 256 l 1
 1205 0 l 1
 323 0 l 1
 323 1552 l 1
 1190 1552 l 1
 1190 1310 l 1
 608 1310 l 1
 608 911 l 1
 1131 911 l 1
 1131 670 l 1
 608 670 l 1
 608 256 l 1
765 1648 m 0
 720 1648 682 1664 650 1696 c 0
 618 1727 602 1766 602 1810 c 0
 602 1854 618 1893 650 1926 c 0
 685 1957 721 1974 765 1974 c 0
 808 1974 846 1957 878 1926 c 0
 911 1893 927 1855 927 1810 c 0
 927 1765 911 1726 879 1695 c 0
 847 1663 808 1648 765 1648 c 0
EndSplineSet
EndChar

StartChar: edot
Encoding: 279 279 215
Width: 1229
GlyphClass: 2
Flags: MW
HStem: -29 21G<627.5 793> -29 236<725.5 793> 484 221<495 897 897 927 495 1177 474 897> 910 235<676.5 747.5> 1125 20G<676.5 794.5> 1558 20G<722 765.5>
VStem: 98 982
LayerCount: 2
Fore
SplineSet
1162 351 m 1xae
 1162 84 l 1
 1002 9 857 -29 729 -29 c 0
 526 -29 362 75 264 261 c 0
 219 352 195 452 195 556 c 0
 195 656 218 753 261 847 c 0
 305 938 374 1014 453 1066 c 0
 534 1118 626 1145 727 1145 c 0
 862 1145 972 1094 1055 998 c 0
 1133 903 1177 754 1177 568 c 2
 1177 484 l 1
 474 484 l 1
 480 439 493 394 511 357 c 1
 510 358 l 1
 536 310 572 270 611 245 c 0
 651 221 700 207 751 207 c 0x6e
 852 207 989 255 1162 351 c 1xae
898 682 m 2
 898 677 l 1
 927 705 l 1
 897 705 l 1xb6
 898 698 898 690 898 682 c 2
495 705 m 1
 897 705 l 1
 894 767 878 816 848 852 c 0
 817 891 775 910 720 910 c 0
 621 910 538 833 495 705 c 1
744 1252 m 0
 699 1252 661 1268 629 1300 c 0
 597 1331 581 1370 581 1414 c 0
 581 1458 597 1497 629 1530 c 0
 664 1561 700 1578 744 1578 c 0
 787 1578 825 1561 857 1530 c 0
 890 1497 906 1459 906 1414 c 0
 906 1369 890 1330 858 1299 c 0
 826 1267 787 1252 744 1252 c 0
EndSplineSet
EndChar

StartChar: Eogonek
Encoding: 280 280 216
Width: 1229
GlyphClass: 2
Flags: MW
HStem: -397 21G<770.5 827> 0 105<724 956 724 1205> 0 256<608 1205 608 1205> 28 77<724 973> 670 241<608 1131 608 1131> 1310 242<608 1190 608 608>
VStem: 162 285
LayerCount: 2
Fore
SplineSet
608 256 m 1xce
 1205 256 l 1xae
 1205 0 l 1
 323 0 l 1
 323 1552 l 1
 1190 1552 l 1
 1190 1310 l 1
 608 1310 l 1
 608 911 l 1
 1131 911 l 1
 1131 670 l 1
 608 670 l 1
 608 256 l 1xce
724 105 m 1
 956 105 l 1
 973 28 l 1x9e
 906 -2 855 -39 825 -81 c 1
 825 -80 l 1
 797 -119 784 -148 784 -167 c 0
 784 -184 802 -202 849 -202 c 0
 865 -202 905 -188 972 -159 c 1
 972 -353 l 1
 906 -382 849 -397 805 -397 c 0
 736 -397 677 -379 630 -339 c 0
 582 -299 557 -247 557 -184 c 0
 557 -93 613 1 724 105 c 1
EndSplineSet
EndChar

StartChar: eogonek
Encoding: 281 281 217
Width: 1229
GlyphClass: 2
Flags: MW
HStem: -407 21G<716.5 773> -29 124<670 793> 18 77<670 919> 484 221<495 897 897 927 495 1177 474 897> 910 235<676.5 747.5> 1125 20G<676.5 794.5>
VStem: 98 982
LayerCount: 2
Fore
SplineSet
1162 351 m 1xd6
 1162 84 l 1
 1002 9 857 -29 729 -29 c 0
 526 -29 362 75 264 261 c 0
 219 352 195 452 195 556 c 0
 195 656 218 753 261 847 c 0
 305 938 374 1014 453 1066 c 0
 534 1118 626 1145 727 1145 c 0
 862 1145 972 1094 1055 998 c 0
 1133 903 1177 754 1177 568 c 2
 1177 484 l 1
 474 484 l 1
 480 439 493 394 511 357 c 1
 510 358 l 1
 536 310 572 270 611 245 c 0
 651 221 700 207 751 207 c 0
 852 207 989 255 1162 351 c 1xd6
898 682 m 2
 898 677 l 1
 927 705 l 1
 897 705 l 1xda
 898 698 898 690 898 682 c 2
495 705 m 1
 897 705 l 1
 894 767 878 816 848 852 c 0
 817 891 775 910 720 910 c 0
 621 910 538 833 495 705 c 1
670 95 m 1
 902 95 l 1
 919 18 l 1
 852 -12 801 -49 771 -91 c 1
 771 -90 l 1
 743 -129 730 -158 730 -177 c 0
 730 -194 748 -212 795 -212 c 0xd6
 811 -212 851 -198 918 -169 c 1xb6
 918 -363 l 1
 852 -392 795 -407 751 -407 c 0
 682 -407 623 -389 576 -349 c 0
 528 -309 503 -257 503 -194 c 0
 503 -103 559 -9 670 95 c 1
EndSplineSet
EndChar

StartChar: Ecaron
Encoding: 282 282 218
Width: 1229
GlyphClass: 2
Flags: MW
HStem: 0 256<608 1205 608 1205> 670 241<608 1131 608 1131> 1310 242<608 1190 608 608>
VStem: 162 285 711 333
LayerCount: 2
Fore
SplineSet
608 256 m 1
 1205 256 l 1
 1205 0 l 1
 323 0 l 1
 323 1552 l 1
 1190 1552 l 1
 1190 1310 l 1
 608 1310 l 1
 608 911 l 1
 1131 911 l 1
 1131 670 l 1
 608 670 l 1
 608 256 l 1
655 1976 m 1
 764 1845 l 1
 799 1887 839 1936 872 1976 c 1
 1134 1976 l 1
 846 1575 l 1
 682 1575 l 1
 394 1976 l 1
 655 1976 l 1
EndSplineSet
EndChar

StartChar: ecaron
Encoding: 283 283 219
Width: 1229
GlyphClass: 2
Flags: MW
HStem: -29 21G<627.5 793> -29 236<725.5 793> 484 221<495 897 897 927 495 1177 474 897> 910 235<676.5 747.5> 1125 20G<676.5 794.5> 1560 20G<373 634 634 634 851 1113 1113 1113>
VStem: 98 982
LayerCount: 2
Fore
SplineSet
1162 351 m 1xae
 1162 84 l 1
 1002 9 857 -29 729 -29 c 0
 526 -29 362 75 264 261 c 0
 219 352 195 452 195 556 c 0
 195 656 218 753 261 847 c 0
 305 938 374 1014 453 1066 c 0
 534 1118 626 1145 727 1145 c 0
 862 1145 972 1094 1055 998 c 0
 1133 903 1177 754 1177 568 c 2
 1177 484 l 1
 474 484 l 1
 480 439 493 394 511 357 c 1
 510 358 l 1
 536 310 572 270 611 245 c 0
 651 221 700 207 751 207 c 0x6e
 852 207 989 255 1162 351 c 1xae
898 682 m 2
 898 677 l 1
 927 705 l 1
 897 705 l 1xb6
 898 698 898 690 898 682 c 2
495 705 m 1
 897 705 l 1
 894 767 878 816 848 852 c 0
 817 891 775 910 720 910 c 0
 621 910 538 833 495 705 c 1
634 1580 m 1
 743 1449 l 1
 778 1491 818 1540 851 1580 c 1
 1113 1580 l 1
 825 1179 l 1
 661 1179 l 1
 373 1580 l 1
 634 1580 l 1
EndSplineSet
EndChar

StartChar: Gcircumflex
Encoding: 284 284 220
Width: 1229
GlyphClass: 2
Flags: MW
HStem: -44 240<854 882 854 882.5> 576 240<737 882 737 1167> 1355 241<764 864> 1576 20G<764 871.5>
VStem: 81 292 802 285
LayerCount: 2
Fore
SplineSet
1167 816 m 1xdc
 1167 13 l 1
 1039 -25 928 -44 837 -44 c 0
 575 -44 364 86 247 346 c 0
 190 474 161 616 161 776 c 0
 161 932 189 1073 245 1202 c 1
 244 1202 l 1
 300 1331 380 1429 485 1495 c 0
 588 1563 702 1596 826 1596 c 0
 917 1596 1032 1570 1166 1521 c 1
 1166 1232 l 1
 1027 1314 910 1355 818 1355 c 0xec
 693 1355 574 1253 506 1082 c 1
 506 1083 l 1
 472 990 453 883 453 774 c 0
 453 632 494 484 554 367 c 1
 618 257 720 196 854 196 c 2
 882 196 l 1
 882 576 l 1
 737 576 l 1
 737 816 l 1
 1167 816 l 1xdc
872 1622 m 1
 764 1753 l 1
 699 1674 l 1
 655 1622 l 1
 394 1622 l 1
 682 2023 l 1
 846 2023 l 1
 1134 1622 l 1
 872 1622 l 1
EndSplineSet
EndChar

StartChar: gcircumflex
Encoding: 285 285 221
Width: 1229
GlyphClass: 2
Flags: MW
HStem: -426 21G<524.5 655.5> -426 235<567.5 642 567.5 655.5> -28 21G<493 577> 895 236<719.5 758 681 781> 1097 20G<932 1149 1149 1149> 1102 20G<892 892> 1111 20G<681 758> 1545 20G<589 753 753 753>
VStem: 82 279 804 264
LayerCount: 2
Fore
SplineSet
885 132 m 2xa340
 885 141 l 1
 849 104 805 66 767 44 c 0
 689 -4 611 -28 543 -28 c 0
 443 -28 355 13 277 98 c 0
 200 181 163 304 163 466 c 0
 163 589 189 705 236 803 c 0
 283 896 354 985 432 1041 c 0
 516 1100 622 1131 740 1131 c 0xa3c0
 776 1131 828 1128 892 1122 c 2xa540
 914 1119 l 2
 921 1118 929 1117 932 1117 c 2
 1149 1117 l 1
 1149 346 l 2
 1149 179 1147 68 1142 26 c 0
 1138 -12 1130 -56 1118 -98 c 0
 1090 -197 1026 -282 929 -341 c 0
 834 -398 721 -426 590 -426 c 0
 459 -426 317 -388 167 -314 c 1
 167 -25 l 1
 256 -84 344 -131 407 -155 c 0
 472 -177 538 -191 597 -191 c 0
 687 -191 773 -161 823 -109 c 1
 823 -110 l 1x6940
 846 -84 863 -54 870 -21 c 0
 879 15 885 65 885 132 c 2xa340
885 492 m 1
 885 882 l 1
 846 889 799 895 763 895 c 0xb140
 676 895 595 853 534 789 c 1
 535 791 l 1
 477 718 442 614 442 489 c 0
 442 396 459 329 490 286 c 1
 490 287 l 1
 518 248 551 229 583 229 c 0
 626 229 673 251 729 298 c 0
 788 346 838 410 885 492 c 1
779 1164 m 1
 671 1295 l 1
 606 1216 l 1
 562 1164 l 1
 301 1164 l 1
 589 1565 l 1
 753 1565 l 1
 1041 1164 l 1
 779 1164 l 1
EndSplineSet
EndChar

StartChar: Gbreve
Encoding: 286 286 222
Width: 1229
GlyphClass: 2
Flags: MW
HStem: -44 240<854 882 854 882.5> 576 240<737 882 737 1167> 1355 241<764 864> 1576 20G<764 871.5> 1643 219<820 820>
VStem: 81 292 802 285
LayerCount: 2
Fore
SplineSet
1167 816 m 1xd6
 1167 13 l 1
 1039 -25 928 -44 837 -44 c 0
 575 -44 364 86 247 346 c 0
 190 474 161 616 161 776 c 0
 161 932 189 1073 245 1202 c 1
 244 1202 l 1
 300 1331 380 1429 485 1495 c 0
 588 1563 702 1596 826 1596 c 0
 917 1596 1032 1570 1166 1521 c 1
 1166 1232 l 1
 1027 1314 910 1355 818 1355 c 0xee
 693 1355 574 1253 506 1082 c 1
 506 1083 l 1
 472 990 453 883 453 774 c 0
 453 632 494 484 554 367 c 1
 618 257 720 196 854 196 c 2
 882 196 l 1
 882 576 l 1
 737 576 l 1
 737 816 l 1
 1167 816 l 1xd6
488 2044 m 1
 705 2044 l 1
 713 1976 728 1927 752 1899 c 0
 773 1874 796 1862 820 1862 c 0
 842 1862 866 1877 885 1899 c 0
 908 1929 925 1979 933 2044 c 1
 1148 2044 l 1
 1121 1776 966 1650 820 1643 c 1
 674 1650 517 1776 488 2044 c 1
EndSplineSet
EndChar

StartChar: gbreve
Encoding: 287 287 223
Width: 1229
GlyphClass: 2
Flags: MW
HStem: -426 21G<532.5 663.5> -426 235<575.5 650 575.5 663.5> -28 21G<501 585> 895 236<727.5 766 689 789> 1097 20G<940 1157 1157 1157> 1102 20G<900 900> 1111 20G<689 766> 1209 219<749 749>
VStem: 86 279 808 264
LayerCount: 2
Fore
SplineSet
893 132 m 2xa240
 893 141 l 1
 857 104 813 66 775 44 c 0
 697 -4 619 -28 551 -28 c 0
 451 -28 363 13 285 98 c 0
 208 181 171 304 171 466 c 0
 171 589 197 705 244 803 c 0
 291 896 362 985 440 1041 c 0
 524 1100 630 1131 748 1131 c 0xa2c0
 784 1131 836 1128 900 1122 c 2xa440
 922 1119 l 2
 929 1118 937 1117 940 1117 c 2
 1157 1117 l 1
 1157 346 l 2
 1157 179 1155 68 1150 26 c 0
 1146 -12 1138 -56 1126 -98 c 0
 1098 -197 1034 -282 937 -341 c 0
 842 -398 729 -426 598 -426 c 0
 467 -426 325 -388 175 -314 c 1
 175 -25 l 1
 264 -84 352 -131 415 -155 c 0
 480 -177 546 -191 605 -191 c 0
 695 -191 781 -161 831 -109 c 1
 831 -110 l 1x6840
 854 -84 871 -54 878 -21 c 0
 887 15 893 65 893 132 c 2xa240
893 492 m 1
 893 882 l 1
 854 889 807 895 771 895 c 0xb140
 684 895 603 853 542 789 c 1
 543 791 l 1
 485 718 450 614 450 489 c 0
 450 396 467 329 498 286 c 1
 498 287 l 1
 526 248 559 229 591 229 c 0
 634 229 681 251 737 298 c 0
 796 346 846 410 893 492 c 1
417 1610 m 1
 634 1610 l 1
 642 1542 657 1493 681 1465 c 0
 702 1440 725 1428 749 1428 c 0
 771 1428 795 1443 814 1465 c 0
 837 1495 854 1545 862 1610 c 1
 1077 1610 l 1
 1050 1342 895 1216 749 1209 c 1
 603 1216 446 1342 417 1610 c 1
EndSplineSet
EndChar

StartChar: Gdot
Encoding: 288 288 224
Width: 1229
GlyphClass: 2
Flags: MW
HStem: -44 240<854 882 854 882.5> 576 240<737 882 737 1167> 1355 241<764 864> 1576 20G<764 871.5>
VStem: 81 292 802 285
LayerCount: 2
Fore
SplineSet
1167 816 m 1xdc
 1167 13 l 1
 1039 -25 928 -44 837 -44 c 0
 575 -44 364 86 247 346 c 0
 190 474 161 616 161 776 c 0
 161 932 189 1073 245 1202 c 1
 244 1202 l 1
 300 1331 380 1429 485 1495 c 0
 588 1563 702 1596 826 1596 c 0
 917 1596 1032 1570 1166 1521 c 1
 1166 1232 l 1
 1027 1314 910 1355 818 1355 c 0xec
 693 1355 574 1253 506 1082 c 1
 506 1083 l 1
 472 990 453 883 453 774 c 0
 453 632 494 484 554 367 c 1
 618 257 720 196 854 196 c 2
 882 196 l 1
 882 576 l 1
 737 576 l 1
 737 816 l 1
 1167 816 l 1xdc
765 1695 m 0
 720 1695 682 1711 650 1743 c 0
 618 1774 602 1813 602 1857 c 0
 602 1901 618 1940 650 1973 c 0
 685 2004 721 2021 765 2021 c 0
 808 2021 846 2004 878 1973 c 0
 911 1940 927 1902 927 1857 c 0
 927 1812 911 1773 879 1742 c 0
 847 1710 808 1695 765 1695 c 0
EndSplineSet
EndChar

StartChar: gdot
Encoding: 289 289 225
Width: 1229
GlyphClass: 2
Flags: MW
HStem: -426 21G<524.5 655.5> -426 235<567.5 642 567.5 655.5> -28 21G<493 577> 895 236<719.5 758 681 781> 1097 20G<932 1149 1149 1149> 1102 20G<892 892> 1111 20G<681 758> 1543 20G<712 755.5>
VStem: 82 279 804 264
LayerCount: 2
Fore
SplineSet
885 132 m 2xa340
 885 141 l 1
 849 104 805 66 767 44 c 0
 689 -4 611 -28 543 -28 c 0
 443 -28 355 13 277 98 c 0
 200 181 163 304 163 466 c 0
 163 589 189 705 236 803 c 0
 283 896 354 985 432 1041 c 0
 516 1100 622 1131 740 1131 c 0xa3c0
 776 1131 828 1128 892 1122 c 2xa540
 914 1119 l 2
 921 1118 929 1117 932 1117 c 2
 1149 1117 l 1
 1149 346 l 2
 1149 179 1147 68 1142 26 c 0
 1138 -12 1130 -56 1118 -98 c 0
 1090 -197 1026 -282 929 -341 c 0
 834 -398 721 -426 590 -426 c 0
 459 -426 317 -388 167 -314 c 1
 167 -25 l 1
 256 -84 344 -131 407 -155 c 0
 472 -177 538 -191 597 -191 c 0
 687 -191 773 -161 823 -109 c 1
 823 -110 l 1x6940
 846 -84 863 -54 870 -21 c 0
 879 15 885 65 885 132 c 2xa340
885 492 m 1
 885 882 l 1
 846 889 799 895 763 895 c 0xb140
 676 895 595 853 534 789 c 1
 535 791 l 1
 477 718 442 614 442 489 c 0
 442 396 459 329 490 286 c 1
 490 287 l 1
 518 248 551 229 583 229 c 0
 626 229 673 251 729 298 c 0
 788 346 838 410 885 492 c 1
734 1237 m 0
 689 1237 651 1253 619 1285 c 0
 587 1316 571 1355 571 1399 c 0
 571 1443 587 1482 619 1515 c 0
 654 1546 690 1563 734 1563 c 0
 777 1563 815 1546 847 1515 c 0
 880 1482 896 1444 896 1399 c 0
 896 1354 880 1315 848 1284 c 0
 816 1252 777 1237 734 1237 c 0
EndSplineSet
EndChar

StartChar: Gcedilla
Encoding: 290 290 226
Width: 1229
GlyphClass: 2
Flags: MW
HStem: -44 240<854 882 854 882.5> 576 240<737 882 737 1167> 1355 241<764 864> 1576 20G<764 871.5>
VStem: 81 292 755 331 802 285
LayerCount: 2
Fore
SplineSet
1167 816 m 1xda
 1167 13 l 1xda
 1039 -25 928 -44 837 -44 c 0
 575 -44 364 86 247 346 c 0
 190 474 161 616 161 776 c 0
 161 932 189 1073 245 1202 c 1
 244 1202 l 1
 300 1331 380 1429 485 1495 c 0
 588 1563 702 1596 826 1596 c 0
 917 1596 1032 1570 1166 1521 c 1
 1166 1232 l 1
 1027 1314 910 1355 818 1355 c 0xec
 693 1355 574 1253 506 1082 c 1
 506 1083 l 1
 472 990 453 883 453 774 c 0
 453 632 494 484 554 367 c 1
 618 257 720 196 854 196 c 2
 882 196 l 1
 882 576 l 1
 737 576 l 1
 737 816 l 1
 1167 816 l 1xda
719 -705 m 1
 719 -571 l 1
 784 -554 810 -530 823 -495 c 0
 829 -483 833 -469 835 -455 c 1
 803 -449 779 -436 760 -414 c 0xdc
 738 -387 725 -358 725 -326 c 0
 725 -288 739 -257 766 -232 c 1
 765 -232 l 1
 790 -207 821 -194 856 -194 c 0
 899 -194 937 -213 968 -249 c 0
 997 -285 1013 -333 1013 -391 c 0
 1011 -535 900 -683 719 -705 c 1
EndSplineSet
EndChar

StartChar: gcedilla
Encoding: 291 291 227
Width: 1229
GlyphClass: 2
Flags: MW
HStem: -426 21G<524.5 655.5> -426 235<567.5 642 567.5 655.5> -28 21G<493 577> 895 236<719.5 758 681 781> 1097 20G<932 1149 1149 1149> 1102 20G<892 892> 1111 20G<681 758> 1575 20G
VStem: 82 279 804 264
LayerCount: 2
Fore
SplineSet
885 132 m 2xa340
 885 141 l 1
 849 104 805 66 767 44 c 0
 689 -4 611 -28 543 -28 c 0
 443 -28 355 13 277 98 c 0
 200 181 163 304 163 466 c 0
 163 589 189 705 236 803 c 0
 283 896 354 985 432 1041 c 0
 516 1100 622 1131 740 1131 c 0xa3c0
 776 1131 828 1128 892 1122 c 2xa540
 914 1119 l 2
 921 1118 929 1117 932 1117 c 2
 1149 1117 l 1
 1149 346 l 2
 1149 179 1147 68 1142 26 c 0
 1138 -12 1130 -56 1118 -98 c 0
 1090 -197 1026 -282 929 -341 c 0
 834 -398 721 -426 590 -426 c 0
 459 -426 317 -388 167 -314 c 1
 167 -25 l 1
 256 -84 344 -131 407 -155 c 0
 472 -177 538 -191 597 -191 c 0
 687 -191 773 -161 823 -109 c 1
 823 -110 l 1x6940
 846 -84 863 -54 870 -21 c 0
 879 15 885 65 885 132 c 2xa340
885 492 m 1
 885 882 l 1
 846 889 799 895 763 895 c 0xb140
 676 895 595 853 534 789 c 1
 535 791 l 1
 477 718 442 614 442 489 c 0
 442 396 459 329 490 286 c 1
 490 287 l 1
 518 248 551 229 583 229 c 0
 626 229 673 251 729 298 c 0
 788 346 838 410 885 492 c 1
897 1885 m 1
 897 1728 l 1
 822 1708 792 1682 773 1640 c 1
 774 1641 l 1
 769 1629 765 1612 763 1595 c 1
 799 1589 828 1572 849 1547 c 0
 875 1515 888 1482 888 1446 c 0
 888 1401 874 1366 844 1337 c 0
 814 1309 779 1294 738 1294 c 0
 687 1294 645 1315 609 1357 c 0
 575 1398 558 1453 558 1521 c 0
 558 1635 612 1739 696 1811 c 0
 740 1848 807 1872 897 1885 c 1
EndSplineSet
EndChar

StartChar: Hcircumflex
Encoding: 292 292 228
Width: 1229
GlyphClass: 2
Flags: MW
HStem: 0 21G<177 462 177 177 906 906 906 1189> 685 240<462 906 462 906> 1532 20G<177 462 462 462 906 1189 1189 1189>
VStem: 89 285 818 283
LayerCount: 2
Fore
SplineSet
462 0 m 1
 177 0 l 1
 177 1552 l 1
 462 1552 l 1
 462 925 l 1
 906 925 l 1
 906 1552 l 1
 1189 1552 l 1
 1189 0 l 1
 906 0 l 1
 906 685 l 1
 462 685 l 1
 462 0 l 1
792 1575 m 1
 684 1706 l 1
 619 1627 l 1
 575 1575 l 1
 314 1575 l 1
 602 1976 l 1
 766 1976 l 1
 1054 1575 l 1
 792 1575 l 1
EndSplineSet
EndChar

StartChar: hcircumflex
Encoding: 293 293 229
Width: 1229
GlyphClass: 2
Flags: MW
HStem: 0 21G<241 505 241 241 923 923 923 1187> 1125 20G<802.5 875> 1553 20G<241 505 505 505>
VStem: 121 264 803 264
LayerCount: 2
Fore
SplineSet
505 0 m 1
 241 0 l 1
 241 1573 l 1
 505 1573 l 1
 505 984 l 1
 537 1017 573 1048 610 1071 c 0
 686 1121 763 1145 842 1145 c 0
 908 1145 971 1129 1025 1093 c 1
 1025 1094 l 1
 1081 1060 1120 1017 1143 967 c 0
 1160 930 1173 890 1179 849 c 1
 1179 850 l 1
 1185 814 1187 734 1187 619 c 2
 1187 0 l 1
 923 0 l 1
 923 640 l 2
 923 733 918 793 911 821 c 1
 911 820 l 1
 904 842 892 860 874 874 c 0
 856 888 839 895 821 895 c 0
 772 895 717 870 657 821 c 0
 596 771 546 708 505 633 c 1
 505 0 l 1
752 1637 m 1
 644 1768 l 1
 579 1689 l 1
 535 1637 l 1
 274 1637 l 1
 562 2038 l 1
 726 2038 l 1
 1014 1637 l 1
 752 1637 l 1
EndSplineSet
EndChar

StartChar: Hbar
Encoding: 294 294 230
Width: 1229
GlyphClass: 2
Flags: MW
HStem: 0 21G<125 410 125 125 854 854 854 1137> 685 240<410 854 410 854> 984 241<73 125 73 125 410 854 1137 1188> 1532 20G<125 410 410 410 854 1137 1137 1137>
VStem: 89 285 818 283
LayerCount: 2
Fore
SplineSet
410 0 m 1
 125 0 l 1
 125 984 l 1
 73 984 l 1
 73 1225 l 1
 125 1225 l 1
 125 1552 l 1
 410 1552 l 1
 410 1225 l 1
 854 1225 l 1
 854 1552 l 1
 1137 1552 l 1
 1137 1225 l 1
 1188 1225 l 1
 1188 984 l 1
 1137 984 l 1
 1137 0 l 1
 854 0 l 1
 854 685 l 1
 410 685 l 1
 410 0 l 1
410 925 m 1
 854 925 l 1
 854 984 l 1
 410 984 l 1
 410 925 l 1
EndSplineSet
EndChar

StartChar: hbar
Encoding: 295 295 231
Width: 1229
GlyphClass: 2
Flags: MW
HStem: 0 21G<133 396 133 133 815 815 815 1080> 1112 20G<635 635> 1125 20G<716.5 766.5> 1128 17 1128 208<29 133 29 133 396 620> 1553 20G<133 396 396 396>
VStem: 119 263 606 15 801 265
LayerCount: 2
Fore
SplineSet
502 1071 m 0xa780
 541 1097 580 1116 620 1128 c 1
 396 1128 l 1x9780
 396 984 l 1
 429 1017 465 1048 502 1071 c 0xa780
396 0 m 1
 133 0 l 1
 133 1128 l 1x9780
 29 1128 l 1
 29 1336 l 1
 133 1336 l 1
 133 1573 l 1
 396 1573 l 1
 396 1336 l 1x8f80
 635 1336 l 1xc780
 635 1132 l 1
 667 1141 700 1145 733 1145 c 0
 800 1145 862 1129 916 1093 c 1
 916 1094 l 1
 972 1060 1011 1017 1035 967 c 0
 1052 930 1064 890 1071 849 c 1
 1071 850 l 1
 1077 814 1080 734 1080 619 c 2
 1080 0 l 1
 815 0 l 1
 815 640 l 2
 815 733 810 793 803 821 c 1
 803 820 l 1
 796 842 784 860 766 874 c 0
 747 888 730 895 712 895 c 0
 664 895 609 870 549 821 c 0
 487 771 438 708 396 633 c 1
 396 0 l 1
EndSplineSet
EndChar

StartChar: Itilde
Encoding: 296 296 232
Width: 1229
GlyphClass: 2
Flags: MW
HStem: 0 241<265 584 869 1190 265 584> 1310 242<265 584 265 1190 869 869 869 1190>
VStem: 242 213 452 285 735 218
LayerCount: 2
Fore
SplineSet
1190 0 m 1xd0
 265 0 l 1
 265 241 l 1
 584 241 l 1
 584 1310 l 1
 265 1310 l 1
 265 1552 l 1
 1190 1552 l 1
 1190 1310 l 1
 869 1310 l 1
 869 241 l 1
 1190 241 l 1
 1190 0 l 1xd0
587 1576 m 1
 374 1576 l 1
 374 1806 468 1911 592 1911 c 0
 641 1911 689 1898 735 1866 c 1
 734 1867 l 1
 774 1843 l 2
 818 1815 846 1802 859 1802 c 0
 864 1802 867 1838 867 1911 c 1
 1085 1911 l 1
 1078 1809 1067 1741 1051 1705 c 1
 1052 1705 l 1
 1038 1671 1010 1639 974 1613 c 0
 940 1588 901 1575 859 1575 c 0
 811 1575 754 1595 701 1628 c 2
 659 1655 l 1
 635 1671 l 2
 622 1680 609 1685 602 1685 c 0
 601 1685 595 1679 593 1677 c 0
 589 1670 587 1636 587 1576 c 1
EndSplineSet
EndChar

StartChar: itilde
Encoding: 297 297 233
Width: 1229
GlyphClass: 2
Flags: MW
HStem: 0 235<787 1073 787 1073> 882 235<239 523 239 787>
VStem: 195 213 404 264 688 218
LayerCount: 2
Fore
SplineSet
1073 0 m 1xd0
 523 0 l 1
 523 882 l 1xd0
 239 882 l 1
 239 1117 l 1xe0
 787 1117 l 1
 787 235 l 1
 1073 235 l 1
 1073 0 l 1xd0
527 1149 m 1
 314 1149 l 1
 314 1379 408 1484 532 1484 c 0
 581 1484 629 1471 675 1439 c 1
 674 1440 l 1
 714 1416 l 2
 758 1388 786 1375 799 1375 c 0
 804 1375 807 1411 807 1484 c 1
 1025 1484 l 1
 1018 1382 1007 1314 991 1278 c 1
 992 1278 l 1
 978 1244 950 1212 914 1186 c 0
 880 1161 841 1148 799 1148 c 0
 751 1148 694 1168 641 1201 c 2
 599 1228 l 1
 575 1244 l 2
 562 1253 549 1258 542 1258 c 0
 541 1258 535 1252 533 1250 c 0
 529 1243 527 1209 527 1149 c 1
EndSplineSet
EndChar

StartChar: Imacron
Encoding: 298 298 234
Width: 1229
GlyphClass: 2
Flags: MW
HStem: 0 241<265 584 869 1190 265 584> 1310 242<265 584 265 1190 869 869 869 1190> 1675 212<418 1038 418 1038>
VStem: 452 285
LayerCount: 2
Fore
SplineSet
1190 0 m 1
 265 0 l 1
 265 241 l 1
 584 241 l 1
 584 1310 l 1
 265 1310 l 1
 265 1552 l 1
 1190 1552 l 1
 1190 1310 l 1
 869 1310 l 1
 869 241 l 1
 1190 241 l 1
 1190 0 l 1
1038 1675 m 1
 418 1675 l 1
 418 1887 l 1
 1038 1887 l 1
 1038 1675 l 1
EndSplineSet
EndChar

StartChar: imacron
Encoding: 299 299 235
Width: 1229
GlyphClass: 2
Flags: MW
HStem: 0 235<787 1073 787 1073> 882 235<239 523 239 787> 1148 212<359 979 359 979>
VStem: 404 264
LayerCount: 2
Fore
SplineSet
1073 0 m 1
 523 0 l 1
 523 882 l 1
 239 882 l 1
 239 1117 l 1
 787 1117 l 1
 787 235 l 1
 1073 235 l 1
 1073 0 l 1
979 1148 m 1
 359 1148 l 1
 359 1360 l 1
 979 1360 l 1
 979 1148 l 1
EndSplineSet
EndChar

StartChar: Ibreve
Encoding: 300 300 236
Width: 1229
GlyphClass: 2
Flags: MW
HStem: 0 241<265 584 869 1190 265 584> 1310 242<265 584 265 1190 869 869 869 1190> 1575 219<729 729>
VStem: 452 285
LayerCount: 2
Fore
SplineSet
1190 0 m 1
 265 0 l 1
 265 241 l 1
 584 241 l 1
 584 1310 l 1
 265 1310 l 1
 265 1552 l 1
 1190 1552 l 1
 1190 1310 l 1
 869 1310 l 1
 869 241 l 1
 1190 241 l 1
 1190 0 l 1
397 1976 m 1
 614 1976 l 1
 622 1908 637 1859 661 1831 c 0
 682 1806 705 1794 729 1794 c 0
 751 1794 775 1809 794 1831 c 0
 817 1861 834 1911 842 1976 c 1
 1057 1976 l 1
 1030 1708 875 1582 729 1575 c 1
 583 1582 426 1708 397 1976 c 1
EndSplineSet
EndChar

StartChar: ibreve
Encoding: 301 301 237
Width: 1229
GlyphClass: 2
Flags: MW
HStem: 0 235<787 1073 787 1073> 882 235<239 523 239 787> 1148 219<669 669>
VStem: 404 264
LayerCount: 2
Fore
SplineSet
1073 0 m 1
 523 0 l 1
 523 882 l 1
 239 882 l 1
 239 1117 l 1
 787 1117 l 1
 787 235 l 1
 1073 235 l 1
 1073 0 l 1
337 1549 m 1
 554 1549 l 1
 562 1481 577 1432 601 1404 c 0
 622 1379 645 1367 669 1367 c 0
 691 1367 715 1382 734 1404 c 0
 757 1434 774 1484 782 1549 c 1
 997 1549 l 1
 970 1281 815 1155 669 1148 c 1
 523 1155 366 1281 337 1549 c 1
EndSplineSet
EndChar

StartChar: Iogonek
Encoding: 302 302 238
Width: 1229
GlyphClass: 2
Flags: MW
HStem: -397 21G<733.5 790> 0 105<687 919 687 1190> 0 241<265 584 869 1190 265 584> 28 77<687 936> 1310 242<265 584 265 1190 869 869 869 1190>
VStem: 452 285
LayerCount: 2
Fore
SplineSet
1190 0 m 1xcc
 265 0 l 1xcc
 265 241 l 1
 584 241 l 1
 584 1310 l 1
 265 1310 l 1
 265 1552 l 1
 1190 1552 l 1
 1190 1310 l 1
 869 1310 l 1
 869 241 l 1
 1190 241 l 1xac
 1190 0 l 1xcc
687 105 m 1
 919 105 l 1xcc
 936 28 l 1x9c
 869 -2 818 -39 788 -81 c 1
 788 -80 l 1
 760 -119 747 -148 747 -167 c 0
 747 -184 765 -202 812 -202 c 0
 828 -202 868 -188 935 -159 c 1
 935 -353 l 1
 869 -382 812 -397 768 -397 c 0
 699 -397 640 -379 593 -339 c 0
 545 -299 520 -247 520 -184 c 0
 520 -93 576 1 687 105 c 1
EndSplineSet
EndChar

StartChar: iogonek
Encoding: 303 303 239
Width: 1229
GlyphClass: 2
Flags: MW
HStem: -397 21G<676.5 733> 0 105<630 862 630 1075> 0 235<789 1075 789 1075> 28 77<630 879> 882 235<241 525 241 789>
VStem: 405 264
LayerCount: 2
Fore
SplineSet
1075 0 m 1xcc
 525 0 l 1xcc
 525 882 l 1
 241 882 l 1
 241 1117 l 1
 789 1117 l 1
 789 235 l 1
 1075 235 l 1xac
 1075 0 l 1xcc
497 1440 m 0
 497 1493 517 1535 555 1563 c 0
 588 1588 625 1601 657 1601 c 0
 691 1601 727 1588 760 1563 c 0
 798 1535 818 1494 818 1440 c 0
 818 1386 798 1346 760 1317 c 0
 726 1293 690 1279 657 1279 c 0
 623 1279 589 1291 554 1318 c 1
 555 1317 l 1
 517 1346 497 1386 497 1440 c 0
630 105 m 1
 862 105 l 1xcc
 879 28 l 1x9c
 812 -2 761 -39 731 -81 c 1
 731 -80 l 1
 703 -119 690 -148 690 -167 c 0
 690 -184 708 -202 755 -202 c 0
 771 -202 811 -188 878 -159 c 1
 878 -353 l 1
 812 -382 755 -397 711 -397 c 0
 642 -397 583 -379 536 -339 c 0
 488 -299 463 -247 463 -184 c 0
 463 -93 519 1 630 105 c 1
EndSplineSet
EndChar

StartChar: Idot
Encoding: 304 304 240
Width: 1229
GlyphClass: 2
Flags: MW
HStem: 0 241<265 584 869 1190 265 584> 1310 242<265 584 265 1190 869 869 869 1190>
VStem: 452 285
LayerCount: 2
Fore
SplineSet
1190 0 m 1
 265 0 l 1
 265 241 l 1
 584 241 l 1
 584 1310 l 1
 265 1310 l 1
 265 1552 l 1
 1190 1552 l 1
 1190 1310 l 1
 869 1310 l 1
 869 241 l 1
 1190 241 l 1
 1190 0 l 1
721 1616 m 0
 676 1616 638 1632 606 1664 c 0
 574 1695 558 1734 558 1778 c 0
 558 1822 574 1861 606 1894 c 0
 641 1925 677 1942 721 1942 c 0
 764 1942 802 1925 834 1894 c 0
 867 1861 883 1823 883 1778 c 0
 883 1733 867 1694 835 1663 c 0
 803 1631 764 1616 721 1616 c 0
EndSplineSet
EndChar

StartChar: dotlessi
Encoding: 305 305 241
Width: 1229
GlyphClass: 2
Flags: MW
HStem: 0 235<787 1073 787 1073> 882 235<239 523 239 787>
VStem: 404 264
LayerCount: 2
Fore
SplineSet
1073 0 m 1
 523 0 l 1
 523 882 l 1
 239 882 l 1
 239 1117 l 1
 787 1117 l 1
 787 235 l 1
 1073 235 l 1
 1073 0 l 1
EndSplineSet
EndChar

StartChar: IJ
Encoding: 306 306 242
Width: 1229
GlyphClass: 2
Flags: MW
HStem: -44 21G<637.5 751> -44 241<649.5 731 649.5 751> 0 21G<4 289 4 4> 1532 20G<4 289 289 289 906 1191 1191 1191>
VStem: 2 285 904 285
LayerCount: 2
Fore
SplineSet
301 48 m 1xbc
 301 337 l 1
 476 244 607 197 692 197 c 0
 770 197 838 224 875 294 c 0x5c
 896 333 906 421 906 556 c 2
 906 1552 l 1
 1191 1552 l 1
 1191 551 l 2
 1191 386 1172 267 1133 194 c 0
 1094 117 1037 59 965 17 c 0
 895 -24 805 -44 697 -44 c 0
 578 -44 447 -14 301 48 c 1xbc
289 0 m 1
 4 0 l 1
 4 1552 l 1
 289 1552 l 1
 289 0 l 1
EndSplineSet
EndChar

StartChar: ij
Encoding: 307 307 243
Width: 1229
GlyphClass: 2
Flags: MW
HStem: -427 21G<613.5 706.5> -427 236<629.5 705.5 629.5 706.5> 0 21G<92 356 92 92> 1097 20G<92 356 356 356 882 1147 1147 1147>
VStem: 61 264 851 265
LayerCount: 2
Fore
SplineSet
371 -393 m 1xbc
 371 -131 l 1
 505 -171 601 -191 658 -191 c 0
 753 -191 818 -162 854 -87 c 0x7c
 874 -47 882 29 882 139 c 2
 882 1117 l 1
 1147 1117 l 1
 1147 171 l 2
 1147 -11 1124 -140 1079 -214 c 1
 1079 -214 l 1
 1033 -290 976 -345 911 -379 c 0
 847 -410 761 -427 652 -427 c 0
 575 -427 481 -416 371 -393 c 1xbc
854 1440 m 0
 854 1494 874 1535 912 1563 c 0
 946 1589 980 1601 1014 1601 c 0
 1048 1601 1082 1588 1116 1563 c 0
 1154 1534 1175 1492 1175 1440 c 0
 1175 1387 1155 1346 1117 1317 c 0
 1083 1292 1049 1279 1014 1279 c 0
 982 1279 946 1293 912 1317 c 0
 874 1346 854 1386 854 1440 c 0
356 0 m 1
 92 0 l 1
 92 1117 l 1
 356 1117 l 1
 356 0 l 1
63 1440 m 0
 63 1493 84 1535 122 1563 c 0
 155 1588 192 1601 224 1601 c 0
 258 1601 294 1588 327 1563 c 0
 365 1535 385 1494 385 1440 c 0
 385 1386 365 1346 327 1317 c 0
 293 1293 257 1279 224 1279 c 0
 190 1279 156 1291 121 1318 c 1
 122 1317 l 1
 83 1346 63 1386 63 1440 c 0
EndSplineSet
EndChar

StartChar: Jcircumflex
Encoding: 308 308 244
Width: 1229
GlyphClass: 2
Flags: MW
HStem: -44 21G<478 591> -44 241<490 571 490 591> 1310 242<419 746 419 1031>
VStem: 676 285
LayerCount: 2
Fore
SplineSet
141 48 m 1xb0
 141 337 l 1
 317 244 448 197 532 197 c 0
 610 197 679 224 715 294 c 0x70
 736 333 746 421 746 556 c 2
 746 1310 l 1
 419 1310 l 1
 419 1552 l 1
 1031 1552 l 1
 1031 551 l 2
 1031 386 1012 267 973 194 c 0
 935 117 877 59 806 17 c 0
 735 -24 645 -44 537 -44 c 0
 419 -44 288 -14 141 48 c 1xb0
820 1575 m 1
 712 1706 l 1
 647 1627 l 1
 603 1575 l 1
 342 1575 l 1
 630 1976 l 1
 794 1976 l 1
 1082 1575 l 1
 820 1575 l 1
EndSplineSet
EndChar

StartChar: jcircumflex
Encoding: 309 309 245
Width: 1229
GlyphClass: 2
Flags: MW
HStem: -427 21G<508 601.5> -427 236<524.5 600.5 524.5 601.5> 882 235<343 778 343 1042>
VStem: 646 264
LayerCount: 2
Fore
SplineSet
265 -393 m 1xb0
 265 -131 l 1
 399 -171 496 -191 553 -191 c 0x70
 648 -191 714 -162 748 -87 c 0
 768 -47 778 29 778 139 c 2
 778 882 l 1
 343 882 l 1
 343 1117 l 1
 1042 1117 l 1
 1042 171 l 2
 1042 -10 1019 -140 972 -214 c 1
 973 -214 l 1
 928 -290 871 -345 805 -379 c 0
 743 -410 656 -427 547 -427 c 0
 469 -427 376 -416 265 -393 c 1xb0
884 1268 m 1
 776 1399 l 1
 711 1320 l 1
 667 1268 l 1
 406 1268 l 1
 694 1669 l 1
 858 1669 l 1
 1146 1268 l 1
 884 1268 l 1
EndSplineSet
EndChar

StartChar: Kcedilla
Encoding: 310 310 246
Width: 1229
GlyphClass: 2
Flags: MW
HStem: -408 21G 0 21G<241 526 241 241 1033 1033 1033 1392> 1532 20G<241 526 526 526 997 1316 1316 1316>
VStem: 121 285 877 35
LayerCount: 2
Fore
SplineSet
526 0 m 1
 241 0 l 1
 241 1552 l 1
 526 1552 l 1
 526 931 l 1
 997 1552 l 1
 1316 1552 l 1
 758 813 l 1
 1245 188 l 1
 1392 0 l 1
 1033 0 l 1
 526 652 l 1
 526 0 l 1
738 -658 m 1
 738 -524 l 1
 803 -507 829 -483 842 -448 c 0
 848 -436 852 -422 854 -408 c 1
 822 -402 798 -389 779 -367 c 0
 757 -340 744 -311 744 -279 c 0
 744 -241 758 -210 785 -185 c 1
 784 -185 l 1
 809 -160 840 -147 875 -147 c 0
 918 -147 956 -166 987 -202 c 0
 1016 -238 1032 -286 1032 -344 c 0
 1030 -488 919 -636 738 -658 c 1
EndSplineSet
EndChar

StartChar: kcedilla
Encoding: 311 311 247
Width: 1229
GlyphClass: 2
Flags: MW
HStem: -408 21G 0 21G<341 605 341 341 1035 1035 1035 1397> 1097 20G<1030 1394 1394 1394> 1553 20G<341 605 605 605>
VStem: 171 264
LayerCount: 2
Fore
SplineSet
605 0 m 1
 341 0 l 1
 341 1573 l 1
 605 1573 l 1
 605 707 l 1
 724 822 l 1
 1030 1117 l 1
 1394 1117 l 1
 852 595 l 1
 1397 0 l 1
 1035 0 l 1
 605 475 l 1
 605 0 l 1
710 -658 m 1
 710 -524 l 1
 775 -507 801 -483 814 -448 c 0
 820 -436 824 -422 826 -408 c 1
 794 -402 770 -389 751 -367 c 0
 729 -340 716 -311 716 -279 c 0
 716 -241 730 -210 757 -185 c 1
 756 -185 l 1
 781 -160 812 -147 847 -147 c 0
 890 -147 928 -166 959 -202 c 0
 988 -238 1004 -286 1004 -344 c 0
 1002 -488 891 -636 710 -658 c 1
EndSplineSet
EndChar

StartChar: kgreenlandic
Encoding: 312 312 248
Width: 1229
GlyphClass: 2
Flags: MW
HStem: 0 21G<341 605 341 341 1035 1035 1035 1397> 1097 20G<341 605 605 605 1030 1394 1394 1394>
VStem: 171 264
LayerCount: 2
Fore
SplineSet
605 0 m 1
 341 0 l 1
 341 1117 l 1
 605 1117 l 1
 605 707 l 1
 724 822 l 1
 1030 1117 l 1
 1394 1117 l 1
 852 595 l 1
 1397 0 l 1
 1035 0 l 1
 605 475 l 1
 605 0 l 1
EndSplineSet
EndChar

StartChar: Lacute
Encoding: 313 313 249
Width: 1229
GlyphClass: 2
Flags: MW
HStem: 0 256<578 1175 578 1175> 1532 20G<293 578 578 578>
VStem: 177 285
LayerCount: 2
Fore
SplineSet
578 256 m 1
 1175 256 l 1
 1175 0 l 1
 293 0 l 1
 293 1552 l 1
 578 1552 l 1
 578 256 l 1
522 1575 m 1
 233 1575 l 1
 598 1976 l 1
 943 1976 l 1
 522 1575 l 1
EndSplineSet
EndChar

StartChar: lacute
Encoding: 314 314 250
Width: 1229
GlyphClass: 2
Flags: MW
HStem: 0 235<743 1063 743 1063> 1336 237<173 480 173 743>
VStem: 394 263
LayerCount: 2
Fore
SplineSet
1063 0 m 1
 480 0 l 1
 480 1336 l 1
 173 1336 l 1
 173 1573 l 1
 743 1573 l 1
 743 235 l 1
 1063 235 l 1
 1063 0 l 1
572 1637 m 1
 283 1637 l 1
 648 2038 l 1
 993 2038 l 1
 572 1637 l 1
EndSplineSet
EndChar

StartChar: Lcedilla
Encoding: 315 315 251
Width: 1229
GlyphClass: 2
Flags: MW
HStem: -408 21G 0 256<638 1235 638 1235> 1532 20G<353 638 638 638>
VStem: 177 285
LayerCount: 2
Fore
SplineSet
638 256 m 1
 1235 256 l 1
 1235 0 l 1
 353 0 l 1
 353 1552 l 1
 638 1552 l 1
 638 256 l 1
716 -658 m 1
 716 -524 l 1
 781 -507 807 -483 820 -448 c 0
 826 -436 830 -422 832 -408 c 1
 800 -402 776 -389 757 -367 c 0
 735 -340 722 -311 722 -279 c 0
 722 -241 736 -210 763 -185 c 1
 762 -185 l 1
 787 -160 818 -147 853 -147 c 0
 896 -147 934 -166 965 -202 c 0
 994 -238 1010 -286 1010 -344 c 0
 1008 -488 897 -636 716 -658 c 1
EndSplineSet
EndChar

StartChar: lcedilla
Encoding: 316 316 252
Width: 1229
GlyphClass: 2
Flags: MW
HStem: -408 21G 0 235<743 1063 743 1063> 1336 237<173 480 173 743>
VStem: 394 263
LayerCount: 2
Fore
SplineSet
1063 0 m 1
 480 0 l 1
 480 1336 l 1
 173 1336 l 1
 173 1573 l 1
 743 1573 l 1
 743 235 l 1
 1063 235 l 1
 1063 0 l 1
626 -658 m 1
 626 -524 l 1
 691 -507 717 -483 730 -448 c 0
 736 -436 740 -422 742 -408 c 1
 710 -402 686 -389 667 -367 c 0
 645 -340 632 -311 632 -279 c 0
 632 -241 646 -210 673 -185 c 1
 672 -185 l 1
 697 -160 728 -147 763 -147 c 0
 806 -147 844 -166 875 -202 c 0
 904 -238 920 -286 920 -344 c 0
 918 -488 807 -636 626 -658 c 1
EndSplineSet
EndChar

StartChar: Lcaron
Encoding: 317 317 253
Width: 1229
GlyphClass: 2
Flags: MW
HStem: 0 256<638 1235 638 1235> 1532 20G<353 638 638 638>
VStem: 177 285
LayerCount: 2
Fore
SplineSet
638 256 m 1
 1235 256 l 1
 1235 0 l 1
 353 0 l 1
 353 1552 l 1
 638 1552 l 1
 638 256 l 1
1069 1088 m 1
 1069 1222 l 1
 1134 1239 1161 1263 1174 1298 c 0
 1179 1310 1183 1324 1185 1338 c 1
 1153 1344 1129 1357 1110 1379 c 0
 1088 1406 1075 1435 1075 1468 c 0
 1075 1505 1089 1536 1116 1561 c 1
 1115 1561 l 1
 1140 1586 1171 1600 1206 1600 c 0
 1249 1600 1287 1580 1318 1544 c 0
 1347 1508 1363 1460 1363 1403 c 0
 1361 1258 1250 1110 1069 1088 c 1
EndSplineSet
EndChar

StartChar: lcaron
Encoding: 318 318 254
Width: 1229
GlyphClass: 2
Flags: MW
HStem: 0 235<743 1063 743 1063> 1336 237<173 480 173 743>
VStem: 394 263
LayerCount: 2
Fore
SplineSet
1063 0 m 1
 480 0 l 1
 480 1336 l 1
 173 1336 l 1
 173 1573 l 1
 743 1573 l 1
 743 235 l 1
 1063 235 l 1
 1063 0 l 1
1024 1150 m 1
 1024 1284 l 1
 1089 1301 1116 1325 1129 1360 c 0
 1134 1372 1138 1386 1140 1400 c 1
 1108 1406 1084 1419 1065 1441 c 0
 1043 1468 1030 1497 1030 1530 c 0
 1030 1567 1044 1598 1071 1623 c 1
 1070 1623 l 1
 1095 1648 1126 1662 1161 1662 c 0
 1204 1662 1242 1642 1273 1606 c 0
 1302 1570 1318 1522 1318 1465 c 0
 1316 1320 1205 1172 1024 1150 c 1
EndSplineSet
EndChar

StartChar: Ldot
Encoding: 319 319 255
Width: 1229
GlyphClass: 2
Flags: MW
HStem: 0 256<638 1235 638 1235> 1532 20G<353 638 638 638>
VStem: 177 285
LayerCount: 2
Fore
SplineSet
638 256 m 1
 1235 256 l 1
 1235 0 l 1
 353 0 l 1
 353 1552 l 1
 638 1552 l 1
 638 256 l 1
1001 517 m 0
 956 517 918 533 886 565 c 0
 854 596 838 635 838 679 c 0
 838 723 854 762 886 795 c 0
 921 826 957 843 1001 843 c 0
 1044 843 1082 826 1114 795 c 0
 1147 762 1163 724 1163 679 c 0
 1163 634 1147 595 1115 564 c 0
 1083 532 1044 517 1001 517 c 0
EndSplineSet
EndChar

StartChar: ldot
Encoding: 320 320 256
Width: 1229
GlyphClass: 2
Flags: MW
HStem: 0 235<743 1063 743 1063> 1336 237<173 480 173 743>
VStem: 394 263
LayerCount: 2
Fore
SplineSet
1063 0 m 1
 480 0 l 1
 480 1336 l 1
 173 1336 l 1
 173 1573 l 1
 743 1573 l 1
 743 235 l 1
 1063 235 l 1
 1063 0 l 1
1103 648 m 0
 1058 648 1020 664 988 696 c 0
 956 727 940 766 940 810 c 0
 940 854 956 893 988 926 c 0
 1023 957 1059 974 1103 974 c 0
 1146 974 1184 957 1216 926 c 0
 1249 893 1265 855 1265 810 c 0
 1265 765 1249 726 1217 695 c 0
 1185 663 1146 648 1103 648 c 0
EndSplineSet
EndChar

StartChar: Lslash
Encoding: 321 321 257
Width: 1229
GlyphClass: 2
Flags: MW
HStem: 0 256<429 1026 429 1026> 1532 20G<144 429 429 429>
VStem: 174 285
LayerCount: 2
Fore
SplineSet
429 256 m 1
 1026 256 l 1
 1026 0 l 1
 144 0 l 1
 144 634 l 1
 -60 561 l 1
 -60 813 l 1
 144 889 l 1
 144 1552 l 1
 429 1552 l 1
 429 991 l 1
 497 1015 581 1046 640 1066 c 1
 640 812 l 1
 429 737 l 1
 429 256 l 1
EndSplineSet
EndChar

StartChar: lslash
Encoding: 322 322 258
Width: 1229
GlyphClass: 2
Flags: MW
HStem: 0 235<737 1057 737 1057> 1336 237<167 474 167 737>
VStem: 391 263
LayerCount: 2
Fore
SplineSet
1057 0 m 1
 474 0 l 1
 474 614 l 1
 377 577 255 531 167 497 c 1
 167 752 l 1
 474 870 l 1
 474 1336 l 1
 167 1336 l 1
 167 1573 l 1
 737 1573 l 1
 737 971 l 1
 838 1009 963 1057 1057 1092 c 1
 1057 839 l 1
 737 716 l 1
 737 235 l 1
 1057 235 l 1
 1057 0 l 1
EndSplineSet
EndChar

StartChar: Nacute
Encoding: 323 323 259
Width: 1229
GlyphClass: 2
Flags: MW
HStem: 0 21G<177 447 177 177 938 1189 938 938> 1532 20G<177 426 426 426 920 1189 1189 1189>
VStem: 89 270 832 269
LayerCount: 2
Fore
SplineSet
938 0 m 1
 447 936 l 1
 447 0 l 1
 177 0 l 1
 177 1552 l 1
 426 1552 l 1
 920 621 l 1
 920 1552 l 1
 1189 1552 l 1
 1189 0 l 1
 938 0 l 1
625 1575 m 1
 336 1575 l 1
 701 1976 l 1
 1046 1976 l 1
 625 1575 l 1
EndSplineSet
EndChar

